{
DisplayStrings = (

glyphs = (
{
glyphname = "an-georgian";
lastChange = "2017-03-22 20:25:39 +0000";
layers = (
{
backgroundImage = {
crop = "{{0, 0}, {423.12, 471.83999999999997}}";
imagePath = a.jpg;
locked = "1";
transform = "{1.038, 0, 0, 1.038, -26, -13}";
};
layerId = "CCC4B6D6-30B5-49E5-84BA-D7A51BB31B72";
name = Regular;
paths = (
{
closed = 1;
nodes = (
"86 138 OFFCURVE",
"89 139 OFFCURVE",
"93 139 CURVE SMOOTH",
"96 139 OFFCURVE",
"98 139 OFFCURVE",
"100 139 CURVE SMOOTH",
"108 139 OFFCURVE",
"123 149 OFFCURVE",
"123 166 CURVE SMOOTH",
"123 187 OFFCURVE",
"107 196 OFFCURVE",
"92 196 CURVE SMOOTH",
"53 196 OFFCURVE",
"40 161 OFFCURVE",
"40 138 CURVE SMOOTH",
"40 69 OFFCURVE",
"120 -8 OFFCURVE",
"221 -8 CURVE SMOOTH",
"337 -8 OFFCURVE",
"383 93 OFFCURVE",
"383 160 CURVE SMOOTH",
"383 288 OFFCURVE",
"256 277 OFFCURVE",
"256 410 CURVE SMOOTH",
"256 417 OFFCURVE",
"257 423 OFFCURVE",
"259 425 CURVE SMOOTH",
"261 427 OFFCURVE",
"264 428 OFFCURVE",
"268 428 CURVE SMOOTH",
"279 428 OFFCURVE",
"283 425 OFFCURVE",
"294 425 CURVE SMOOTH",
"307 425 OFFCURVE",
"320 430 OFFCURVE",
"320 449 CURVE SMOOTH",
"320 460 OFFCURVE",
"312 471 OFFCURVE",
"293 471 CURVE SMOOTH",
"273 471 OFFCURVE",
"225 436 OFFCURVE",
"225 376 CURVE SMOOTH",
"225 259 OFFCURVE",
"356 239 OFFCURVE",
"356 152 CURVE SMOOTH",
"356 95 OFFCURVE",
"313 15 OFFCURVE",
"220 15 CURVE SMOOTH",
"151 15 OFFCURVE",
"86 70 OFFCURVE",
"86 132 CURVE SMOOTH"
);
}
);
width = 423;
},
{
layerId = "537B1E8F-B3C8-45B3-90C6-0C31F5F160D0";
name = Light;
paths = (
{
closed = 1;
nodes = (
"71 143 OFFCURVE",
"76 149 OFFCURVE",
"86 149 CURVE SMOOTH",
"88 149 OFFCURVE",
"90 149 OFFCURVE",
"94 149 CURVE SMOOTH",
"101 149 OFFCURVE",
"109 160 OFFCURVE",
"109 169 CURVE SMOOTH",
"109 184 OFFCURVE",
"100 193 OFFCURVE",
"85 193 CURVE SMOOTH",
"59 193 OFFCURVE",
"40 171 OFFCURVE",
"40 140 CURVE SMOOTH",
"40 67 OFFCURVE",
"123 -14 OFFCURVE",
"215 -14 CURVE SMOOTH",
"329 -14 OFFCURVE",
"380 95 OFFCURVE",
"380 163 CURVE SMOOTH",
"380 289 OFFCURVE",
"246 275 OFFCURVE",
"246 420 CURVE SMOOTH",
"246 431 OFFCURVE",
"248 437 OFFCURVE",
"251 441 CURVE",
"255 444 OFFCURVE",
"260 446 OFFCURVE",
"267 446 CURVE SMOOTH",
"280 446 OFFCURVE",
"284 443 OFFCURVE",
"293 443 CURVE SMOOTH",
"307 443 OFFCURVE",
"312 448 OFFCURVE",
"312 461 CURVE SMOOTH",
"312 470 OFFCURVE",
"305 476 OFFCURVE",
"292 476 CURVE SMOOTH",
"251 476 OFFCURVE",
"231 454 OFFCURVE",
"231 385 CURVE SMOOTH",
"231 270 OFFCURVE",
"365 250 OFFCURVE",
"365 155 CURVE SMOOTH",
"365 94 OFFCURVE",
"314 -2 OFFCURVE",
"213 -2 CURVE SMOOTH",
"137 -2 OFFCURVE",
"71 67 OFFCURVE",
"71 134 CURVE SMOOTH"
);
}
);
width = 420;
}
);
unicode = 10D0;
},
{
glyphname = "ban-georgian";
lastChange = "2017-03-22 19:55:59 +0000";
layers = (
{
backgroundImage = {
crop = "{{0, 0}, {450.47999999999996, 709.91999999999996}}";
imagePath = b.jpg;
locked = "1";
transform = "{1.031, 0, 0, 1.031, -19, -11}";
};
layerId = "CCC4B6D6-30B5-49E5-84BA-D7A51BB31B72";
name = Regular;
paths = (
{
closed = 1;
nodes = (
"288 -8 OFFCURVE",
"395 70 OFFCURVE",
"401 268 CURVE SMOOTH",
"402 305 OFFCURVE",
"404 340 OFFCURVE",
"404 372 CURVE SMOOTH",
"404 490 OFFCURVE",
"381 575 OFFCURVE",
"230 600 CURVE SMOOTH",
"158 612 OFFCURVE",
"112 620 OFFCURVE",
"112 646 CURVE SMOOTH",
"112 661 OFFCURVE",
"134 675 OFFCURVE",
"134 698 CURVE SMOOTH",
"134 712 OFFCURVE",
"120 722 OFFCURVE",
"109 722 CURVE SMOOTH",
"86 722 OFFCURVE",
"72 699 OFFCURVE",
"72 659 CURVE SMOOTH",
"72 610 OFFCURVE",
"109 584 OFFCURVE",
"177 574 CURVE SMOOTH",
"242 564 OFFCURVE",
"300 549 OFFCURVE",
"323 529 CURVE SMOOTH",
"352 503 OFFCURVE",
"374 455 OFFCURVE",
"378 351 CURVE",
"375 351 LINE",
"349 421 OFFCURVE",
"315 475 OFFCURVE",
"224 475 CURVE SMOOTH",
"60 475 OFFCURVE",
"40 270 OFFCURVE",
"40 227 CURVE SMOOTH",
"40 98 OFFCURVE",
"88 -8 OFFCURVE",
"202 -8 CURVE SMOOTH"
);
},
{
closed = 1;
nodes = (
"96 21 OFFCURVE",
"77 124 OFFCURVE",
"77 220 CURVE SMOOTH",
"77 339 OFFCURVE",
"147 451 OFFCURVE",
"224 451 CURVE SMOOTH",
"322 451 OFFCURVE",
"367 356 OFFCURVE",
"367 255 CURVE SMOOTH",
"367 142 OFFCURVE",
"309 21 OFFCURVE",
"206 21 CURVE SMOOTH"
);
}
);
width = 454;
},
{
layerId = "537B1E8F-B3C8-45B3-90C6-0C31F5F160D0";
name = Light;
paths = (
{
closed = 1;
nodes = (
"285 -14 OFFCURVE",
"392 63 OFFCURVE",
"397 264 CURVE SMOOTH",
"398 303 OFFCURVE",
"400 339 OFFCURVE",
"400 372 CURVE SMOOTH",
"400 493 OFFCURVE",
"377 576 OFFCURVE",
"227 601 CURVE SMOOTH",
"153 613 OFFCURVE",
"98 622 OFFCURVE",
"98 656 CURVE SMOOTH",
"98 674 OFFCURVE",
"121 689 OFFCURVE",
"121 709 CURVE SMOOTH",
"121 718 OFFCURVE",
"111 727 OFFCURVE",
"103 727 CURVE SMOOTH",
"85 727 OFFCURVE",
"73 705 OFFCURVE",
"73 669 CURVE SMOOTH",
"73 624 OFFCURVE",
"105 599 OFFCURVE",
"175 588 CURVE SMOOTH",
"253 577 OFFCURVE",
"308 559 OFFCURVE",
"330 540 CURVE SMOOTH",
"374 499 OFFCURVE",
"386 446 OFFCURVE",
"382 343 CURVE",
"378 343 LINE",
"341 446 OFFCURVE",
"294 471 OFFCURVE",
"222 471 CURVE SMOOTH",
"60 471 OFFCURVE",
"40 266 OFFCURVE",
"40 222 CURVE SMOOTH",
"40 73 OFFCURVE",
"99 -14 OFFCURVE",
"199 -14 CURVE SMOOTH"
);
},
{
closed = 1;
nodes = (
"82 2 OFFCURVE",
"62 114 OFFCURVE",
"62 215 CURVE SMOOTH",
"62 343 OFFCURVE",
"137 461 OFFCURVE",
"222 461 CURVE SMOOTH",
"316 461 OFFCURVE",
"378 377 OFFCURVE",
"378 251 CURVE SMOOTH",
"378 111 OFFCURVE",
"304 2 OFFCURVE",
"204 2 CURVE SMOOTH"
);
}
);
width = 440;
}
);
unicode = 10D1;
},
{
glyphname = "gan-georgian";
lastChange = "2017-03-22 19:53:49 +0000";
layers = (
{
backgroundImage = {
crop = "{{0, 0}, {389.51999999999998, 709.91999999999996}}";
imagePath = g.jpg;
locked = "1";
transform = "{1.004, 0, 0, 1.006, 28, -247}";
};
layerId = "CCC4B6D6-30B5-49E5-84BA-D7A51BB31B72";
name = Regular;
paths = (
{
closed = 1;
nodes = (
"253 -247 OFFCURVE",
"316 -198 OFFCURVE",
"349 -131 CURVE SMOOTH",
"365 -99 OFFCURVE",
"373 -59 OFFCURVE",
"373 -19 CURVE SMOOTH",
"373 152 OFFCURVE",
"270 127 OFFCURVE",
"270 240 CURVE SMOOTH",
"270 311 OFFCURVE",
"324 314 OFFCURVE",
"324 390 CURVE SMOOTH",
"324 441 OFFCURVE",
"287 467 OFFCURVE",
"238 467 CURVE SMOOTH",
"180 467 OFFCURVE",
"127 437 OFFCURVE",
"127 380 CURVE SMOOTH",
"127 351 OFFCURVE",
"144 314 OFFCURVE",
"172 314 CURVE SMOOTH",
"185 314 OFFCURVE",
"198 324 OFFCURVE",
"198 337 CURVE SMOOTH",
"198 386 OFFCURVE",
"158 349 OFFCURVE",
"158 398 CURVE SMOOTH",
"158 420 OFFCURVE",
"190 442 OFFCURVE",
"232 442 CURVE SMOOTH",
"270 442 OFFCURVE",
"293 415 OFFCURVE",
"293 381 CURVE SMOOTH",
"293 310 OFFCURVE",
"237 306 OFFCURVE",
"237 242 CURVE SMOOTH",
"237 214 OFFCURVE",
"253 189 OFFCURVE",
"264 172 CURVE",
"263 171 LINE",
"251 177 OFFCURVE",
"229 184 OFFCURVE",
"217 184 CURVE SMOOTH",
"116 184 OFFCURVE",
"40 123 OFFCURVE",
"40 -12 CURVE SMOOTH",
"40 -129 OFFCURVE",
"110 -247 OFFCURVE",
"194 -247 CURVE SMOOTH"
);
},
{
closed = 1;
nodes = (
"92 -214 OFFCURVE",
"84 -69 OFFCURVE",
"84 -12 CURVE SMOOTH",
"84 57 OFFCURVE",
"103 159 OFFCURVE",
"215 159 CURVE SMOOTH",
"301 159 OFFCURVE",
"342 99 OFFCURVE",
"342 12 CURVE SMOOTH",
"342 -30 OFFCURVE",
"332 -75 OFFCURVE",
"313 -115 CURVE SMOOTH",
"289 -164 OFFCURVE",
"261 -214 OFFCURVE",
"193 -214 CURVE"
);
}
);
width = 413;
},
{
layerId = "537B1E8F-B3C8-45B3-90C6-0C31F5F160D0";
name = Light;
paths = (
{
closed = 1;
nodes = (
"250 -257 OFFCURVE",
"313 -209 OFFCURVE",
"347 -140 CURVE SMOOTH",
"363 -108 OFFCURVE",
"371 -69 OFFCURVE",
"371 -26 CURVE SMOOTH",
"371 193 OFFCURVE",
"264 120 OFFCURVE",
"264 245 CURVE SMOOTH",
"264 325 OFFCURVE",
"320 329 OFFCURVE",
"320 402 CURVE SMOOTH",
"320 448 OFFCURVE",
"290 475 OFFCURVE",
"239 475 CURVE SMOOTH",
"174 475 OFFCURVE",
"131 440 OFFCURVE",
"131 391 CURVE SMOOTH",
"131 359 OFFCURVE",
"150 330 OFFCURVE",
"170 330 CURVE SMOOTH",
"180 330 OFFCURVE",
"188 338 OFFCURVE",
"188 346 CURVE SMOOTH",
"188 411 OFFCURVE",
"147 315 OFFCURVE",
"147 410 CURVE SMOOTH",
"147 439 OFFCURVE",
"186 463 OFFCURVE",
"232 463 CURVE SMOOTH",
"274 463 OFFCURVE",
"305 434 OFFCURVE",
"305 392 CURVE SMOOTH",
"305 311 OFFCURVE",
"246 309 OFFCURVE",
"246 247 CURVE SMOOTH",
"246 227 OFFCURVE",
"261 197 OFFCURVE",
"272 169 CURVE",
"271 168 LINE",
"250 178 OFFCURVE",
"214 179 OFFCURVE",
"217 179 CURVE SMOOTH",
"202 179 OFFCURVE",
"40 192 OFFCURVE",
"40 -18 CURVE SMOOTH",
"40 -142 OFFCURVE",
"113 -257 OFFCURVE",
"193 -257 CURVE SMOOTH"
);
},
{
closed = 1;
nodes = (
"111 -237 OFFCURVE",
"69 -155 OFFCURVE",
"69 -18 CURVE SMOOTH",
"69 101 OFFCURVE",
"121 168 OFFCURVE",
"215 168 CURVE SMOOTH",
"303 168 OFFCURVE",
"356 108 OFFCURVE",
"356 7 CURVE SMOOTH",
"356 -38 OFFCURVE",
"345 -86 OFFCURVE",
"324 -129 CURVE SMOOTH",
"299 -181 OFFCURVE",
"268 -237 OFFCURVE",
"192 -237 CURVE SMOOTH"
);
}
);
width = 411;
}
);
unicode = 10D2;
},
{
glyphname = "don-georgian";
lastChange = "2017-03-22 19:53:30 +0000";
layers = (
{
backgroundImage = {
crop = "{{0, 0}, {534.24000000000001, 709.91999999999996}}";
imagePath = dasamatebeli/d.jpg;
locked = "1";
transform = "{1.054, 0, 0, 1.054, -5, -282}";
};
layerId = "CCC4B6D6-30B5-49E5-84BA-D7A51BB31B72";
name = Regular;
paths = (
{
closed = 1;
nodes = (
"378 -287 OFFCURVE",
"384 -275 OFFCURVE",
"384 -264 CURVE SMOOTH",
"384 -202 OFFCURVE",
"273 -119 OFFCURVE",
"90 -10 CURVE SMOOTH",
"72 1 OFFCURVE",
"62 4 OFFCURVE",
"54 4 CURVE SMOOTH",
"45 4 OFFCURVE",
"40 0 OFFCURVE",
"40 -5 CURVE SMOOTH",
"40 -11 OFFCURVE",
"48 -19 OFFCURVE",
"62 -25 CURVE SMOOTH",
"143 -59 OFFCURVE",
"358 -198 OFFCURVE",
"358 -248 CURVE SMOOTH",
"358 -252 OFFCURVE",
"355 -254 OFFCURVE",
"351 -254 CURVE SMOOTH",
"342 -254 OFFCURVE",
"333 -249 OFFCURVE",
"323 -234 CURVE SMOOTH",
"216 -73 OFFCURVE",
"93 190 OFFCURVE",
"93 317 CURVE SMOOTH",
"93 377 OFFCURVE",
"110 427 OFFCURVE",
"180 427 CURVE SMOOTH",
"223 427 OFFCURVE",
"235 380 OFFCURVE",
"235 363 CURVE SMOOTH",
"235 362 OFFCURVE",
"237 361 OFFCURVE",
"237 360 CURVE",
"272 406 LINE",
"270 406 LINE",
"260 427 OFFCURVE",
"243 465 OFFCURVE",
"176 465 CURVE SMOOTH",
"105 465 OFFCURVE",
"52 405 OFFCURVE",
"52 323 CURVE SMOOTH",
"52 155 OFFCURVE",
"167 -26 OFFCURVE",
"307 -254 CURVE SMOOTH",
"319 -273 OFFCURVE",
"342 -287 OFFCURVE",
"357 -287 CURVE SMOOTH"
);
},
{
closed = 1;
nodes = (
"478 35 OFFCURVE",
"541 157 OFFCURVE",
"541 261 CURVE SMOOTH",
"541 354 OFFCURVE",
"463 453 OFFCURVE",
"376 453 CURVE SMOOTH",
"339 453 OFFCURVE",
"311 436 OFFCURVE",
"272 406 CURVE",
"217 347 OFFCURVE",
"203 321 OFFCURVE",
"203 239 CURVE SMOOTH",
"203 135 OFFCURVE",
"269 35 OFFCURVE",
"388 35 CURVE SMOOTH"
);
},
{
closed = 1;
nodes = (
"313 53 OFFCURVE",
"233 191 OFFCURVE",
"233 275 CURVE SMOOTH",
"233 307 OFFCURVE",
"238 347 OFFCURVE",
"276 385 CURVE SMOOTH",
"301 410 OFFCURVE",
"329 424 OFFCURVE",
"359 424 CURVE SMOOTH",
"442 424 OFFCURVE",
"511 331 OFFCURVE",
"511 232 CURVE SMOOTH",
"511 140 OFFCURVE",
"467 53 OFFCURVE",
"377 53 CURVE SMOOTH"
);
}
);
width = 581;
},
{
layerId = "537B1E8F-B3C8-45B3-90C6-0C31F5F160D0";
name = Light;
paths = (
{
closed = 1;
nodes = (
"362 -263 OFFCURVE",
"368 -258 OFFCURVE",
"368 -247 CURVE SMOOTH",
"368 -195 OFFCURVE",
"285 -116 OFFCURVE",
"78 1 CURVE SMOOTH",
"62 10 OFFCURVE",
"53 14 OFFCURVE",
"46 14 CURVE SMOOTH",
"41 14 OFFCURVE",
"40 13 OFFCURVE",
"40 12 CURVE SMOOTH",
"40 9 OFFCURVE",
"47 3 OFFCURVE",
"57 -2 CURVE",
"139 -36 OFFCURVE",
"358 -177 OFFCURVE",
"358 -231 CURVE SMOOTH",
"358 -239 OFFCURVE",
"352 -244 OFFCURVE",
"343 -244 CURVE SMOOTH",
"330 -244 OFFCURVE",
"319 -236 OFFCURVE",
"308 -221 CURVE",
"201 -59 OFFCURVE",
"77 206 OFFCURVE",
"77 334 CURVE SMOOTH",
"77 413 OFFCURVE",
"108 451 OFFCURVE",
"172 451 CURVE SMOOTH",
"221 451 OFFCURVE",
"235 398 OFFCURVE",
"235 380 CURVE",
"262 409 LINE",
"251 430 OFFCURVE",
"234 475 OFFCURVE",
"168 475 CURVE SMOOTH",
"101 475 OFFCURVE",
"52 418 OFFCURVE",
"52 340 CURVE SMOOTH",
"52 174 OFFCURVE",
"165 -7 OFFCURVE",
"306 -233 CURVE SMOOTH",
"316 -249 OFFCURVE",
"336 -263 OFFCURVE",
"349 -263 CURVE SMOOTH"
);
},
{
closed = 1;
nodes = (
"456 59 OFFCURVE",
"525 164 OFFCURVE",
"525 278 CURVE SMOOTH",
"525 371 OFFCURVE",
"447 463 OFFCURVE",
"368 463 CURVE SMOOTH",
"334 463 OFFCURVE",
"300 453 OFFCURVE",
"262 423 CURVE",
"206 363 OFFCURVE",
"200 311 OFFCURVE",
"203 256 CURVE SMOOTH",
"208 156 OFFCURVE",
"277 59 OFFCURVE",
"380 59 CURVE SMOOTH"
);
},
{
closed = 1;
nodes = (
"304 71 OFFCURVE",
"217 196 OFFCURVE",
"217 292 CURVE SMOOTH",
"217 324 OFFCURVE",
"227 367 OFFCURVE",
"267 407 CURVE SMOOTH",
"294 434 OFFCURVE",
"319 448 OFFCURVE",
"351 448 CURVE SMOOTH",
"437 448 OFFCURVE",
"508 354 OFFCURVE",
"508 249 CURVE SMOOTH",
"508 159 OFFCURVE",
"447 71 OFFCURVE",
"369 71 CURVE SMOOTH"
);
}
);
width = 565;
}
);
unicode = 10D3;
},
{
glyphname = "en-georgian";
lastChange = "2017-03-22 20:22:43 +0000";
layers = (
{
backgroundImage = {
crop = "{{0, 0}, {358.80000000000001, 709.91999999999996}}";
imagePath = eni.jpg;
locked = "1";
transform = "{1, 0, 0, 1, -22, -239}";
};
layerId = "CCC4B6D6-30B5-49E5-84BA-D7A51BB31B72";
name = Regular;
paths = (
{
closed = 1;
nodes = (
"80 306 OFFCURVE",
"80 320 OFFCURVE",
"80 337 CURVE SMOOTH",
"80 403 OFFCURVE",
"112 444 OFFCURVE",
"173 444 CURVE SMOOTH",
"226 444 OFFCURVE",
"258 392 OFFCURVE",
"258 332 CURVE SMOOTH",
"258 255 OFFCURVE",
"251 -55 OFFCURVE",
"234 -169 CURVE SMOOTH",
"232 -179 OFFCURVE",
"229 -190 OFFCURVE",
"229 -201 CURVE SMOOTH",
"229 -221 OFFCURVE",
"236 -239 OFFCURVE",
"254 -239 CURVE SMOOTH",
"278 -239 OFFCURVE",
"289 -191 OFFCURVE",
"289 -166 CURVE SMOOTH",
"289 -59 OFFCURVE",
"283 54 OFFCURVE",
"283 162 CURVE SMOOTH",
"283 219 OFFCURVE",
"283 276 OFFCURVE",
"282 333 CURVE SMOOTH",
"281 389 OFFCURVE",
"257 469 OFFCURVE",
"173 469 CURVE",
"133 469 OFFCURVE",
"99 450 OFFCURVE",
"77 425 CURVE SMOOTH",
"49 393 OFFCURVE",
"40 350 OFFCURVE",
"40 329 CURVE SMOOTH",
"40 283 OFFCURVE",
"55 240 OFFCURVE",
"88 240 CURVE SMOOTH",
"107 240 OFFCURVE",
"118 255 OFFCURVE",
"118 270 CURVE SMOOTH",
"118 287 OFFCURVE",
"108 306 OFFCURVE",
"85 306 CURVE SMOOTH"
);
}
);
width = 339;
},
{
layerId = "537B1E8F-B3C8-45B3-90C6-0C31F5F160D0";
name = Light;
paths = (
{
closed = 1;
nodes = (
"67 304 OFFCURVE",
"65 315 OFFCURVE",
"65 344 CURVE SMOOTH",
"65 420 OFFCURVE",
"104 464 OFFCURVE",
"172 464 CURVE SMOOTH",
"228 464 OFFCURVE",
"269 411 OFFCURVE",
"269 339 CURVE SMOOTH",
"269 258 OFFCURVE",
"268 -70 OFFCURVE",
"244 -189 CURVE SMOOTH",
"242 -200 OFFCURVE",
"239 -211 OFFCURVE",
"239 -222 CURVE SMOOTH",
"239 -243 OFFCURVE",
"246 -255 OFFCURVE",
"257 -255 CURVE SMOOTH",
"271 -255 OFFCURVE",
"285 -219 OFFCURVE",
"285 -185 CURVE SMOOTH",
"285 -73 OFFCURVE",
"279 46 OFFCURVE",
"279 160 CURVE SMOOTH",
"279 220 OFFCURVE",
"281 280 OFFCURVE",
"280 340 CURVE SMOOTH",
"279 398 OFFCURVE",
"254 476 OFFCURVE",
"172 476 CURVE SMOOTH",
"136 476 OFFCURVE",
"102 460 OFFCURVE",
"77 432 CURVE SMOOTH",
"55 408 OFFCURVE",
"40 367 OFFCURVE",
"40 336 CURVE SMOOTH",
"40 284 OFFCURVE",
"57 250 OFFCURVE",
"82 250 CURVE SMOOTH",
"96 250 OFFCURVE",
"105 260 OFFCURVE",
"105 274 CURVE SMOOTH",
"105 292 OFFCURVE",
"95 304 OFFCURVE",
"79 304 CURVE SMOOTH"
);
}
);
width = 335;
}
);
unicode = 10D4;
},
{
glyphname = "vin-georgian";
lastChange = "2017-03-22 19:55:53 +0000";
layers = (
{
backgroundImage = {
crop = "{{0, 0}, {338.63999999999999, 709.91999999999996}}";
imagePath = v.jpg;
locked = "1";
transform = "{1.008, 0, 0, 1.008, -6, -249}";
};
layerId = "CCC4B6D6-30B5-49E5-84BA-D7A51BB31B72";
name = Regular;
paths = (
{
closed = 1;
nodes = (
"119 11 OFFCURVE",
"190 111 CURVE SMOOTH",
"286 245 OFFCURVE",
"297 276 OFFCURVE",
"297 333 CURVE SMOOTH",
"297 451 OFFCURVE",
"244 467 OFFCURVE",
"194 467 CURVE SMOOTH",
"145 467 OFFCURVE",
"98 430 OFFCURVE",
"78 382 CURVE SMOOTH",
"71 365 OFFCURVE",
"67 344 OFFCURVE",
"67 323 CURVE SMOOTH",
"67 301 OFFCURVE",
"72 279 OFFCURVE",
"84 262 CURVE SMOOTH",
"92 251 OFFCURVE",
"110 241 OFFCURVE",
"123 241 CURVE SMOOTH",
"138 241 OFFCURVE",
"147 254 OFFCURVE",
"147 269 CURVE SMOOTH",
"147 291 OFFCURVE",
"123 299 OFFCURVE",
"109 299 CURVE SMOOTH",
"104 299 OFFCURVE",
"99 317 OFFCURVE",
"99 336 CURVE SMOOTH",
"99 377 OFFCURVE",
"118 444 OFFCURVE",
"195 444 CURVE SMOOTH",
"246 444 OFFCURVE",
"268 400 OFFCURVE",
"268 343 CURVE SMOOTH",
"268 258 OFFCURVE",
"218 147 OFFCURVE",
"151 103 CURVE SMOOTH",
"79 55 OFFCURVE",
"45 39 OFFCURVE",
"45 12 CURVE SMOOTH",
"45 -5 OFFCURVE",
"54 -12 OFFCURVE",
"67 -12 CURVE SMOOTH",
"97 -12 OFFCURVE"
);
},
{
closed = 1;
nodes = (
"168 88 LINE",
"222 87 OFFCURVE",
"246 63 OFFCURVE",
"246 27 CURVE SMOOTH",
"246 -78 OFFCURVE",
"164 -180 OFFCURVE",
"49 -227 CURVE SMOOTH",
"43 -230 OFFCURVE",
"40 -234 OFFCURVE",
"40 -239 CURVE SMOOTH",
"40 -244 OFFCURVE",
"44 -249 OFFCURVE",
"51 -249 CURVE SMOOTH",
"54 -249 OFFCURVE",
"57 -248 OFFCURVE",
"62 -246 CURVE SMOOTH",
"143 -206 OFFCURVE",
"291 -99 OFFCURVE",
"292 27 CURVE SMOOTH",
"292 68 OFFCURVE",
"254 105 OFFCURVE",
"198 109 CURVE SMOOTH",
"184 110 LINE"
);
}
);
width = 337;
},
{
layerId = "537B1E8F-B3C8-45B3-90C6-0C31F5F160D0";
name = Light;
paths = (
{
closed = 1;
nodes = (
"93 -10 OFFCURVE",
"123 11 OFFCURVE",
"196 116 CURVE SMOOTH",
"293 255 OFFCURVE",
"299 290 OFFCURVE",
"299 343 CURVE SMOOTH",
"299 437 OFFCURVE",
"270 476 OFFCURVE",
"200 476 CURVE SMOOTH",
"154 476 OFFCURVE",
"107 442 OFFCURVE",
"86 391 CURVE",
"80 375 OFFCURVE",
"76 353 OFFCURVE",
"76 333 CURVE SMOOTH",
"76 309 OFFCURVE",
"82 288 OFFCURVE",
"92 273 CURVE SMOOTH",
"98 264 OFFCURVE",
"115 255 OFFCURVE",
"126 255 CURVE SMOOTH",
"135 255 OFFCURVE",
"142 264 OFFCURVE",
"142 276 CURVE SMOOTH",
"142 290 OFFCURVE",
"129 301 OFFCURVE",
"111 301 CURVE SMOOTH",
"98 301 OFFCURVE",
"92 320 OFFCURVE",
"92 346 CURVE SMOOTH",
"92 390 OFFCURVE",
"114 467 OFFCURVE",
"201 467 CURVE SMOOTH",
"254 467 OFFCURVE",
"282 425 OFFCURVE",
"282 354 CURVE SMOOTH",
"282 258 OFFCURVE",
"229 161 OFFCURVE",
"159 97 CURVE SMOOTH",
"95 38 OFFCURVE",
"53 32 OFFCURVE",
"53 8 CURVE SMOOTH",
"53 -5 OFFCURVE",
"57 -10 OFFCURVE",
"67 -10 CURVE SMOOTH"
);
},
{
closed = 1;
nodes = (
"180 96 LINE",
"228 92 OFFCURVE",
"255 67 OFFCURVE",
"255 26 CURVE SMOOTH",
"255 -85 OFFCURVE",
"170 -195 OFFCURVE",
"44 -246 CURVE",
"45 -246 LINE",
"41 -248 OFFCURVE",
"40 -250 OFFCURVE",
"40 -252 CURVE SMOOTH",
"40 -254 OFFCURVE",
"41 -255 OFFCURVE",
"43 -255 CURVE SMOOTH",
"44 -255 OFFCURVE",
"46 -254 OFFCURVE",
"51 -253 CURVE",
"50 -253 LINE",
"134 -211 OFFCURVE",
"287 -103 OFFCURVE",
"287 26 CURVE SMOOTH",
"287 67 OFFCURVE",
"248 98 OFFCURVE",
"196 104 CURVE SMOOTH",
"186 105 LINE"
);
}
);
width = 339;
}
);
unicode = 10D5;
},
{
glyphname = "zen-georgian";
lastChange = "2017-03-22 18:27:40 +0000";
layers = (
{
backgroundImage = {
crop = "{{0, 0}, {409.19999999999999, 722.63999999999999}}";
imagePath = z.jpg;
locked = "1";
transform = "{1.033, 0, 0, 1.033, 14, -18}";
};
layerId = "CCC4B6D6-30B5-49E5-84BA-D7A51BB31B72";
name = Regular;
paths = (
{
closed = 1;
nodes = (
"369 -14 OFFCURVE",
"432 85 OFFCURVE",
"432 178 CURVE SMOOTH",
"432 279 OFFCURVE",
"341 296 OFFCURVE",
"341 363 CURVE SMOOTH",
"341 391 OFFCURVE",
"361 430 OFFCURVE",
"371 430 CURVE SMOOTH",
"383 430 OFFCURVE",
"380 418 OFFCURVE",
"399 418 CURVE SMOOTH",
"412 418 OFFCURVE",
"419 427 OFFCURVE",
"419 437 CURVE SMOOTH",
"419 448 OFFCURVE",
"411 459 OFFCURVE",
"395 459 CURVE SMOOTH",
"351 459 OFFCURVE",
"318 412 OFFCURVE",
"318 364 CURVE SMOOTH",
"318 336 OFFCURVE",
"328 315 OFFCURVE",
"328 312 CURVE",
"327 311 LINE",
"316 311 OFFCURVE",
"311 326 OFFCURVE",
"239 326 CURVE SMOOTH",
"179 326 OFFCURVE",
"166 309 OFFCURVE",
"159 306 CURVE",
"158 307 LINE",
"243 425 OFFCURVE",
"306 459 OFFCURVE",
"306 567 CURVE SMOOTH",
"306 649 OFFCURVE",
"254 720 OFFCURVE",
"164 720 CURVE SMOOTH",
"90 720 OFFCURVE",
"40 652 OFFCURVE",
"40 579 CURVE SMOOTH",
"40 504 OFFCURVE",
"95 436 OFFCURVE",
"170 435 CURVE SMOOTH",
"192 435 OFFCURVE",
"222 439 OFFCURVE",
"243 451 CURVE",
"246 450 LINE",
"133 308 LINE SMOOTH",
"125 298 OFFCURVE",
"84 257 OFFCURVE",
"84 173 CURVE SMOOTH",
"84 67 OFFCURVE",
"168 -14 OFFCURVE",
"263 -14 CURVE SMOOTH"
);
},
{
closed = 1;
nodes = (
"215 18 OFFCURVE",
"174 64 OFFCURVE",
"148 112 CURVE SMOOTH",
"129 147 OFFCURVE",
"119 181 OFFCURVE",
"119 210 CURVE SMOOTH",
"120 274 OFFCURVE",
"167 314 OFFCURVE",
"250 314 CURVE SMOOTH",
"302 314 OFFCURVE",
"340 285 OFFCURVE",
"366 254 CURVE SMOOTH",
"391 225 OFFCURVE",
"403 195 OFFCURVE",
"403 148 CURVE SMOOTH",
"403 85 OFFCURVE",
"337 18 OFFCURVE",
"267 18 CURVE"
);
},
{
closed = 1;
nodes = (
"177 449 OFFCURVE",
"165 451 OFFCURVE",
"153 455 CURVE SMOOTH",
"106 470 OFFCURVE",
"70 544 OFFCURVE",
"70 597 CURVE SMOOTH",
"70 646 OFFCURVE",
"97 690 OFFCURVE",
"150 690 CURVE SMOOTH",
"223 690 OFFCURVE",
"277 629 OFFCURVE",
"277 549 CURVE SMOOTH",
"277 485 OFFCURVE",
"238 449 OFFCURVE",
"188 449 CURVE SMOOTH"
);
}
);
width = 472;
},
{
layerId = "537B1E8F-B3C8-45B3-90C6-0C31F5F160D0";
name = Light;
paths = (
{
closed = 1;
nodes = (
"354 -17 OFFCURVE",
"427 69 OFFCURVE",
"427 174 CURVE SMOOTH",
"427 273 OFFCURVE",
"334 290 OFFCURVE",
"334 364 CURVE SMOOTH",
"334 395 OFFCURVE",
"355 441 OFFCURVE",
"373 441 CURVE SMOOTH",
"406 441 OFFCURVE",
"387 428 OFFCURVE",
"402 428 CURVE SMOOTH",
"409 428 OFFCURVE",
"414 433 OFFCURVE",
"414 441 CURVE SMOOTH",
"414 450 OFFCURVE",
"408 456 OFFCURVE",
"397 456 CURVE SMOOTH",
"359 456 OFFCURVE",
"326 414 OFFCURVE",
"326 366 CURVE SMOOTH",
"326 364 OFFCURVE",
"335 307 OFFCURVE",
"335 307 CURVE",
"334 306 LINE",
"329 306 OFFCURVE",
"303 328 OFFCURVE",
"247 328 CURVE SMOOTH",
"205 328 OFFCURVE",
"186 324 OFFCURVE",
"147 302 CURVE",
"146 303 LINE",
"234 435 OFFCURVE",
"298 471 OFFCURVE",
"298 575 CURVE SMOOTH",
"298 663 OFFCURVE",
"241 725 OFFCURVE",
"159 725 CURVE SMOOTH",
"93 725 OFFCURVE",
"40 664 OFFCURVE",
"40 587 CURVE SMOOTH",
"40 510 OFFCURVE",
"97 443 OFFCURVE",
"166 441 CURVE SMOOTH",
"202 440 OFFCURVE",
"230 444 OFFCURVE",
"252 460 CURVE",
"254 458 LINE",
"134 304 LINE SMOOTH",
"125 293 OFFCURVE",
"85 252 OFFCURVE",
"85 169 CURVE SMOOTH",
"85 67 OFFCURVE",
"165 -17 OFFCURVE",
"261 -17 CURVE SMOOTH"
);
},
{
closed = 1;
nodes = (
"217 2 OFFCURVE",
"170 38 OFFCURVE",
"136 103 CURVE SMOOTH",
"116 140 OFFCURVE",
"105 175 OFFCURVE",
"105 207 CURVE SMOOTH",
"105 278 OFFCURVE",
"161 321 OFFCURVE",
"248 321 CURVE SMOOTH",
"295 321 OFFCURVE",
"339 299 OFFCURVE",
"374 256 CURVE SMOOTH",
"402 222 OFFCURVE",
"414 191 OFFCURVE",
"414 143 CURVE SMOOTH",
"414 72 OFFCURVE",
"340 2 OFFCURVE",
"266 2 CURVE SMOOTH"
);
},
{
closed = 1;
nodes = (
"180 449 OFFCURVE",
"158 448 OFFCURVE",
"145 452 CURVE SMOOTH",
"98 466 OFFCURVE",
"54 542 OFFCURVE",
"54 606 CURVE SMOOTH",
"54 666 OFFCURVE",
"90 709 OFFCURVE",
"145 709 CURVE SMOOTH",
"224 709 OFFCURVE",
"284 643 OFFCURVE",
"284 556 CURVE SMOOTH",
"284 490 OFFCURVE",
"252 449 OFFCURVE",
"192 449 CURVE SMOOTH"
);
}
);
width = 467;
}
);
unicode = 10D6;
},
{
glyphname = "tan-georgian";
lastChange = "2017-03-22 19:52:27 +0000";
layers = (
{
backgroundImage = {
crop = "{{0, 0}, {607.67999999999995, 478.07999999999998}}";
imagePath = t.jpg;
locked = "1";
transform = "{1.036, 0, 0, 1.036, 25, -12}";
};
layerId = "CCC4B6D6-30B5-49E5-84BA-D7A51BB31B72";
name = Regular;
paths = (
{
closed = 1;
nodes = (
"354 392 LINE",
"352 392 LINE",
"330 436 OFFCURVE",
"280 466 OFFCURVE",
"232 466 CURVE SMOOTH",
"117 466 OFFCURVE",
"40 369 OFFCURVE",
"40 241 CURVE SMOOTH",
"40 119 OFFCURVE",
"103 -9 OFFCURVE",
"198 -9 CURVE SMOOTH",
"316 -9 OFFCURVE",
"404 116 OFFCURVE",
"404 238 CURVE SMOOTH",
"404 284 OFFCURVE",
"391 336 OFFCURVE",
"364 374 CURVE",
"364 375 LINE",
"367 378 LINE"
);
},
{
closed = 1;
nodes = (
"129 10 OFFCURVE",
"75 88 OFFCURVE",
"75 180 CURVE SMOOTH",
"75 295 OFFCURVE",
"129 437 OFFCURVE",
"232 437 CURVE SMOOTH",
"334 437 OFFCURVE",
"366 364 OFFCURVE",
"366 234 CURVE SMOOTH",
"366 138 OFFCURVE",
"304 10 OFFCURVE",
"202 10 CURVE SMOOTH"
);
},
{
closed = 1;
nodes = (
"367 378 LINE",
"407 419 OFFCURVE",
"437 437 OFFCURVE",
"467 437 CURVE SMOOTH",
"568 437 OFFCURVE",
"608 325 OFFCURVE",
"608 216 CURVE SMOOTH",
"608 120 OFFCURVE",
"572 68 OFFCURVE",
"498 10 CURVE",
"518 -9 LINE",
"610 62 OFFCURVE",
"641 157 OFFCURVE",
"642 251 CURVE SMOOTH",
"642 290 OFFCURVE",
"638 327 OFFCURVE",
"622 361 CURVE SMOOTH",
"593 422 OFFCURVE",
"542 460 OFFCURVE",
"464 460 CURVE SMOOTH",
"407 460 OFFCURVE",
"375 419 OFFCURVE",
"353 392 CURVE"
);
}
);
width = 682;
},
{
layerId = "537B1E8F-B3C8-45B3-90C6-0C31F5F160D0";
name = Light;
paths = (
{
closed = 1;
nodes = (
"343 476 OFFCURVE",
"236 476 CURVE SMOOTH",
"121 476 OFFCURVE",
"40 380 OFFCURVE",
"40 244 CURVE SMOOTH",
"40 103 OFFCURVE",
"114 -15 OFFCURVE",
"200 -15 CURVE SMOOTH",
"313 -15 OFFCURVE",
"411 104 OFFCURVE",
"411 240 CURVE SMOOTH",
"411 351 OFFCURVE"
);
},
{
closed = 1;
nodes = (
"146 -5 OFFCURVE",
"60 74 OFFCURVE",
"60 179 CURVE SMOOTH",
"60 302 OFFCURVE",
"120 460 OFFCURVE",
"236 460 CURVE SMOOTH",
"342 460 OFFCURVE",
"387 392 OFFCURVE",
"387 236 CURVE SMOOTH",
"387 133 OFFCURVE",
"318 -5 OFFCURVE",
"204 -5 CURVE SMOOTH"
);
},
{
closed = 1;
nodes = (
"362 399 LINE",
"403 440 OFFCURVE",
"435 460 OFFCURVE",
"468 460 CURVE SMOOTH",
"565 460 OFFCURVE",
"627 364 OFFCURVE",
"627 217 CURVE SMOOTH",
"627 123 OFFCURVE",
"597 65 OFFCURVE",
"513 -3 CURVE",
"524 -12 LINE",
"604 52 OFFCURVE",
"646 141 OFFCURVE",
"646 254 CURVE SMOOTH",
"646 303 OFFCURVE",
"640 339 OFFCURVE",
"626 368 CURVE SMOOTH",
"595 435 OFFCURVE",
"540 470 OFFCURVE",
"465 470 CURVE SMOOTH",
"412 470 OFFCURVE",
"378 436 OFFCURVE",
"355 408 CURVE"
);
}
);
width = 686;
}
);
unicode = 10D7;
},
{
glyphname = "in-georgian";
lastChange = "2017-03-22 20:47:39 +0000";
layers = (
{
backgroundImage = {
crop = "{{0, 0}, {370.80000000000001, 709.91999999999996}}";
imagePath = ini.jpg;
locked = "1";
transform = "{1.088, 0, 0, 1.062, 28, -26}";
};
layerId = "CCC4B6D6-30B5-49E5-84BA-D7A51BB31B72";
name = Regular;
paths = (
{
closed = 1;
nodes = (
"324 -9 LINE",
"333 -1 OFFCURVE",
"426 71 OFFCURVE",
"426 244 CURVE SMOOTH",
"426 377 OFFCURVE",
"365 470 OFFCURVE",
"240 470 CURVE SMOOTH",
"122 470 OFFCURVE",
"40 374 OFFCURVE",
"40 230 CURVE SMOOTH",
"40 131 OFFCURVE",
"88 -1 OFFCURVE",
"154 -1 CURVE SMOOTH",
"174 -1 OFFCURVE",
"186 17 OFFCURVE",
"186 33 CURVE SMOOTH",
"186 47 OFFCURVE",
"176 61 OFFCURVE",
"156 61 CURVE SMOOTH",
"104 61 OFFCURVE",
"60 169 OFFCURVE",
"60 226 CURVE SMOOTH",
"60 348 OFFCURVE",
"106 444 OFFCURVE",
"216 444 CURVE SMOOTH",
"314 444 OFFCURVE",
"378 350 OFFCURVE",
"378 248 CURVE SMOOTH",
"378 113 OFFCURVE",
"362 60 OFFCURVE",
"314 6 CURVE"
);
}
);
width = 466;
},
{
layerId = "537B1E8F-B3C8-45B3-90C6-0C31F5F160D0";
name = Light;
paths = (
{
closed = 1;
nodes = (
"335 -17 LINE",
"360 6 OFFCURVE",
"433 83 OFFCURVE",
"433 240 CURVE SMOOTH",
"433 388 OFFCURVE",
"364 473 OFFCURVE",
"244 473 CURVE SMOOTH",
"123 473 OFFCURVE",
"40 373 OFFCURVE",
"40 225 CURVE SMOOTH",
"40 107 OFFCURVE",
"96 -13 OFFCURVE",
"153 -13 CURVE SMOOTH",
"166 -13 OFFCURVE",
"178 0 OFFCURVE",
"178 16 CURVE SMOOTH",
"178 29 OFFCURVE",
"169 38 OFFCURVE",
"155 38 CURVE SMOOTH",
"93 38 OFFCURVE",
"50 159 OFFCURVE",
"50 221 CURVE SMOOTH",
"50 315 OFFCURVE",
"108 460 OFFCURVE",
"219 460 CURVE SMOOTH",
"321 460 OFFCURVE",
"399 366 OFFCURVE",
"399 244 CURVE SMOOTH",
"399 106 OFFCURVE",
"384 47 OFFCURVE",
"333 -14 CURVE"
);
}
);
width = 473;
}
);
unicode = 10D8;
},
{
glyphname = "kan-georgian";
lastChange = "2017-03-22 19:55:04 +0000";
layers = (
{
annotations = (
{
position = "{735.979, 326.82}";
type = Minus;
},
{
position = "{692.133, 707.233}";
type = Minus;
}
);
backgroundImage = {
crop = "{{0, 0}, {313.92000000000002, 709.91999999999996}}";
imagePath = k.jpg;
locked = "1";
transform = "{1.009, 0, 0, 1.009, 1, -249}";
};
layerId = "CCC4B6D6-30B5-49E5-84BA-D7A51BB31B72";
name = Regular;
paths = (
{
closed = 1;
nodes = (
"150 93 LINE",
"154 91 LINE",
"172 100 OFFCURVE",
"191 105 OFFCURVE",
"208 105 CURVE SMOOTH",
"251 104 OFFCURVE",
"285 77 OFFCURVE",
"285 27 CURVE SMOOTH",
"285 -81 OFFCURVE",
"147 -202 OFFCURVE",
"62 -244 CURVE SMOOTH",
"57 -246 OFFCURVE",
"54 -247 OFFCURVE",
"51 -247 CURVE SMOOTH",
"44 -247 OFFCURVE",
"40 -242 OFFCURVE",
"40 -237 CURVE SMOOTH",
"40 -232 OFFCURVE",
"43 -228 OFFCURVE",
"49 -225 CURVE SMOOTH",
"163 -159 OFFCURVE",
"241 -103 OFFCURVE",
"241 27 CURVE SMOOTH",
"241 63 OFFCURVE",
"215 82 OFFCURVE",
"185 82 CURVE SMOOTH",
"167 82 OFFCURVE",
"148 75 OFFCURVE",
"132 62 CURVE"
);
},
{
closed = 1;
nodes = (
"111 33 OFFCURVE",
"102 4 OFFCURVE",
"75 4 CURVE SMOOTH",
"68 4 OFFCURVE",
"55 12 OFFCURVE",
"55 28 CURVE SMOOTH",
"55 52 OFFCURVE",
"86 51 OFFCURVE",
"126 90 CURVE SMOOTH",
"163 126 OFFCURVE",
"249 272 OFFCURVE",
"249 363 CURVE SMOOTH",
"249 411 OFFCURVE",
"210 423 OFFCURVE",
"183 423 CURVE SMOOTH",
"158 423 OFFCURVE",
"144 420 OFFCURVE",
"90 393 CURVE",
"83 402 LINE",
"125 441 OFFCURVE",
"157 469 OFFCURVE",
"207 469 CURVE SMOOTH",
"261 469 OFFCURVE",
"282 430 OFFCURVE",
"282 386 CURVE SMOOTH",
"282 298 OFFCURVE",
"176 126 OFFCURVE",
"156 96 CURVE"
);
}
);
width = 325;
},
{
layerId = "537B1E8F-B3C8-45B3-90C6-0C31F5F160D0";
name = Light;
paths = (
{
closed = 1;
nodes = (
"111 6 OFFCURVE",
"121 32 OFFCURVE",
"167 99 CURVE SMOOTH",
"188 129 OFFCURVE",
"298 308 OFFCURVE",
"298 398 CURVE SMOOTH",
"298 449 OFFCURVE",
"273 478 OFFCURVE",
"228 478 CURVE SMOOTH",
"180 478 OFFCURVE",
"150 453 OFFCURVE",
"108 414 CURVE",
"111 411 LINE",
"159 435 OFFCURVE",
"173 444 OFFCURVE",
"202 444 CURVE SMOOTH",
"250 444 OFFCURVE",
"280 417 OFFCURVE",
"280 374 CURVE SMOOTH",
"280 305 OFFCURVE",
"196 147 OFFCURVE",
"156 108 CURVE SMOOTH",
"110 63 OFFCURVE",
"77 44 OFFCURVE",
"77 23 CURVE SMOOTH",
"77 15 OFFCURVE",
"83 6 OFFCURVE",
"89 6 CURVE SMOOTH"
);
},
{
closed = 1;
nodes = (
"44 -257 OFFCURVE",
"46 -256 OFFCURVE",
"52 -255 CURVE",
"50 -255 LINE",
"138 -211 OFFCURVE",
"280 -88 OFFCURVE",
"280 22 CURVE SMOOTH",
"280 67 OFFCURVE",
"252 97 OFFCURVE",
"208 97 CURVE SMOOTH",
"190 97 OFFCURVE",
"163 94 OFFCURVE",
"144 83 CURVE",
"138 73 LINE",
"193 95 OFFCURVE",
"251 75 OFFCURVE",
"251 22 CURVE SMOOTH",
"251 -117 OFFCURVE",
"150 -179 OFFCURVE",
"45 -248 CURVE",
"41 -250 OFFCURVE",
"40 -252 OFFCURVE",
"40 -254 CURVE SMOOTH",
"40 -256 OFFCURVE",
"41 -257 OFFCURVE",
"43 -257 CURVE SMOOTH"
);
}
);
width = 338;
}
);
unicode = 10D9;
},
{
glyphname = "las-georgian";
lastChange = "2017-03-22 19:55:15 +0000";
layers = (
{
backgroundImage = {
crop = "{{0, 0}, {709.91999999999996, 709.91999999999996}}";
imagePath = l.jpg;
locked = "1";
transform = "{1.008, 0, 0, 1.008, 42, -243}";
};
layerId = "CCC4B6D6-30B5-49E5-84BA-D7A51BB31B72";
name = Regular;
paths = (
{
closed = 1;
nodes = (
"526 387 LINE",
"528 387 LINE",
"558 423 OFFCURVE",
"606 441 OFFCURVE",
"641 441 CURVE SMOOTH",
"698 441 OFFCURVE",
"752 388 OFFCURVE",
"752 305 CURVE SMOOTH",
"752 221 OFFCURVE",
"730 75 OFFCURVE",
"599 -18 CURVE",
"586 -12 LINE",
"677 73 OFFCURVE",
"713 153 OFFCURVE",
"713 242 CURVE SMOOTH",
"713 317 OFFCURVE",
"671 402 OFFCURVE",
"605 402 CURVE SMOOTH",
"582 402 OFFCURVE",
"548 377 OFFCURVE",
"536 364 CURVE"
);
},
{
closed = 1;
nodes = (
"329 401 OFFCURVE",
"329 315 CURVE SMOOTH",
"329 281 OFFCURVE",
"326 241 OFFCURVE",
"292 241 CURVE SMOOTH",
"280 241 OFFCURVE",
"263 253 OFFCURVE",
"263 274 CURVE SMOOTH",
"263 289 OFFCURVE",
"267 283 OFFCURVE",
"267 343 CURVE SMOOTH",
"267 382 OFFCURVE",
"257 446 OFFCURVE",
"185 446 CURVE SMOOTH",
"106 446 OFFCURVE",
"71 381 OFFCURVE",
"71 308 CURVE SMOOTH",
"71 168 OFFCURVE",
"206 -15 OFFCURVE",
"343 -94 CURVE SMOOTH",
"443 -152 OFFCURVE",
"480 -186 OFFCURVE",
"480 -208 CURVE SMOOTH",
"480 -234 OFFCURVE",
"466 -241 OFFCURVE",
"451 -241 CURVE SMOOTH",
"385 -241 OFFCURVE",
"326 -123 OFFCURVE",
"267 -83 CURVE SMOOTH",
"201 -39 OFFCURVE",
"65 -10 OFFCURVE",
"48 -2 CURVE SMOOTH",
"41 1 OFFCURVE",
"40 5 OFFCURVE",
"40 8 CURVE SMOOTH",
"40 13 OFFCURVE",
"44 16 OFFCURVE",
"50 16 CURVE SMOOTH",
"55 16 OFFCURVE",
"216 -39 OFFCURVE",
"240 -50 CURVE",
"242 -48 LINE",
"149 27 OFFCURVE",
"50 200 OFFCURVE",
"50 306 CURVE SMOOTH",
"50 396 OFFCURVE",
"111 467 OFFCURVE",
"196 467 CURVE SMOOTH",
"278 467 OFFCURVE"
);
},
{
closed = 1;
nodes = (
"548 401 OFFCURVE",
"548 289 CURVE SMOOTH",
"548 260 OFFCURVE",
"541 228 OFFCURVE",
"513 228 CURVE SMOOTH",
"489 228 OFFCURVE",
"478 246 OFFCURVE",
"478 267 CURVE SMOOTH",
"478 298 OFFCURVE",
"497 337 OFFCURVE",
"497 353 CURVE SMOOTH",
"497 387 OFFCURVE",
"452 435 OFFCURVE",
"404 435 CURVE SMOOTH",
"355 435 OFFCURVE",
"325 403 OFFCURVE",
"314 384 CURVE",
"309 399 LINE",
"311 399 LINE",
"333 426 OFFCURVE",
"356 458 OFFCURVE",
"417 458 CURVE SMOOTH",
"483 458 OFFCURVE"
);
}
);
width = 792;
},
{
layerId = "537B1E8F-B3C8-45B3-90C6-0C31F5F160D0";
name = Light;
paths = (
{
closed = 1;
nodes = (
"37 -1 OFFCURVE",
"44 -5 CURVE SMOOTH",
"60 -14 OFFCURVE",
"200 -50 OFFCURVE",
"279 -90 CURVE SMOOTH",
"345 -124 OFFCURVE",
"404 -256 OFFCURVE",
"468 -256 CURVE SMOOTH",
"483 -256 OFFCURVE",
"491 -248 OFFCURVE",
"491 -229 CURVE SMOOTH",
"491 -207 OFFCURVE",
"445 -170 OFFCURVE",
"350 -115 CURVE SMOOTH",
"194 -24 OFFCURVE",
"72 171 OFFCURVE",
"72 314 CURVE SMOOTH",
"72 407 OFFCURVE",
"116 457 OFFCURVE",
"195 457 CURVE SMOOTH",
"256 457 OFFCURVE",
"283 427 OFFCURVE",
"283 353 CURVE SMOOTH",
"283 306 OFFCURVE",
"279 281 OFFCURVE",
"279 280 CURVE SMOOTH",
"279 265 OFFCURVE",
"289 252 OFFCURVE",
"301 252 CURVE SMOOTH",
"329 252 OFFCURVE",
"331 287 OFFCURVE",
"331 323 CURVE",
"331 350 OFFCURVE",
"326 369 OFFCURVE",
"317 393 CURVE",
"327 412 OFFCURVE",
"362 454 OFFCURVE",
"419 454 CURVE SMOOTH",
"469 454 OFFCURVE",
"525 407 OFFCURVE",
"525 363 CURVE SMOOTH",
"525 345 OFFCURVE",
"505 304 OFFCURVE",
"505 272 CURVE SMOOTH",
"505 251 OFFCURVE",
"516 239 OFFCURVE",
"534 239 CURVE SMOOTH",
"552 239 OFFCURVE",
"562 258 OFFCURVE",
"562 296 CURVE SMOOTH",
"562 325 OFFCURVE",
"558 353 OFFCURVE",
"549 376 CURVE",
"557 388 OFFCURVE",
"601 422 OFFCURVE",
"631 422 CURVE SMOOTH",
"698 422 OFFCURVE",
"753 341 OFFCURVE",
"753 246 CURVE SMOOTH",
"753 149 OFFCURVE",
"713 66 OFFCURVE",
"625 -20 CURVE",
"630 -20 LINE",
"762 76 OFFCURVE",
"777 225 OFFCURVE",
"777 313 CURVE SMOOTH",
"777 390 OFFCURVE",
"729 449 OFFCURVE",
"669 449 CURVE SMOOTH",
"628 449 OFFCURVE",
"581 424 OFFCURVE",
"550 392 CURVE",
"548 392 LINE",
"520 435 OFFCURVE",
"479 467 OFFCURVE",
"433 467 CURVE SMOOTH",
"376 467 OFFCURVE",
"347 451 OFFCURVE",
"311 408 CURVE",
"289 452 OFFCURVE",
"249 476 OFFCURVE",
"199 476 CURVE SMOOTH",
"116 476 OFFCURVE",
"54 406 OFFCURVE",
"54 314 CURVE SMOOTH",
"54 213 OFFCURVE",
"154 26 OFFCURVE",
"254 -65 CURVE",
"252 -66 LINE",
"225 -59 OFFCURVE",
"52 6 OFFCURVE",
"49 7 CURVE SMOOTH",
"39 10 OFFCURVE"
);
}
);
width = 817;
}
);
unicode = 10DA;
},
{
glyphname = "man-georgian";
lastChange = "2017-03-22 20:26:23 +0000";
layers = (
{
backgroundImage = {
crop = "{{0, 0}, {451.19999999999999, 709.91999999999996}}";
imagePath = mani.jpg;
locked = "1";
transform = "{1.068, 0, 0, 1.034, -15, -12}";
};
guideLines = (
{
angle = 90;
position = "{235, 231}";
}
);
layerId = "CCC4B6D6-30B5-49E5-84BA-D7A51BB31B72";
name = Regular;
paths = (
{
closed = 1;
nodes = (
"364 -8 OFFCURVE",
"418 95 OFFCURVE",
"418 232 CURVE",
"418 501 LINE",
"418 613 OFFCURVE",
"378 718 OFFCURVE",
"238 718 CURVE SMOOTH",
"145 718 OFFCURVE",
"72 667 OFFCURVE",
"72 582 CURVE SMOOTH",
"72 533 OFFCURVE",
"107 504 OFFCURVE",
"138 504 CURVE SMOOTH",
"157 504 OFFCURVE",
"168 509 OFFCURVE",
"168 524 CURVE SMOOTH",
"168 585 OFFCURVE",
"112 539 OFFCURVE",
"112 595 CURVE SMOOTH",
"112 651 OFFCURVE",
"176 702 OFFCURVE",
"245 702 CURVE SMOOTH",
"355 702 OFFCURVE",
"393 613 OFFCURVE",
"395 501 CURVE SMOOTH",
"396 453 OFFCURVE",
"396 404 OFFCURVE",
"396 356 CURVE",
"394 356 LINE",
"371 411 OFFCURVE",
"324 468 OFFCURVE",
"235 468 CURVE SMOOTH",
"112 468 OFFCURVE",
"40 363 OFFCURVE",
"40 221 CURVE SMOOTH",
"40 104 OFFCURVE",
"120 -8 OFFCURVE",
"235 -8 CURVE SMOOTH"
);
},
{
closed = 1;
nodes = (
"120 9 OFFCURVE",
"81 147 OFFCURVE",
"81 221 CURVE SMOOTH",
"81 358 OFFCURVE",
"148 447 OFFCURVE",
"235 447 CURVE SMOOTH",
"337 447 OFFCURVE",
"394 368 OFFCURVE",
"394 234 CURVE SMOOTH",
"394 129 OFFCURVE",
"328 9 OFFCURVE",
"235 9 CURVE SMOOTH"
);
}
);
width = 483;
},
{
associatedMasterId = "CCC4B6D6-30B5-49E5-84BA-D7A51BB31B72";
backgroundImage = {
crop = "{{0, 0}, {451.19999999999999, 709.91999999999996}}";
imagePath = mani.jpg;
locked = "1";
transform = "{1.068, 0, 0, 1.034, 0, -12}";
};
guideLines = (
{
angle = 90;
position = "{250, 231}";
}
);
layerId = "B03C922A-E3AA-4C58-9B68-E9E79CA14E3D";
name = "Sep 19 16, 20:19";
paths = (
{
closed = 1;
nodes = (
"338 -8 OFFCURVE",
"390 44 OFFCURVE",
"414 121 CURVE SMOOTH",
"430 171 OFFCURVE",
"433 216 OFFCURVE",
"433 302 CURVE SMOOTH",
"433 352 OFFCURVE",
"432 415 OFFCURVE",
"432 501 CURVE SMOOTH",
"432 613 OFFCURVE",
"393 719 OFFCURVE",
"253 719 CURVE SMOOTH",
"160 719 OFFCURVE",
"87 667 OFFCURVE",
"87 582 CURVE SMOOTH",
"87 533 OFFCURVE",
"122 504 OFFCURVE",
"153 504 CURVE SMOOTH",
"169 504 OFFCURVE",
"183 505 OFFCURVE",
"183 538 CURVE",
"183 563 OFFCURVE",
"152 552 OFFCURVE",
"143 558 CURVE SMOOTH",
"127 570 OFFCURVE",
"127 581 OFFCURVE",
"127 595 CURVE SMOOTH",
"127 651 OFFCURVE",
"190 703 OFFCURVE",
"260 703 CURVE SMOOTH",
"370 703 OFFCURVE",
"411 613 OFFCURVE",
"411 501 CURVE SMOOTH",
"411 461 OFFCURVE",
"410 378 OFFCURVE",
"410 356 CURVE",
"407 356 LINE",
"381 411 OFFCURVE",
"339 468 OFFCURVE",
"250 468 CURVE SMOOTH",
"117 468 OFFCURVE",
"55 363 OFFCURVE",
"55 221 CURVE SMOOTH",
"55 104 OFFCURVE",
"135 -8 OFFCURVE",
"250 -8 CURVE SMOOTH"
);
},
{
closed = 1;
nodes = (
"135 9 OFFCURVE",
"96 147 OFFCURVE",
"96 221 CURVE SMOOTH",
"96 358 OFFCURVE",
"163 447 OFFCURVE",
"250 447 CURVE SMOOTH",
"352 447 OFFCURVE",
"409 368 OFFCURVE",
"409 234 CURVE SMOOTH",
"409 139 OFFCURVE",
"352 9 OFFCURVE",
"250 9 CURVE SMOOTH"
);
}
);
width = 600;
},
{
layerId = "537B1E8F-B3C8-45B3-90C6-0C31F5F160D0";
name = Light;
paths = (
{
closed = 1;
nodes = (
"337 -15 OFFCURVE",
"418 72 OFFCURVE",
"418 228 CURVE SMOOTH",
"418 509 LINE SMOOTH",
"418 654 OFFCURVE",
"356 728 OFFCURVE",
"238 728 CURVE SMOOTH",
"140 728 OFFCURVE",
"73 674 OFFCURVE",
"73 593 CURVE SMOOTH",
"73 553 OFFCURVE",
"101 519 OFFCURVE",
"134 519 CURVE SMOOTH",
"152 519 OFFCURVE",
"157 524 OFFCURVE",
"157 533 CURVE SMOOTH",
"157 597 OFFCURVE",
"98 517 OFFCURVE",
"98 607 CURVE SMOOTH",
"98 670 OFFCURVE",
"168 715 OFFCURVE",
"246 715 CURVE SMOOTH",
"351 715 OFFCURVE",
"404 651 OFFCURVE",
"407 509 CURVE SMOOTH",
"409 403 OFFCURVE",
"409 419 OFFCURVE",
"409 350 CURVE",
"406 351 LINE",
"368 436 OFFCURVE",
"308 467 OFFCURVE",
"235 467 CURVE SMOOTH",
"117 467 OFFCURVE",
"40 368 OFFCURVE",
"40 217 CURVE SMOOTH",
"40 90 OFFCURVE",
"128 -15 OFFCURVE",
"235 -15 CURVE SMOOTH"
);
},
{
closed = 1;
nodes = (
"109 -6 OFFCURVE",
"66 139 OFFCURVE",
"66 217 CURVE SMOOTH",
"66 359 OFFCURVE",
"136 454 OFFCURVE",
"235 454 CURVE SMOOTH",
"346 454 OFFCURVE",
"409 375 OFFCURVE",
"409 230 CURVE SMOOTH",
"409 103 OFFCURVE",
"336 -6 OFFCURVE",
"235 -6 CURVE SMOOTH"
);
}
);
width = 473;
}
);
unicode = 10DB;
},
{
glyphname = "nar-georgian";
lastChange = "2017-03-21 22:09:05 +0000";
layers = (
{
backgroundImage = {
crop = "{{0, 0}, {374.63999999999999, 709.91999999999996}}";
imagePath = n.jpg;
locked = "1";
transform = "{1.032, 0, 0, 1.032, 48, -11}";
};
layerId = "CCC4B6D6-30B5-49E5-84BA-D7A51BB31B72";
name = Regular;
paths = (
{
closed = 1;
nodes = (
"342 -12 OFFCURVE",
"425 133 OFFCURVE",
"425 256 CURVE SMOOTH",
"425 385 OFFCURVE",
"361 492 OFFCURVE",
"233 492 CURVE SMOOTH",
"160 492 OFFCURVE",
"104 428 OFFCURVE",
"78 366 CURVE",
"76 366 LINE",
"76 570 LINE",
"76 633 OFFCURVE",
"101 684 OFFCURVE",
"171 684 CURVE SMOOTH",
"220 684 OFFCURVE",
"255 657 OFFCURVE",
"320 657 CURVE SMOOTH",
"363 657 OFFCURVE",
"403 682 OFFCURVE",
"422 710 CURVE",
"409 721 LINE",
"398 710 OFFCURVE",
"375 697 OFFCURVE",
"334 697 CURVE SMOOTH",
"265 697 OFFCURVE",
"246 715 OFFCURVE",
"175 715 CURVE SMOOTH",
"77 715 OFFCURVE",
"55 638 OFFCURVE",
"55 581 CURVE",
"55 257 LINE",
"55 92 OFFCURVE",
"107 -12 OFFCURVE",
"227 -12 CURVE SMOOTH"
);
},
{
closed = 1;
nodes = (
"128 15 OFFCURVE",
"86 81 OFFCURVE",
"86 196 CURVE SMOOTH",
"86 339 OFFCURVE",
"138 470 OFFCURVE",
"250 470 CURVE SMOOTH",
"344 470 OFFCURVE",
"382 389 OFFCURVE",
"382 279 CURVE SMOOTH",
"382 157 OFFCURVE",
"325 15 OFFCURVE",
"227 15 CURVE SMOOTH"
);
}
);
width = 465;
},
{
associatedMasterId = "CCC4B6D6-30B5-49E5-84BA-D7A51BB31B72";
backgroundImage = {
crop = "{{0, 0}, {374.63999999999999, 709.91999999999996}}";
imagePath = n.jpg;
locked = "1";
transform = "{1.032, 0, 0, 1.032, 16, -11.452}";
};
layerId = "BB7B9993-6417-46F8-A5E6-702514F99EB1";
name = "Sep 19 16, 20:21";
paths = (
{
closed = 1;
nodes = (
"310 -8 OFFCURVE",
"393 133 OFFCURVE",
"393 256 CURVE SMOOTH",
"393 385 OFFCURVE",
"323 492 OFFCURVE",
"195 492 CURVE SMOOTH",
"106 492 OFFCURVE",
"75 430 OFFCURVE",
"49 375 CURVE",
"44 376 LINE",
"44 377 OFFCURVE",
"52 534 OFFCURVE",
"53 548 CURVE SMOOTH",
"56 588 OFFCURVE",
"55 611 OFFCURVE",
"71 644 CURVE SMOOTH",
"83 669 OFFCURVE",
"109 682 OFFCURVE",
"139 682 CURVE SMOOTH",
"188 682 OFFCURVE",
"223 655 OFFCURVE",
"288 655 CURVE SMOOTH",
"314 655 OFFCURVE",
"340 661 OFFCURVE",
"359 671 CURVE SMOOTH",
"377 681 OFFCURVE",
"390 698 OFFCURVE",
"390 710 CURVE SMOOTH",
"390 717 OFFCURVE",
"385 722 OFFCURVE",
"374 722 CURVE SMOOTH",
"360 722 OFFCURVE",
"359 697 OFFCURVE",
"302 697 CURVE SMOOTH",
"262 697 OFFCURVE",
"227 706 OFFCURVE",
"202 710 CURVE SMOOTH",
"183 713 OFFCURVE",
"160 715 OFFCURVE",
"143 715 CURVE SMOOTH",
"45 715 OFFCURVE",
"43 629 OFFCURVE",
"35 489 CURVE SMOOTH",
"31 422 OFFCURVE",
"22 277 OFFCURVE",
"22 257 CURVE SMOOTH",
"22 92 OFFCURVE",
"75 -8 OFFCURVE",
"195 -8 CURVE SMOOTH"
);
},
{
closed = 1;
nodes = (
"96 19 OFFCURVE",
"54 81 OFFCURVE",
"54 196 CURVE SMOOTH",
"54 339 OFFCURVE",
"106 470 OFFCURVE",
"218 470 CURVE SMOOTH",
"312 470 OFFCURVE",
"350 389 OFFCURVE",
"350 279 CURVE SMOOTH",
"350 217 OFFCURVE",
"338 153 OFFCURVE",
"316 112 CURVE SMOOTH",
"289 61 OFFCURVE",
"244 19 OFFCURVE",
"195 19 CURVE SMOOTH"
);
}
);
width = 600;
},
{
associatedMasterId = "CCC4B6D6-30B5-49E5-84BA-D7A51BB31B72";
backgroundImage = {
crop = "{{0, 0}, {374.63999999999999, 709.91999999999996}}";
imagePath = n.jpg;
locked = "1";
transform = "{1.032, 0, 0, 1.032, 16, -11.452}";
};
layerId = "06D9B31A-2645-4A39-B9FC-7930C0CB8BFB";
name = "Sep 19 16, 20:26";
paths = (
{
closed = 1;
nodes = (
"26 104 OFFCURVE",
"106 -8 OFFCURVE",
"221 -8 CURVE SMOOTH",
"364 -8 OFFCURVE",
"404 121 OFFCURVE",
"404 242 CURVE SMOOTH",
"404 376 OFFCURVE",
"346 468 OFFCURVE",
"221 468 CURVE SMOOTH",
"135 468 OFFCURVE",
"72 411 OFFCURVE",
"46 325 CURVE",
"44 325 LINE",
"44 588 LINE SMOOTH",
"44 651 OFFCURVE",
"75 686 OFFCURVE",
"139 686 CURVE SMOOTH",
"188 686 OFFCURVE",
"223 659 OFFCURVE",
"288 659 CURVE SMOOTH",
"334 659 OFFCURVE",
"371 673 OFFCURVE",
"387 713 CURVE",
"377 719 LINE",
"369 710 OFFCURVE",
"359 697 OFFCURVE",
"302 697 CURVE SMOOTH",
"233 697 OFFCURVE",
"214 715 OFFCURVE",
"143 715 CURVE SMOOTH",
"45 715 OFFCURVE",
"26 657 OFFCURVE",
"26 589 CURVE SMOOTH",
"26 221 LINE SMOOTH"
);
},
{
closed = 1;
nodes = (
"67 358 OFFCURVE",
"134 447 OFFCURVE",
"221 447 CURVE SMOOTH",
"323 447 OFFCURVE",
"380 368 OFFCURVE",
"380 244 CURVE SMOOTH",
"380 130 OFFCURVE",
"313 9 OFFCURVE",
"221 9 CURVE SMOOTH",
"106 9 OFFCURVE",
"67 147 OFFCURVE",
"67 221 CURVE SMOOTH"
);
}
);
width = 600;
},
{
layerId = "537B1E8F-B3C8-45B3-90C6-0C31F5F160D0";
name = Light;
paths = (
{
closed = 1;
nodes = (
"340 -14 OFFCURVE",
"423 132 OFFCURVE",
"423 258 CURVE SMOOTH",
"423 402 OFFCURVE",
"348 496 OFFCURVE",
"232 496 CURVE SMOOTH",
"170 496 OFFCURVE",
"108 444 OFFCURVE",
"70 365 CURVE",
"65 365 LINE",
"65 584 LINE SMOOTH",
"65 665 OFFCURVE",
"99 710 OFFCURVE",
"167 710 CURVE SMOOTH",
"220 710 OFFCURVE",
"257 682 OFFCURVE",
"322 682 CURVE SMOOTH",
"359 682 OFFCURVE",
"396 701 OFFCURVE",
"418 729 CURVE",
"415 731 LINE",
"397 717 OFFCURVE",
"369 709 OFFCURVE",
"337 709 CURVE SMOOTH",
"262 709 OFFCURVE",
"242 728 OFFCURVE",
"171 728 CURVE SMOOTH",
"97 728 OFFCURVE",
"55 680 OFFCURVE",
"55 596 CURVE SMOOTH",
"55 259 LINE SMOOTH",
"55 80 OFFCURVE",
"113 -14 OFFCURVE",
"226 -14 CURVE SMOOTH"
);
},
{
closed = 1;
nodes = (
"140 3 OFFCURVE",
"73 65 OFFCURVE",
"73 195 CURVE SMOOTH",
"73 372 OFFCURVE",
"140 479 OFFCURVE",
"250 479 CURVE SMOOTH",
"343 479 OFFCURVE",
"395 414 OFFCURVE",
"395 282 CURVE SMOOTH",
"395 154 OFFCURVE",
"334 3 OFFCURVE",
"226 3 CURVE SMOOTH"
);
}
);
width = 463;
}
);
unicode = 10DC;
},
{
glyphname = "on-georgian";
lastChange = "2017-03-22 19:53:05 +0000";
layers = (
{
backgroundImage = {
crop = "{{0, 0}, {524.88, 492.47999999999996}}";
imagePath = o.jpg;
locked = "1";
transform = "{1.035, 0, 0, 1.037, 9, -12}";
};
layerId = "CCC4B6D6-30B5-49E5-84BA-D7A51BB31B72";
name = Regular;
paths = (
{
closed = 1;
nodes = (
"328 376 OFFCURVE",
"288 466 OFFCURVE",
"193 466 CURVE SMOOTH",
"91 466 OFFCURVE",
"40 353 OFFCURVE",
"40 236 CURVE SMOOTH",
"40 157 OFFCURVE",
"76 -2 OFFCURVE",
"171 -2 CURVE SMOOTH",
"196 -2 OFFCURVE",
"209 14 OFFCURVE",
"209 31 CURVE SMOOTH",
"209 43 OFFCURVE",
"204 59 OFFCURVE",
"189 59 CURVE SMOOTH",
"180 59 OFFCURVE",
"167 49 OFFCURVE",
"159 49 CURVE SMOOTH",
"140 49 OFFCURVE",
"68 131 OFFCURVE",
"68 236 CURVE SMOOTH",
"68 342 OFFCURVE",
"115 442 OFFCURVE",
"187 442 CURVE SMOOTH",
"263 442 OFFCURVE",
"269 377 OFFCURVE",
"269 291 CURVE SMOOTH",
"269 248 OFFCURVE",
"283 227 OFFCURVE",
"297 227 CURVE SMOOTH",
"312 227 OFFCURVE",
"328 251 OFFCURVE",
"328 297 CURVE SMOOTH"
);
},
{
closed = 1;
nodes = (
"467 52 OFFCURVE",
"449 60 OFFCURVE",
"432 60 CURVE SMOOTH",
"400 60 OFFCURVE",
"370 39 OFFCURVE",
"370 13 CURVE SMOOTH",
"370 2 OFFCURVE",
"381 -11 OFFCURVE",
"392 -11 CURVE SMOOTH",
"426 -11 OFFCURVE",
"439 18 OFFCURVE",
"446 30 CURVE",
"470 30 OFFCURVE",
"479 7 OFFCURVE",
"490 7 CURVE SMOOTH",
"497 7 OFFCURVE",
"501 12 OFFCURVE",
"501 18 CURVE SMOOTH",
"501 25 OFFCURVE",
"496 35 OFFCURVE",
"484 42 CURVE SMOOTH"
);
},
{
closed = 1;
nodes = (
"456 50 LINE",
"498 130 OFFCURVE",
"521 217 OFFCURVE",
"521 295 CURVE SMOOTH",
"521 392 OFFCURVE",
"484 467 OFFCURVE",
"400 467 CURVE SMOOTH",
"340 467 OFFCURVE",
"304 421 OFFCURVE",
"298 410 CURVE",
"296 410 LINE",
"308 390 LINE",
"308 391 LINE",
"319 402 OFFCURVE",
"345 426 OFFCURVE",
"374 426 CURVE SMOOTH",
"450 426 OFFCURVE",
"489 343 OFFCURVE",
"489 250 CURVE SMOOTH",
"489 180 OFFCURVE",
"473 111 OFFCURVE",
"432 60 CURVE"
);
}
);
width = 561;
},
{
layerId = "537B1E8F-B3C8-45B3-90C6-0C31F5F160D0";
name = Light;
paths = (
{
closed = 1;
nodes = (
"40 156 OFFCURVE",
"77 -5 OFFCURVE",
"170 -5 CURVE SMOOTH",
"189 -5 OFFCURVE",
"202 6 OFFCURVE",
"202 22 CURVE SMOOTH",
"202 36 OFFCURVE",
"197 44 OFFCURVE",
"189 44 CURVE SMOOTH",
"183 44 OFFCURVE",
"168 34 OFFCURVE",
"157 34 CURVE SMOOTH",
"133 34 OFFCURVE",
"53 126 OFFCURVE",
"53 239 CURVE SMOOTH",
"53 366 OFFCURVE",
"111 464 OFFCURVE",
"187 464 CURVE SMOOTH",
"275 464 OFFCURVE",
"282 388 OFFCURVE",
"282 297 CURVE SMOOTH",
"282 263 OFFCURVE",
"293 237 OFFCURVE",
"303 237 CURVE SMOOTH",
"315 237 OFFCURVE",
"328 265 OFFCURVE",
"328 304 CURVE SMOOTH",
"328 339 OFFCURVE",
"320 374 OFFCURVE",
"306 403 CURVE",
"312 411 OFFCURVE",
"346 447 OFFCURVE",
"385 447 CURVE SMOOTH",
"463 447 OFFCURVE",
"515 369 OFFCURVE",
"515 254 CURVE SMOOTH",
"515 219 OFFCURVE",
"493 96 OFFCURVE",
"451 45 CURVE",
"418 47 OFFCURVE",
"389 26 OFFCURVE",
"389 3 CURVE SMOOTH",
"389 -5 OFFCURVE",
"398 -15 OFFCURVE",
"404 -15 CURVE SMOOTH",
"437 -15 OFFCURVE",
"448 17 OFFCURVE",
"456 28 CURVE",
"484 32 OFFCURVE",
"506 4 OFFCURVE",
"508 4 CURVE SMOOTH",
"510 4 OFFCURVE",
"511 5 OFFCURVE",
"511 8 CURVE SMOOTH",
"511 15 OFFCURVE",
"506 22 OFFCURVE",
"497 27 CURVE",
"482 36 OFFCURVE",
"472 40 OFFCURVE",
"463 43 CURVE",
"508 127 OFFCURVE",
"532 219 OFFCURVE",
"532 301 CURVE SMOOTH",
"532 413 OFFCURVE",
"488 476 OFFCURVE",
"412 476 CURVE SMOOTH",
"376 476 OFFCURVE",
"345 462 OFFCURVE",
"305 416 CURVE",
"303 416 LINE",
"275 453 OFFCURVE",
"238 475 OFFCURVE",
"193 475 CURVE SMOOTH",
"102 475 OFFCURVE",
"40 378 OFFCURVE",
"40 239 CURVE SMOOTH"
);
}
);
width = 572;
}
);
unicode = 10DD;
},
{
glyphname = "par-georgian";
lastChange = "2017-03-22 19:25:00 +0000";
layers = (
{
backgroundImage = {
crop = "{{0, 0}, {376.07999999999998, 718.07999999999993}}";
imagePath = p.jpg;
locked = "1";
transform = "{1.031, 0, 0, 1.027, 20, -12}";
};
layerId = "CCC4B6D6-30B5-49E5-84BA-D7A51BB31B72";
name = Regular;
paths = (
{
closed = 1;
nodes = (
"310 368 LINE",
"346 353 OFFCURVE",
"396 312 OFFCURVE",
"396 210 CURVE SMOOTH",
"396 52 OFFCURVE",
"307 -10 OFFCURVE",
"199 -10 CURVE SMOOTH",
"115 -10 OFFCURVE",
"40 44 OFFCURVE",
"40 136 CURVE SMOOTH",
"40 166 OFFCURVE",
"46 191 OFFCURVE",
"69 191 CURVE SMOOTH",
"84 191 OFFCURVE",
"100 181 OFFCURVE",
"100 169 CURVE SMOOTH",
"100 150 OFFCURVE",
"85 135 OFFCURVE",
"85 121 CURVE SMOOTH",
"85 45 OFFCURVE",
"172 20 OFFCURVE",
"204 20 CURVE SMOOTH",
"306 20 OFFCURVE",
"374 100 OFFCURVE",
"374 207 CURVE SMOOTH",
"374 273 OFFCURVE",
"336 347 OFFCURVE",
"287 356 CURVE"
);
},
{
closed = 1;
nodes = (
"388 404 OFFCURVE",
"310 341 OFFCURVE",
"206 341 CURVE SMOOTH",
"167 341 OFFCURVE",
"122 349 OFFCURVE",
"122 378 CURVE SMOOTH",
"122 395 OFFCURVE",
"135 412 OFFCURVE",
"188 412 CURVE SMOOTH",
"231 412 OFFCURVE",
"248 397 OFFCURVE",
"273 385 CURVE",
"310 408 OFFCURVE",
"356 420 OFFCURVE",
"356 494 CURVE SMOOTH",
"356 590 OFFCURVE",
"265 620 OFFCURVE",
"139 620 CURVE SMOOTH",
"99 620 OFFCURVE",
"74 624 OFFCURVE",
"74 661 CURVE SMOOTH",
"74 685 OFFCURVE",
"87 713 OFFCURVE",
"100 722 CURVE",
"115 715 LINE",
"114 710 OFFCURVE",
"106 698 OFFCURVE",
"106 684 CURVE SMOOTH",
"106 668 OFFCURVE",
"116 641 OFFCURVE",
"158 641 CURVE SMOOTH",
"263 641 OFFCURVE",
"388 596 OFFCURVE",
"388 495 CURVE SMOOTH"
);
}
);
width = 436;
},
{
layerId = "537B1E8F-B3C8-45B3-90C6-0C31F5F160D0";
name = Light;
paths = (
{
closed = 1;
nodes = (
"40 43 OFFCURVE",
"105 -17 OFFCURVE",
"197 -17 CURVE SMOOTH",
"322 -17 OFFCURVE",
"393 63 OFFCURVE",
"393 204 CURVE SMOOTH",
"393 299 OFFCURVE",
"357 356 OFFCURVE",
"295 374 CURVE",
"352 400 OFFCURVE",
"384 442 OFFCURVE",
"384 500 CURVE SMOOTH",
"384 610 OFFCURVE",
"261 644 OFFCURVE",
"154 644 CURVE SMOOTH",
"117 644 OFFCURVE",
"92 649 OFFCURVE",
"92 696 CURVE SMOOTH",
"92 707 OFFCURVE",
"97 718 OFFCURVE",
"99 725 CURVE",
"95 726 LINE",
"85 716 OFFCURVE",
"75 691 OFFCURVE",
"75 672 CURVE SMOOTH",
"75 644 OFFCURVE",
"88 631 OFFCURVE",
"134 631 CURVE SMOOTH",
"290 631 OFFCURVE",
"368 591 OFFCURVE",
"368 499 CURVE SMOOTH",
"368 414 OFFCURVE",
"294 389 OFFCURVE",
"279 379 CURVE",
"249 393 OFFCURVE",
"212 406 OFFCURVE",
"185 406 CURVE SMOOTH",
"145 406 OFFCURVE",
"125 397 OFFCURVE",
"125 378 CURVE SMOOTH",
"125 359 OFFCURVE",
"153 347 OFFCURVE",
"204 347 CURVE SMOOTH",
"234 347 OFFCURVE",
"262 353 OFFCURVE",
"288 363 CURVE",
"341 355 OFFCURVE",
"379 278 OFFCURVE",
"379 201 CURVE SMOOTH",
"379 84 OFFCURVE",
"310 0 OFFCURVE",
"202 0 CURVE SMOOTH",
"168 0 OFFCURVE",
"70 28 OFFCURVE",
"70 112 CURVE SMOOTH",
"70 128 OFFCURVE",
"86 144 OFFCURVE",
"86 162 CURVE SMOOTH",
"86 169 OFFCURVE",
"74 177 OFFCURVE",
"62 177 CURVE SMOOTH",
"47 177 OFFCURVE",
"40 162 OFFCURVE",
"40 127 CURVE SMOOTH"
);
}
);
width = 433;
}
);
unicode = 10DE;
},
{
glyphname = "zhar-georgian";
lastChange = "2017-03-22 19:54:14 +0000";
layers = (
{
backgroundImage = {
crop = "{{0, 0}, {720, 1143.1199999999999}}";
imagePath = J;
locked = "1";
transform = "{0.855, 0, 0, 0.846, 20, -249}";
};
layerId = "CCC4B6D6-30B5-49E5-84BA-D7A51BB31B72";
name = Regular;
paths = (
{
closed = 1;
nodes = (
"335 432 LINE",
"395 371 OFFCURVE",
"412 306 OFFCURVE",
"412 251 CURVE SMOOTH",
"412 121 OFFCURVE",
"369 36 OFFCURVE",
"238 36 CURVE",
"133 36 OFFCURVE",
"91 114 OFFCURVE",
"91 159 CURVE SMOOTH",
"91 186 OFFCURVE",
"104 188 OFFCURVE",
"125 205 CURVE SMOOTH",
"135 213 OFFCURVE",
"141 223 OFFCURVE",
"141 232 CURVE SMOOTH",
"141 251 OFFCURVE",
"124 265 OFFCURVE",
"100 265 CURVE SMOOTH",
"66 265 OFFCURVE",
"40 216 OFFCURVE",
"40 159 CURVE SMOOTH",
"40 87 OFFCURVE",
"105 -4 OFFCURVE",
"238 -4 CURVE SMOOTH",
"369 -4 OFFCURVE",
"436 123 OFFCURVE",
"436 248 CURVE SMOOTH",
"436 328 OFFCURVE",
"405 396 OFFCURVE",
"345 444 CURVE"
);
},
{
closed = 1;
nodes = (
"351 438 CURVE",
"466 500 OFFCURVE",
"496 533 OFFCURVE",
"543 577 CURVE",
"546 577 LINE",
"538 419 OFFCURVE",
"489 -117 OFFCURVE",
"489 -186 CURVE SMOOTH",
"489 -224 OFFCURVE",
"493 -249 OFFCURVE",
"518 -249 CURVE SMOOTH",
"539 -249 OFFCURVE",
"546 -224 OFFCURVE",
"546 -186 CURVE SMOOTH",
"546 115 OFFCURVE",
"554 501 OFFCURVE",
"578 627 CURVE SMOOTH",
"581 644 OFFCURVE",
"590 667 OFFCURVE",
"590 684 CURVE SMOOTH",
"590 708 OFFCURVE",
"578 719 OFFCURVE",
"566 719 CURVE SMOOTH",
"554 719 OFFCURVE",
"543 708 OFFCURVE",
"543 687 CURVE SMOOTH",
"543 672 OFFCURVE",
"544 654 OFFCURVE",
"544 634 CURVE SMOOTH",
"543 582 OFFCURVE",
"360 454 OFFCURVE",
"332 454 CURVE",
"303 477 OFFCURVE",
"278 490 OFFCURVE",
"230 490 CURVE SMOOTH",
"185 490 OFFCURVE",
"155 477 OFFCURVE",
"155 450 CURVE SMOOTH",
"155 427 OFFCURVE",
"185 410 OFFCURVE",
"235 410 CURVE SMOOTH",
"265 410 OFFCURVE",
"308 410 OFFCURVE"
);
}
);
width = 645;
},
{
layerId = "537B1E8F-B3C8-45B3-90C6-0C31F5F160D0";
name = Light;
paths = (
{
closed = 1;
nodes = (
"40 85 OFFCURVE",
"103 -3 OFFCURVE",
"236 -4 CURVE SMOOTH",
"360 -5 OFFCURVE",
"431 122 OFFCURVE",
"431 249 CURVE SMOOTH",
"431 330 OFFCURVE",
"399 398 OFFCURVE",
"339 445 CURVE",
"464 504 OFFCURVE",
"527 575 OFFCURVE",
"558 613 CURVE",
"558 542 OFFCURVE",
"502 -57 OFFCURVE",
"502 -198 CURVE SMOOTH",
"502 -241 OFFCURVE",
"508 -256 OFFCURVE",
"524 -256 CURVE SMOOTH",
"537 -256 OFFCURVE",
"544 -237 OFFCURVE",
"544 -198 CURVE SMOOTH",
"544 112 OFFCURVE",
"555 510 OFFCURVE",
"577 640 CURVE SMOOTH",
"580 657 OFFCURVE",
"589 681 OFFCURVE",
"589 697 CURVE SMOOTH",
"589 715 OFFCURVE",
"582 726 OFFCURVE",
"573 726 CURVE SMOOTH",
"565 726 OFFCURVE",
"558 716 OFFCURVE",
"558 700 CURVE SMOOTH",
"558 685 OFFCURVE",
"559 666 OFFCURVE",
"559 646 CURVE SMOOTH",
"559 585 OFFCURVE",
"334 438 OFFCURVE",
"327 460 CURVE",
"297 483 OFFCURVE",
"275 490 OFFCURVE",
"227 490 CURVE SMOOTH",
"182 490 OFFCURVE",
"158 478 OFFCURVE",
"158 456 CURVE SMOOTH",
"158 437 OFFCURVE",
"187 418 OFFCURVE",
"232 418 CURVE SMOOTH",
"261 418 OFFCURVE",
"295 417 OFFCURVE",
"335 440 CURVE",
"390 384 OFFCURVE",
"415 324 OFFCURVE",
"415 252 CURVE SMOOTH",
"415 120 OFFCURVE",
"350 23 OFFCURVE",
"236 23 CURVE SMOOTH",
"122 23 OFFCURVE",
"76 109 OFFCURVE",
"76 157 CURVE SMOOTH",
"76 190 OFFCURVE",
"95 194 OFFCURVE",
"114 209 CURVE",
"122 217 OFFCURVE",
"127 225 OFFCURVE",
"127 232 CURVE SMOOTH",
"127 248 OFFCURVE",
"114 259 OFFCURVE",
"94 259 CURVE SMOOTH",
"65 259 OFFCURVE",
"40 213 OFFCURVE",
"40 157 CURVE SMOOTH"
);
}
);
width = 639;
}
);
unicode = 10DF;
},
{
glyphname = "rae-georgian";
lastChange = "2017-03-22 19:52:03 +0000";
layers = (
{
backgroundImage = {
crop = "{{0, 0}, {499.68000000000001, 709.91999999999996}}";
imagePath = r.jpg;
locked = "1";
transform = "{1.032, 0, 0, 1.032, 38, -12}";
};
layerId = "CCC4B6D6-30B5-49E5-84BA-D7A51BB31B72";
name = Regular;
paths = (
{
closed = 1;
nodes = (
"311 425 LINE",
"317 425 LINE",
"339 447 OFFCURVE",
"384 465 OFFCURVE",
"418 465 CURVE SMOOTH",
"509 465 OFFCURVE",
"550 381 OFFCURVE",
"550 279 CURVE SMOOTH",
"550 181 OFFCURVE",
"514 68 OFFCURVE",
"452 -4 CURVE SMOOTH",
"448 -9 OFFCURVE",
"442 -12 OFFCURVE",
"437 -12 CURVE SMOOTH",
"430 -12 OFFCURVE",
"427 -8 OFFCURVE",
"427 -2 CURVE SMOOTH",
"427 1 OFFCURVE",
"428 4 OFFCURVE",
"430 7 CURVE SMOOTH",
"477 71 OFFCURVE",
"519 168 OFFCURVE",
"519 250 CURVE SMOOTH",
"519 339 OFFCURVE",
"461 433 OFFCURVE",
"387 433 CURVE SMOOTH",
"364 433 OFFCURVE",
"343 428 OFFCURVE",
"318 397 CURVE"
);
},
{
closed = 1;
nodes = (
"347 409 OFFCURVE",
"347 315 CURVE SMOOTH",
"347 276 OFFCURVE",
"328 236 OFFCURVE",
"296 236 CURVE SMOOTH",
"278 236 OFFCURVE",
"253 255 OFFCURVE",
"253 311 CURVE SMOOTH",
"253 345 OFFCURVE",
"280 377 OFFCURVE",
"280 395 CURVE SMOOTH",
"280 411 OFFCURVE",
"249 457 OFFCURVE",
"202 457 CURVE SMOOTH",
"114 457 OFFCURVE",
"77 383 OFFCURVE",
"77 293 CURVE SMOOTH",
"77 216 OFFCURVE",
"109 73 OFFCURVE",
"157 73 CURVE SMOOTH",
"167 73 OFFCURVE",
"170 74 OFFCURVE",
"174 74 CURVE SMOOTH",
"196 74 OFFCURVE",
"207 57 OFFCURVE",
"207 39 CURVE SMOOTH",
"207 23 OFFCURVE",
"197 7 OFFCURVE",
"178 7 CURVE SMOOTH",
"91 7 OFFCURVE",
"40 133 OFFCURVE",
"40 254 CURVE SMOOTH",
"40 300 OFFCURVE",
"47 344 OFFCURVE",
"63 382 CURVE SMOOTH",
"127 534 OFFCURVE",
"334 592 OFFCURVE",
"363 649 CURVE SMOOTH",
"381 685 OFFCURVE",
"366 720 OFFCURVE",
"396 720 CURVE SMOOTH",
"413 720 OFFCURVE",
"422 709 OFFCURVE",
"422 690 CURVE SMOOTH",
"422 665 OFFCURVE",
"407 629 OFFCURVE",
"381 615 CURVE SMOOTH",
"348 597 OFFCURVE",
"172 485 OFFCURVE",
"164 476 CURVE",
"164 474 LINE",
"175 475 OFFCURVE",
"191 477 OFFCURVE",
"208 477 CURVE SMOOTH",
"292 477 OFFCURVE"
);
}
);
width = 590;
},
{
layerId = "537B1E8F-B3C8-45B3-90C6-0C31F5F160D0";
name = Light;
paths = (
{
closed = 1;
nodes = (
"40 114 OFFCURVE",
"99 4 OFFCURVE",
"174 4 CURVE SMOOTH",
"187 4 OFFCURVE",
"196 15 OFFCURVE",
"196 30 CURVE SMOOTH",
"196 48 OFFCURVE",
"186 59 OFFCURVE",
"170 59 CURVE SMOOTH",
"167 59 OFFCURVE",
"164 58 OFFCURVE",
"153 58 CURVE SMOOTH",
"96 58 OFFCURVE",
"62 212 OFFCURVE",
"62 292 CURVE SMOOTH",
"62 403 OFFCURVE",
"113 469 OFFCURVE",
"199 469 CURVE SMOOTH",
"253 469 OFFCURVE",
"288 416 OFFCURVE",
"288 398 CURVE SMOOTH",
"288 377 OFFCURVE",
"260 344 OFFCURVE",
"260 311 CURVE SMOOTH",
"260 270 OFFCURVE",
"275 241 OFFCURVE",
"296 241 CURVE SMOOTH",
"321 241 OFFCURVE",
"340 274 OFFCURVE",
"340 315 CURVE SMOOTH",
"340 351 OFFCURVE",
"332 384 OFFCURVE",
"318 410 CURVE",
"338 434 OFFCURVE",
"359 444 OFFCURVE",
"390 444 CURVE SMOOTH",
"466 444 OFFCURVE",
"534 350 OFFCURVE",
"534 248 CURVE SMOOTH",
"534 171 OFFCURVE",
"497 69 OFFCURVE",
"441 -7 CURVE",
"439 -9 OFFCURVE",
"439 -11 OFFCURVE",
"439 -12 CURVE SMOOTH",
"439 -15 OFFCURVE",
"439 -15 OFFCURVE",
"442 -15 CURVE SMOOTH",
"444 -15 OFFCURVE",
"448 -13 OFFCURVE",
"451 -10 CURVE",
"511 60 OFFCURVE",
"550 174 OFFCURVE",
"550 278 CURVE SMOOTH",
"550 394 OFFCURVE",
"501 463 OFFCURVE",
"422 463 CURVE SMOOTH",
"389 463 OFFCURVE",
"348 453 OFFCURVE",
"318 421 CURVE",
"315 421 LINE",
"287 453 OFFCURVE",
"251 475 OFFCURVE",
"205 475 CURVE SMOOTH",
"189 475 OFFCURVE",
"165 475 OFFCURVE",
"154 474 CURVE",
"151 476 LINE",
"166 504 OFFCURVE",
"307 592 OFFCURVE",
"380 631 CURVE SMOOTH",
"400 642 OFFCURVE",
"418 674 OFFCURVE",
"418 702 CURVE SMOOTH",
"418 719 OFFCURVE",
"412 726 OFFCURVE",
"399 726 CURVE SMOOTH",
"378 726 OFFCURVE",
"394 699 OFFCURVE",
"372 657 CURVE SMOOTH",
"341 596 OFFCURVE",
"129 536 OFFCURVE",
"63 381 CURVE SMOOTH",
"47 345 OFFCURVE",
"40 301 OFFCURVE",
"40 252 CURVE SMOOTH"
);
}
);
width = 590;
}
);
unicode = 10E0;
},
{
glyphname = "san-georgian";
lastChange = "2017-03-22 20:29:51 +0000";
layers = (
{
backgroundImage = {
crop = "{{0, 0}, {414.24000000000001, 709.91999999999996}}";
imagePath = ss.jpg;
locked = "1";
transform = "{1.029, 0, 0, 1.029, 24, -12}";
};
layerId = "CCC4B6D6-30B5-49E5-84BA-D7A51BB31B72";
name = Regular;
paths = (
{
closed = 1;
nodes = (
"61 692 OFFCURVE",
"67 705 OFFCURVE",
"78 718 CURVE",
"82 718 OFFCURVE",
"133 705 OFFCURVE",
"133 661 CURVE SMOOTH",
"133 631 OFFCURVE",
"115 259 OFFCURVE",
"115 190 CURVE SMOOTH",
"115 103 OFFCURVE",
"177 33 OFFCURVE",
"259 33 CURVE SMOOTH",
"343 33 OFFCURVE",
"382 70 OFFCURVE",
"382 146 CURVE SMOOTH",
"382 280 OFFCURVE",
"256 242 OFFCURVE",
"256 380 CURVE SMOOTH",
"256 408 OFFCURVE",
"267 434 OFFCURVE",
"294 454 CURVE SMOOTH",
"301 459 OFFCURVE",
"311 465 OFFCURVE",
"323 465 CURVE SMOOTH",
"338 465 OFFCURVE",
"348 451 OFFCURVE",
"348 438 CURVE SMOOTH",
"348 424 OFFCURVE",
"339 419 OFFCURVE",
"331 419 CURVE SMOOTH",
"322 419 OFFCURVE",
"311 429 OFFCURVE",
"305 429 CURVE SMOOTH",
"295 429 OFFCURVE",
"278 409 OFFCURVE",
"278 392 CURVE SMOOTH",
"278 294 OFFCURVE",
"433 329 OFFCURVE",
"433 201 CURVE SMOOTH",
"433 102 OFFCURVE",
"366 -9 OFFCURVE",
"250 -9 CURVE SMOOTH",
"87 -9 OFFCURVE",
"85 151 OFFCURVE",
"85 177 CURVE SMOOTH",
"85 202 OFFCURVE",
"99 456 OFFCURVE",
"99 581 CURVE SMOOTH",
"99 617 OFFCURVE",
"98 642 OFFCURVE",
"95 649 CURVE SMOOTH",
"87 663 OFFCURVE",
"60 666 OFFCURVE",
"55 675 CURVE"
);
}
);
width = 473;
},
{
layerId = "537B1E8F-B3C8-45B3-90C6-0C31F5F160D0";
name = Light;
paths = (
{
closed = 1;
nodes = (
"359 -16 OFFCURVE",
"426 95 OFFCURVE",
"426 196 CURVE SMOOTH",
"426 321 OFFCURVE",
"268 283 OFFCURVE",
"268 395 CURVE SMOOTH",
"268 415 OFFCURVE",
"284 441 OFFCURVE",
"301 441 CURVE SMOOTH",
"310 441 OFFCURVE",
"322 430 OFFCURVE",
"328 430 CURVE SMOOTH",
"334 430 OFFCURVE",
"338 434 OFFCURVE",
"338 443 CURVE SMOOTH",
"338 454 OFFCURVE",
"329 463 OFFCURVE",
"320 463 CURVE SMOOTH",
"313 463 OFFCURVE",
"305 461 OFFCURVE",
"295 453 CURVE",
"271 435 OFFCURVE",
"258 411 OFFCURVE",
"258 382 CURVE SMOOTH",
"258 247 OFFCURVE",
"390 288 OFFCURVE",
"390 138 CURVE SMOOTH",
"390 55 OFFCURVE",
"345 13 OFFCURVE",
"253 13 CURVE SMOOTH",
"165 13 OFFCURVE",
"95 88 OFFCURVE",
"95 184 CURVE SMOOTH",
"95 256 OFFCURVE",
"114 644 OFFCURVE",
"114 675 CURVE SMOOTH",
"114 709 OFFCURVE",
"80 723 OFFCURVE",
"69 726 CURVE",
"60 717 OFFCURVE",
"55 706 OFFCURVE",
"50 691 CURVE",
"57 685 OFFCURVE",
"81 681 OFFCURVE",
"90 666 CURVE",
"90 666 LINE",
"94 657 OFFCURVE",
"95 635 OFFCURVE",
"95 592 CURVE SMOOTH",
"95 461 OFFCURVE",
"80 197 OFFCURVE",
"80 171 CURVE SMOOTH",
"80 144 OFFCURVE",
"82 -16 OFFCURVE",
"244 -16 CURVE SMOOTH"
);
}
);
width = 466;
}
);
unicode = 10E1;
},
{
glyphname = "tar-georgian";
lastChange = "2017-03-22 19:52:19 +0000";
layers = (
{
backgroundImage = {
crop = "{{0, 0}, {499.68000000000001, 709.91999999999996}}";
imagePath = tt;
locked = "1";
transform = "{1, 0, 0, 1, 30, -247}";
};
layerId = "CCC4B6D6-30B5-49E5-84BA-D7A51BB31B72";
name = Regular;
paths = (
{
closed = 1;
nodes = (
"401 -247 OFFCURVE",
"518 -67 OFFCURVE",
"518 61 CURVE SMOOTH",
"518 105 OFFCURVE",
"498 158 OFFCURVE",
"434 214 CURVE",
"434 220 LINE",
"483 247 OFFCURVE",
"517 294 OFFCURVE",
"517 339 CURVE SMOOTH",
"517 393 OFFCURVE",
"453 449 OFFCURVE",
"402 449 CURVE SMOOTH",
"350 449 OFFCURVE",
"299 406 OFFCURVE",
"299 346 CURVE SMOOTH",
"299 290 OFFCURVE",
"328 257 OFFCURVE",
"386 220 CURVE",
"386 216 LINE",
"341 191 OFFCURVE",
"290 147 OFFCURVE",
"290 88 CURVE SMOOTH",
"290 32 OFFCURVE",
"336 -21 OFFCURVE",
"401 -21 CURVE SMOOTH",
"449 -21 OFFCURVE",
"485 6 OFFCURVE",
"492 29 CURVE",
"494 28 LINE",
"477 -54 OFFCURVE",
"406 -214 OFFCURVE",
"291 -214 CURVE SMOOTH",
"209 -214 OFFCURVE",
"117 -101 OFFCURVE",
"93 -25 CURVE SMOOTH",
"80 17 OFFCURVE",
"63 77 OFFCURVE",
"63 135 CURVE SMOOTH",
"63 281 OFFCURVE",
"86 334 OFFCURVE",
"211 386 CURVE SMOOTH",
"229 394 OFFCURVE",
"237 410 OFFCURVE",
"237 425 CURVE SMOOTH",
"237 445 OFFCURVE",
"221 463 OFFCURVE",
"191 463 CURVE SMOOTH",
"155 463 OFFCURVE",
"103 371 OFFCURVE",
"93 352 CURVE SMOOTH",
"57 283 OFFCURVE",
"40 219 OFFCURVE",
"40 100 CURVE SMOOTH",
"40 -59 OFFCURVE",
"125 -247 OFFCURVE",
"265 -247 CURVE SMOOTH"
);
},
{
closed = 1;
nodes = (
"376 6 OFFCURVE",
"324 51 OFFCURVE",
"324 100 CURVE SMOOTH",
"324 164 OFFCURVE",
"369 197 OFFCURVE",
"405 197 CURVE SMOOTH",
"440 197 OFFCURVE",
"484 143 OFFCURVE",
"484 91 CURVE SMOOTH",
"484 44 OFFCURVE",
"474 6 OFFCURVE",
"412 6 CURVE SMOOTH"
);
},
{
closed = 1;
nodes = (
"370 234 OFFCURVE",
"330 302 OFFCURVE",
"330 348 CURVE SMOOTH",
"330 393 OFFCURVE",
"341 423 OFFCURVE",
"391 423 CURVE SMOOTH",
"434 423 OFFCURVE",
"477 371 OFFCURVE",
"477 326 CURVE SMOOTH",
"477 280 OFFCURVE",
"447 234 OFFCURVE",
"413 234 CURVE SMOOTH"
);
}
);
width = 558;
},
{
layerId = "537B1E8F-B3C8-45B3-90C6-0C31F5F160D0";
name = Light;
paths = (
{
closed = 1;
nodes = (
"406 -257 OFFCURVE",
"526 -72 OFFCURVE",
"526 60 CURVE SMOOTH",
"526 115 OFFCURVE",
"500 194 OFFCURVE",
"438 222 CURVE",
"438 225 LINE",
"491 253 OFFCURVE",
"525 308 OFFCURVE",
"525 353 CURVE SMOOTH",
"525 403 OFFCURVE",
"464 461 OFFCURVE",
"413 461 CURVE SMOOTH",
"358 461 OFFCURVE",
"313 415 OFFCURVE",
"313 360 CURVE SMOOTH",
"313 308 OFFCURVE",
"336 268 OFFCURVE",
"404 225 CURVE",
"404 223 LINE",
"334 204 OFFCURVE",
"303 137 OFFCURVE",
"303 89 CURVE SMOOTH",
"303 30 OFFCURVE",
"352 -19 OFFCURVE",
"412 -19 CURVE SMOOTH",
"448 -19 OFFCURVE",
"487 -7 OFFCURVE",
"512 33 CURVE",
"514 32 LINE",
"492 -118 OFFCURVE",
"378 -237 OFFCURVE",
"296 -237 CURVE SMOOTH",
"205 -237 OFFCURVE",
"106 -113 OFFCURVE",
"79 -32 CURVE SMOOTH",
"64 12 OFFCURVE",
"55 70 OFFCURVE",
"55 132 CURVE SMOOTH",
"55 296 OFFCURVE",
"78 358 OFFCURVE",
"208 409 CURVE SMOOTH",
"222 414 OFFCURVE",
"231 429 OFFCURVE",
"231 443 CURVE SMOOTH",
"231 462 OFFCURVE",
"215 476 OFFCURVE",
"191 476 CURVE SMOOTH",
"164 476 OFFCURVE",
"127 425 OFFCURVE",
"95 363 CURVE SMOOTH",
"55 287 OFFCURVE",
"40 217 OFFCURVE",
"40 101 CURVE SMOOTH",
"40 -65 OFFCURVE",
"126 -257 OFFCURVE",
"268 -257 CURVE SMOOTH"
);
},
{
closed = 1;
nodes = (
"376 -5 OFFCURVE",
"322 51 OFFCURVE",
"322 101 CURVE SMOOTH",
"322 162 OFFCURVE",
"364 211 OFFCURVE",
"416 211 CURVE SMOOTH",
"460 211 OFFCURVE",
"507 148 OFFCURVE",
"507 92 CURVE SMOOTH",
"507 41 OFFCURVE",
"495 -5 OFFCURVE",
"423 -5 CURVE SMOOTH"
);
},
{
closed = 1;
nodes = (
"378 235 OFFCURVE",
"328 303 OFFCURVE",
"328 362 CURVE SMOOTH",
"328 422 OFFCURVE",
"358 449 OFFCURVE",
"401 449 CURVE SMOOTH",
"449 449 OFFCURVE",
"500 392 OFFCURVE",
"500 339 CURVE SMOOTH",
"500 285 OFFCURVE",
"464 235 OFFCURVE",
"424 235 CURVE SMOOTH"
);
}
);
width = 566;
}
);
unicode = 10E2;
},
{
glyphname = "un-georgian";
lastChange = "2017-03-22 19:52:49 +0000";
layers = (
{
backgroundImage = {
crop = "{{0, 0}, {479.51999999999998, 709.91999999999996}}";
imagePath = u.jpg;
locked = "1";
transform = "{1, 0, 0, 1, 24, -247}";
};
layerId = "CCC4B6D6-30B5-49E5-84BA-D7A51BB31B72";
name = Regular;
paths = (
{
closed = 1;
nodes = (
"324 355 OFFCURVE",
"287 454 OFFCURVE",
"228 454 CURVE SMOOTH",
"156 454 OFFCURVE",
"161 369 OFFCURVE",
"95 369 CURVE SMOOTH",
"72 369 OFFCURVE",
"56 385 OFFCURVE",
"56 401 CURVE SMOOTH",
"56 410 OFFCURVE",
"62 416 OFFCURVE",
"76 426 CURVE SMOOTH",
"85 432 OFFCURVE",
"88 441 OFFCURVE",
"88 448 CURVE SMOOTH",
"88 457 OFFCURVE",
"83 463 OFFCURVE",
"75 463 CURVE SMOOTH",
"52 463 OFFCURVE",
"40 438 OFFCURVE",
"40 414 CURVE SMOOTH",
"40 383 OFFCURVE",
"64 351 OFFCURVE",
"94 351 CURVE SMOOTH",
"115 351 OFFCURVE",
"140 359 OFFCURVE",
"165 378 CURVE SMOOTH",
"197 402 OFFCURVE",
"209 430 OFFCURVE",
"240 430 CURVE SMOOTH",
"258 430 OFFCURVE",
"285 407 OFFCURVE",
"285 381 CURVE SMOOTH",
"285 360 OFFCURVE",
"249 340 OFFCURVE",
"249 288 CURVE SMOOTH",
"249 257 OFFCURVE",
"263 223 OFFCURVE",
"287 223 CURVE SMOOTH",
"306 223 OFFCURVE",
"324 261 OFFCURVE",
"324 301 CURVE SMOOTH"
);
},
{
closed = 1;
nodes = (
"311 367 LINE",
"320 398 OFFCURVE",
"359 427 OFFCURVE",
"386 427 CURVE SMOOTH",
"439 427 OFFCURVE",
"461 367 OFFCURVE",
"461 298 CURVE SMOOTH",
"461 244 OFFCURVE",
"459 193 OFFCURVE",
"459 139 CURVE SMOOTH",
"459 58 OFFCURVE",
"411 -195 OFFCURVE",
"411 -199 CURVE SMOOTH",
"411 -219 OFFCURVE",
"423 -247 OFFCURVE",
"441 -247 CURVE SMOOTH",
"459 -247 OFFCURVE",
"474 -222 OFFCURVE",
"474 -192 CURVE SMOOTH",
"474 -188 OFFCURVE",
"470 -141 OFFCURVE",
"470 -100 CURVE SMOOTH",
"470 -20 OFFCURVE",
"482 55 OFFCURVE",
"482 139 CURVE SMOOTH",
"482 196 OFFCURVE",
"484 241 OFFCURVE",
"484 298 CURVE SMOOTH",
"484 350 OFFCURVE",
"466 447 OFFCURVE",
"392 447 CURVE SMOOTH",
"352 447 OFFCURVE",
"324 417 OFFCURVE",
"304 389 CURVE",
"290 389 LINE"
);
}
);
width = 549;
},
{
layerId = "537B1E8F-B3C8-45B3-90C6-0C31F5F160D0";
name = Light;
paths = (
{
closed = 1;
nodes = (
"40 401 OFFCURVE",
"48 370 OFFCURVE",
"94 370 CURVE SMOOTH",
"116 370 OFFCURVE",
"141 379 OFFCURVE",
"164 397 CURVE SMOOTH",
"197 423 OFFCURVE",
"205 455 OFFCURVE",
"243 455 CURVE SMOOTH",
"270 455 OFFCURVE",
"301 426 OFFCURVE",
"301 397 CURVE SMOOTH",
"301 371 OFFCURVE",
"272 351 OFFCURVE",
"272 299 CURVE SMOOTH",
"272 266 OFFCURVE",
"280 238 OFFCURVE",
"297 238 CURVE SMOOTH",
"310 238 OFFCURVE",
"327 276 OFFCURVE",
"327 313 CURVE SMOOTH",
"327 333 OFFCURVE",
"328 365 OFFCURVE",
"319 388 CURVE",
"328 423 OFFCURVE",
"367 451 OFFCURVE",
"401 451 CURVE SMOOTH",
"455 451 OFFCURVE",
"488 399 OFFCURVE",
"488 310 CURVE SMOOTH",
"488 253 OFFCURVE",
"486 199 OFFCURVE",
"486 143 CURVE SMOOTH",
"486 56 OFFCURVE",
"436 -210 OFFCURVE",
"436 -213 CURVE SMOOTH",
"436 -234 OFFCURVE",
"448 -256 OFFCURVE",
"459 -256 CURVE SMOOTH",
"472 -256 OFFCURVE",
"485 -232 OFFCURVE",
"485 -206 CURVE SMOOTH",
"485 -201 OFFCURVE",
"481 -152 OFFCURVE",
"481 -109 CURVE SMOOTH",
"481 -25 OFFCURVE",
"497 54 OFFCURVE",
"497 143 CURVE SMOOTH",
"497 203 OFFCURVE",
"498 250 OFFCURVE",
"498 310 CURVE SMOOTH",
"498 363 OFFCURVE",
"478 461 OFFCURVE",
"407 461 CURVE SMOOTH",
"382 461 OFFCURVE",
"343 456 OFFCURVE",
"313 401 CURVE",
"312 398 LINE",
"297 450 OFFCURVE",
"261 467 OFFCURVE",
"235 467 CURVE SMOOTH",
"166 467 OFFCURVE",
"173 377 OFFCURVE",
"95 377 CURVE SMOOTH",
"65 377 OFFCURVE",
"47 396 OFFCURVE",
"47 418 CURVE SMOOTH",
"47 430 OFFCURVE",
"52 437 OFFCURVE",
"69 451 CURVE",
"76 454 OFFCURVE",
"79 461 OFFCURVE",
"79 468 CURVE SMOOTH",
"79 474 OFFCURVE",
"77 476 OFFCURVE",
"74 476 CURVE SMOOTH",
"58 476 OFFCURVE",
"40 457 OFFCURVE",
"40 432 CURVE SMOOTH"
);
}
);
width = 548;
}
);
unicode = 10E3;
},
{
glyphname = "phar-georgian";
lastChange = "2017-03-22 19:53:37 +0000";
layers = (
{
backgroundImage = {
crop = "{{0, 0}, {608.39999999999998, 719.27999999999997}}";
imagePath = f.jpg;
locked = "1";
transform = "{1.010, 0, 0, 1.010, 24, -249}";
};
layerId = "CCC4B6D6-30B5-49E5-84BA-D7A51BB31B72";
name = Regular;
paths = (
{
closed = 1;
nodes = (
"371 304 OFFCURVE",
"364 347 OFFCURVE",
"344 386 CURVE SMOOTH",
"311 451 OFFCURVE",
"258 467 OFFCURVE",
"202 467 CURVE SMOOTH",
"108 467 OFFCURVE",
"40 371 OFFCURVE",
"40 282 CURVE SMOOTH",
"40 182 OFFCURVE",
"62 69 OFFCURVE",
"194 69 CURVE SMOOTH",
"301 69 OFFCURVE",
"371 164 OFFCURVE",
"371 268 CURVE SMOOTH"
);
},
{
closed = 1;
nodes = (
"64 360 OFFCURVE",
"141 450 OFFCURVE",
"217 450 CURVE SMOOTH",
"302 450 OFFCURVE",
"336 407 OFFCURVE",
"336 279 CURVE SMOOTH",
"336 177 OFFCURVE",
"273 90 OFFCURVE",
"194 90 CURVE SMOOTH",
"103 90 OFFCURVE",
"64 154 OFFCURVE",
"64 260 CURVE SMOOTH"
);
},
{
closed = 0;
nodes = (
"351 368 LINE"
);
},
{
closed = 1;
nodes = (
"424 80 OFFCURVE",
"373 31 OFFCURVE",
"373 -1 CURVE SMOOTH",
"373 -6 OFFCURVE",
"376 -13 OFFCURVE",
"382 -16 CURVE",
"385 -18 OFFCURVE",
"389 -19 OFFCURVE",
"392 -19 CURVE SMOOTH",
"434 -19 OFFCURVE",
"443 75 OFFCURVE",
"516 75 CURVE SMOOTH",
"557 75 OFFCURVE",
"575 42 OFFCURVE",
"575 2 CURVE SMOOTH",
"575 -82 OFFCURVE",
"504 -183 OFFCURVE",
"413 -217 CURVE",
"406 -212 OFFCURVE",
"400 -211 OFFCURVE",
"395 -211 CURVE SMOOTH",
"386 -211 OFFCURVE",
"380 -219 OFFCURVE",
"380 -228 CURVE SMOOTH",
"380 -241 OFFCURVE",
"391 -247 OFFCURVE",
"401 -247 CURVE SMOOTH",
"412 -247 OFFCURVE",
"416 -245 OFFCURVE",
"423 -242 CURVE",
"529 -196 OFFCURVE",
"615 -85 OFFCURVE",
"615 1 CURVE SMOOTH",
"615 50 OFFCURVE",
"584 92 OFFCURVE",
"520 92 CURVE SMOOTH",
"484 92 LINE"
);
},
{
closed = 1;
nodes = (
"502 80 LINE",
"502 93 LINE",
"504 96 OFFCURVE",
"596 213 OFFCURVE",
"596 305 CURVE SMOOTH",
"596 400 OFFCURVE",
"552 449 OFFCURVE",
"493 449 CURVE SMOOTH",
"449 449 OFFCURVE",
"396 424 OFFCURVE",
"353 370 CURVE",
"345 370 LINE",
"347 343 LINE",
"360 354 LINE SMOOTH",
"403 393 OFFCURVE",
"444 415 OFFCURVE",
"479 415 CURVE SMOOTH",
"532 415 OFFCURVE",
"567 371 OFFCURVE",
"567 284 CURVE SMOOTH",
"567 220 OFFCURVE",
"502 109 OFFCURVE",
"457 80 CURVE"
);
}
);
width = 655;
},
{
layerId = "537B1E8F-B3C8-45B3-90C6-0C31F5F160D0";
name = Light;
paths = (
{
closed = 1;
nodes = (
"40 143 OFFCURVE",
"88 74 OFFCURVE",
"192 74 CURVE SMOOTH",
"291 74 OFFCURVE",
"369 162 OFFCURVE",
"369 275 CURVE",
"369 305 OFFCURVE",
"363 334 OFFCURVE",
"355 360 CURVE",
"404 409 OFFCURVE",
"442 435 OFFCURVE",
"490 435 CURVE SMOOTH",
"553 435 OFFCURVE",
"590 382 OFFCURVE",
"590 291 CURVE SMOOTH",
"590 232 OFFCURVE",
"534 125 OFFCURVE",
"481 81 CURVE",
"432 65 OFFCURVE",
"387 23 OFFCURVE",
"387 -6 CURVE SMOOTH",
"387 -12 OFFCURVE",
"390 -17 OFFCURVE",
"399 -17 CURVE SMOOTH",
"434 -17 OFFCURVE",
"447 81 OFFCURVE",
"528 81 CURVE SMOOTH",
"571 81 OFFCURVE",
"598 48 OFFCURVE",
"598 -3 CURVE SMOOTH",
"598 -98 OFFCURVE",
"517 -206 OFFCURVE",
"419 -240 CURVE",
"413 -234 OFFCURVE",
"408 -232 OFFCURVE",
"402 -232 CURVE SMOOTH",
"398 -232 OFFCURVE",
"395 -236 OFFCURVE",
"395 -243 CURVE SMOOTH",
"395 -250 OFFCURVE",
"400 -255 OFFCURVE",
"408 -255 CURVE SMOOTH",
"418 -255 OFFCURVE",
"420 -254 OFFCURVE",
"428 -251 CURVE SMOOTH",
"537 -210 OFFCURVE",
"623 -91 OFFCURVE",
"623 -4 CURVE SMOOTH",
"623 49 OFFCURVE",
"581 90 OFFCURVE",
"525 87 CURVE SMOOTH",
"505 86 LINE",
"505 87 LINE",
"508 94 OFFCURVE",
"603 220 OFFCURVE",
"603 313 CURVE SMOOTH",
"603 402 OFFCURVE",
"566 456 OFFCURVE",
"504 456 CURVE SMOOTH",
"456 456 OFFCURVE",
"398 425 OFFCURVE",
"353 374 CURVE",
"351 374 LINE",
"341 395 LINE",
"313 450 OFFCURVE",
"271 475 OFFCURVE",
"201 475 CURVE SMOOTH",
"115 475 OFFCURVE",
"40 387 OFFCURVE",
"40 289 CURVE SMOOTH"
);
},
{
closed = 1;
nodes = (
"53 378 OFFCURVE",
"121 456 OFFCURVE",
"207 456 CURVE SMOOTH",
"304 456 OFFCURVE",
"349 421 OFFCURVE",
"349 286 CURVE SMOOTH",
"349 175 OFFCURVE",
"278 85 OFFCURVE",
"192 85 CURVE SMOOTH",
"97 85 OFFCURVE",
"53 152 OFFCURVE",
"53 273 CURVE SMOOTH"
);
}
);
width = 663;
}
);
unicode = 10E4;
},
{
glyphname = "khar-georgian";
lastChange = "2017-03-22 19:51:23 +0000";
layers = (
{
backgroundImage = {
crop = "{{0, 0}, {610.79999999999995, 1143.1199999999999}}";
imagePath = q.jpg;
locked = "1";
transform = "{0.820, 0, 0, 0.820, 22, -249}";
};
layerId = "CCC4B6D6-30B5-49E5-84BA-D7A51BB31B72";
name = Regular;
paths = (
{
closed = 1;
nodes = (
"385 331 LINE",
"383 348 OFFCURVE",
"356 466 OFFCURVE",
"225 466 CURVE SMOOTH",
"114 466 OFFCURVE",
"40 387 OFFCURVE",
"40 246 CURVE SMOOTH",
"40 166 OFFCURVE",
"60 69 OFFCURVE",
"116 20 CURVE SMOOTH",
"132 6 OFFCURVE",
"150 3 OFFCURVE",
"161 3 CURVE SMOOTH",
"180 3 OFFCURVE",
"187 19 OFFCURVE",
"187 35 CURVE SMOOTH",
"187 61 OFFCURVE",
"173 69 OFFCURVE",
"162 69 CURVE SMOOTH",
"154 69 OFFCURVE",
"150 66 OFFCURVE",
"146 66 CURVE SMOOTH",
"109 66 OFFCURVE",
"67 179 OFFCURVE",
"67 269 CURVE SMOOTH",
"67 351 OFFCURVE",
"103 425 OFFCURVE",
"230 425 CURVE SMOOTH",
"321 425 OFFCURVE",
"385 349 OFFCURVE",
"385 216 CURVE SMOOTH",
"385 175 OFFCURVE",
"344 -212 OFFCURVE",
"344 -218 CURVE SMOOTH",
"344 -231 OFFCURVE",
"356 -248 OFFCURVE",
"367 -248 CURVE SMOOTH",
"379 -248 OFFCURVE",
"397 -238 OFFCURVE",
"397 -212 CURVE SMOOTH",
"397 -199 OFFCURVE",
"394 -130 OFFCURVE",
"394 -35 CURVE SMOOTH",
"394 29 OFFCURVE",
"420 472 OFFCURVE",
"425 516 CURVE SMOOTH",
"431 567 OFFCURVE",
"447 598 OFFCURVE",
"447 636 CURVE SMOOTH",
"447 663 OFFCURVE",
"438 685 OFFCURVE",
"416 685 CURVE SMOOTH",
"395 685 OFFCURVE",
"383 676 OFFCURVE",
"383 641 CURVE SMOOTH",
"383 583 OFFCURVE",
"391 517 OFFCURVE",
"391 412 CURVE SMOOTH",
"391 381 OFFCURVE",
"390 358 OFFCURVE",
"388 331 CURVE"
);
}
);
width = 502;
},
{
layerId = "537B1E8F-B3C8-45B3-90C6-0C31F5F160D0";
name = Light;
paths = (
{
closed = 1;
nodes = (
"397 328 LINE",
"393 328 LINE",
"348 430 OFFCURVE",
"311 468 OFFCURVE",
"223 468 CURVE SMOOTH",
"109 468 OFFCURVE",
"40 385 OFFCURVE",
"40 247 CURVE SMOOTH",
"40 166 OFFCURVE",
"59 66 OFFCURVE",
"115 19 CURVE SMOOTH",
"128 8 OFFCURVE",
"142 3 OFFCURVE",
"157 3 CURVE SMOOTH",
"168 3 OFFCURVE",
"175 12 OFFCURVE",
"175 29 CURVE SMOOTH",
"175 47 OFFCURVE",
"168 57 OFFCURVE",
"158 57 CURVE SMOOTH",
"152 57 OFFCURVE",
"148 54 OFFCURVE",
"141 54 CURVE SMOOTH",
"98 54 OFFCURVE",
"53 169 OFFCURVE",
"53 271 CURVE SMOOTH",
"53 382 OFFCURVE",
"112 440 OFFCURVE",
"228 440 CURVE SMOOTH",
"332 440 OFFCURVE",
"390 352 OFFCURVE",
"390 216 CURVE SMOOTH",
"390 174 OFFCURVE",
"354 -226 OFFCURVE",
"354 -233 CURVE SMOOTH",
"354 -243 OFFCURVE",
"364 -256 OFFCURVE",
"370 -256 CURVE SMOOTH",
"382 -256 OFFCURVE",
"393 -244 OFFCURVE",
"393 -226 CURVE SMOOTH",
"393 -213 OFFCURVE",
"390 -142 OFFCURVE",
"390 -43 CURVE SMOOTH",
"390 23 OFFCURVE",
"416 482 OFFCURVE",
"422 527 CURVE SMOOTH",
"428 580 OFFCURVE",
"444 612 OFFCURVE",
"444 651 CURVE SMOOTH",
"444 678 OFFCURVE",
"435 694 OFFCURVE",
"421 694 CURVE SMOOTH",
"402 694 OFFCURVE",
"395 685 OFFCURVE",
"395 656 CURVE SMOOTH",
"395 596 OFFCURVE",
"399 527 OFFCURVE",
"399 419 CURVE"
);
}
);
width = 494;
}
);
unicode = 10E5;
},
{
glyphname = "ghan-georgian";
lastChange = "2017-03-22 19:51:56 +0000";
layers = (
{
backgroundImage = {
crop = "{{0, 0}, {495.12, 722.88}}";
imagePath = R.jpg;
locked = "1";
transform = "{1, 0, 0, 1, 29, -253}";
};
layerId = "CCC4B6D6-30B5-49E5-84BA-D7A51BB31B72";
name = Regular;
paths = (
{
closed = 1;
nodes = (
"297 400 LINE",
"304 400 LINE",
"309 404 OFFCURVE",
"340 449 OFFCURVE",
"400 449 CURVE SMOOTH",
"475 449 OFFCURVE",
"514 361 OFFCURVE",
"514 290 CURVE SMOOTH",
"514 198 OFFCURVE",
"480 79 OFFCURVE",
"435 20 CURVE SMOOTH",
"431 14 OFFCURVE",
"417 0 OFFCURVE",
"408 0 CURVE SMOOTH",
"405 0 OFFCURVE",
"400 3 OFFCURVE",
"400 10 CURVE SMOOTH",
"400 14 OFFCURVE",
"408 25 OFFCURVE",
"415 32 CURVE SMOOTH",
"433 52 OFFCURVE",
"479 107 OFFCURVE",
"479 229 CURVE SMOOTH",
"479 326 OFFCURVE",
"456 415 OFFCURVE",
"369 415 CURVE SMOOTH",
"345 415 OFFCURVE",
"326 403 OFFCURVE",
"317 392 CURVE SMOOTH",
"315 389 OFFCURVE",
"311 385 OFFCURVE",
"310 381 CURVE"
);
},
{
closed = 1;
nodes = (
"309 393 OFFCURVE",
"334 341 OFFCURVE",
"334 309 CURVE SMOOTH",
"334 265 OFFCURVE",
"313 232 OFFCURVE",
"294 232 CURVE SMOOTH",
"262 232 OFFCURVE",
"258 263 OFFCURVE",
"258 294 CURVE SMOOTH",
"258 325 OFFCURVE",
"275 340 OFFCURVE",
"275 354 CURVE SMOOTH",
"275 399 OFFCURVE",
"230 440 OFFCURVE",
"182 440 CURVE SMOOTH",
"117 440 OFFCURVE",
"72 362 OFFCURVE",
"72 280 CURVE SMOOTH",
"72 246 OFFCURVE",
"82 207 OFFCURVE",
"113 139 CURVE SMOOTH",
"164 26 OFFCURVE",
"217 -40 OFFCURVE",
"237 -61 CURVE SMOOTH",
"249 -74 OFFCURVE",
"301 -104 OFFCURVE",
"340 -141 CURVE SMOOTH",
"363 -163 OFFCURVE",
"384 -191 OFFCURVE",
"384 -217 CURVE SMOOTH",
"384 -235 OFFCURVE",
"376 -242 OFFCURVE",
"365 -242 CURVE SMOOTH",
"347 -242 OFFCURVE",
"318 -221 OFFCURVE",
"294 -191 CURVE SMOOTH",
"259 -148 OFFCURVE",
"254 -107 OFFCURVE",
"222 -82 CURVE SMOOTH",
"190 -57 OFFCURVE",
"106 -12 OFFCURVE",
"77 -12 CURVE SMOOTH",
"72 -12 OFFCURVE",
"61 -14 OFFCURVE",
"58 -14 CURVE SMOOTH",
"44 -14 OFFCURVE",
"40 -5 OFFCURVE",
"40 1 CURVE SMOOTH",
"40 3 OFFCURVE",
"44 12 OFFCURVE",
"53 12 CURVE SMOOTH",
"70 12 OFFCURVE",
"114 1 OFFCURVE",
"188 -36 CURVE",
"191 -34 LINE",
"98 114 OFFCURVE",
"51 204 OFFCURVE",
"51 287 CURVE SMOOTH",
"51 389 OFFCURVE",
"119 462 OFFCURVE",
"193 462 CURVE SMOOTH",
"228 462 OFFCURVE",
"262 446 OFFCURVE",
"293 412 CURVE SMOOTH"
);
}
);
width = 554;
},
{
layerId = "537B1E8F-B3C8-45B3-90C6-0C31F5F160D0";
name = Light;
paths = (
{
closed = 1;
nodes = (
"35 -15 OFFCURVE",
"50 -15 CURVE SMOOTH",
"52 -15 OFFCURVE",
"64 -13 OFFCURVE",
"70 -13 CURVE SMOOTH",
"103 -13 OFFCURVE",
"195 -61 OFFCURVE",
"229 -88 CURVE SMOOTH",
"265 -117 OFFCURVE",
"271 -161 OFFCURVE",
"307 -206 CURVE SMOOTH",
"331 -236 OFFCURVE",
"360 -257 OFFCURVE",
"376 -257 CURVE SMOOTH",
"383 -257 OFFCURVE",
"388 -252 OFFCURVE",
"388 -238 CURVE SMOOTH",
"388 -217 OFFCURVE",
"372 -189 OFFCURVE",
"343 -162 CURVE SMOOTH",
"302 -124 OFFCURVE",
"247 -91 OFFCURVE",
"234 -77 CURVE SMOOTH",
"211 -55 OFFCURVE",
"161 17 OFFCURVE",
"107 137 CURVE SMOOTH",
"76 206 OFFCURVE",
"64 250 OFFCURVE",
"64 290 CURVE SMOOTH",
"64 388 OFFCURVE",
"111 459 OFFCURVE",
"182 459 CURVE SMOOTH",
"238 459 OFFCURVE",
"289 421 OFFCURVE",
"289 369 CURVE SMOOTH",
"289 352 OFFCURVE",
"271 336 OFFCURVE",
"271 305 CURVE SMOOTH",
"271 263 OFFCURVE",
"279 247 OFFCURVE",
"301 247 CURVE SMOOTH",
"316 247 OFFCURVE",
"335 283 OFFCURVE",
"335 321 CURVE",
"335 340 OFFCURVE",
"325 370 OFFCURVE",
"310 398 CURVE",
"318 410 OFFCURVE",
"364 441 OFFCURVE",
"391 441 CURVE SMOOTH",
"474 441 OFFCURVE",
"503 371 OFFCURVE",
"503 236 CURVE SMOOTH",
"503 100 OFFCURVE",
"422 12 OFFCURVE",
"422 3 CURVE SMOOTH",
"422 -7 OFFCURVE",
"440 13 OFFCURVE",
"443 18 CURVE",
"490 79 OFFCURVE",
"526 203 OFFCURVE",
"526 301 CURVE SMOOTH",
"526 390 OFFCURVE",
"476 462 OFFCURVE",
"413 462 CURVE SMOOTH",
"355 462 OFFCURVE",
"323 419 OFFCURVE",
"310 410 CURVE",
"309 410 LINE",
"293 425 LINE",
"262 459 OFFCURVE",
"228 476 OFFCURVE",
"193 476 CURVE SMOOTH",
"116 476 OFFCURVE",
"51 396 OFFCURVE",
"51 298 CURVE SMOOTH",
"51 230 OFFCURVE",
"82 149 OFFCURVE",
"195 -50 CURVE",
"194 -51 LINE",
"136 -24 OFFCURVE",
"92 8 OFFCURVE",
"45 -2 CURVE SMOOTH",
"39 -3 OFFCURVE"
);
}
);
width = 566;
}
);
unicode = 10E6;
},
{
glyphname = "qar-georgian";
lastChange = "2017-03-22 19:52:37 +0000";
layers = (
{
backgroundImage = {
crop = "{{0, 0}, {700.07999999999993, 723.60000000000002}}";
imagePath = y.jpg;
locked = "1";
transform = "{1.062, 0, 0, 1.062, -37, -291}";
};
layerId = "CCC4B6D6-30B5-49E5-84BA-D7A51BB31B72";
name = Regular;
paths = (
{
closed = 1;
nodes = (
"383 -37 OFFCURVE",
"358 -183 OFFCURVE",
"358 -238 CURVE SMOOTH",
"358 -259 OFFCURVE",
"364 -286 OFFCURVE",
"392 -286 CURVE SMOOTH",
"414 -286 OFFCURVE",
"419 -260 OFFCURVE",
"419 -239 CURVE SMOOTH",
"419 -232 OFFCURVE",
"408 -94 OFFCURVE",
"408 5 CURVE SMOOTH",
"408 26 OFFCURVE",
"409 45 OFFCURVE",
"410 61 CURVE SMOOTH",
"411 81 OFFCURVE",
"413 112 OFFCURVE",
"414 117 CURVE SMOOTH",
"417 135 OFFCURVE",
"438 287 OFFCURVE",
"443 386 CURVE SMOOTH",
"444 405 OFFCURVE",
"444 419 OFFCURVE",
"444 429 CURVE SMOOTH",
"444 451 OFFCURVE",
"431 457 OFFCURVE",
"419 457 CURVE SMOOTH",
"403 457 OFFCURVE",
"396 442 OFFCURVE",
"396 426 CURVE SMOOTH",
"396 418 OFFCURVE",
"399 340 OFFCURVE",
"399 298 CURVE SMOOTH",
"399 127 OFFCURVE",
"327 5 OFFCURVE",
"213 5 CURVE SMOOTH",
"130 5 OFFCURVE",
"54 124 OFFCURVE",
"54 237 CURVE SMOOTH",
"54 284 OFFCURVE",
"84 379 OFFCURVE",
"117 394 CURVE SMOOTH",
"171 417 OFFCURVE",
"186 409 OFFCURVE",
"186 440 CURVE SMOOTH",
"186 455 OFFCURVE",
"176 471 OFFCURVE",
"160 471 CURVE SMOOTH",
"97 471 OFFCURVE",
"30 315 OFFCURVE",
"30 212 CURVE SMOOTH",
"30 103 OFFCURVE",
"63 -27 OFFCURVE",
"189 -27 CURVE SMOOTH",
"320 -27 OFFCURVE",
"375 80 OFFCURVE",
"381 83 CURVE",
"383 83 LINE"
);
}
);
width = 502;
},
{
layerId = "537B1E8F-B3C8-45B3-90C6-0C31F5F160D0";
name = Light;
paths = (
{
closed = 1;
nodes = (
"396 -56 OFFCURVE",
"372 -158 OFFCURVE",
"372 -237 CURVE SMOOTH",
"372 -263 OFFCURVE",
"382 -278 OFFCURVE",
"399 -278 CURVE SMOOTH",
"411 -278 OFFCURVE",
"418 -264 OFFCURVE",
"418 -238 CURVE SMOOTH",
"418 -231 OFFCURVE",
"407 -91 OFFCURVE",
"407 10 CURVE SMOOTH",
"407 31 OFFCURVE",
"408 50 OFFCURVE",
"409 66 CURVE SMOOTH",
"411 92 OFFCURVE",
"412 119 OFFCURVE",
"413 124 CURVE SMOOTH",
"417 143 OFFCURVE",
"437 297 OFFCURVE",
"442 396 CURVE SMOOTH",
"443 415 OFFCURVE",
"443 429 OFFCURVE",
"443 440 CURVE SMOOTH",
"443 454 OFFCURVE",
"437 461 OFFCURVE",
"426 461 CURVE SMOOTH",
"417 461 OFFCURVE",
"411 452 OFFCURVE",
"411 436 CURVE SMOOTH",
"411 428 OFFCURVE",
"414 349 OFFCURVE",
"414 307 CURVE SMOOTH",
"414 125 OFFCURVE",
"336 3 OFFCURVE",
"217 3 CURVE SMOOTH",
"131 3 OFFCURVE",
"54 122 OFFCURVE",
"54 245 CURVE SMOOTH",
"54 294 OFFCURVE",
"80 394 OFFCURVE",
"117 410 CURVE SMOOTH",
"180 437 OFFCURVE",
"182 425 OFFCURVE",
"182 451 CURVE SMOOTH",
"182 464 OFFCURVE",
"174 475 OFFCURVE",
"164 475 CURVE SMOOTH",
"111 475 OFFCURVE",
"40 330 OFFCURVE",
"40 220 CURVE SMOOTH",
"40 110 OFFCURVE",
"71 -16 OFFCURVE",
"193 -16 CURVE SMOOTH",
"323 -16 OFFCURVE",
"366 88 OFFCURVE",
"388 96 CURVE",
"392 96 LINE"
);
}
);
width = 493;
}
);
unicode = 10E7;
},
{
glyphname = "shin-georgian";
lastChange = "2017-03-22 19:56:58 +0000";
layers = (
{
backgroundImage = {
crop = "{{0, 0}, {397.91999999999996, 709.91999999999996}}";
imagePath = sh.jpg;
locked = "1";
transform = "{1.047, 0, 0, 1.047, 3, -19}";
};
layerId = "CCC4B6D6-30B5-49E5-84BA-D7A51BB31B72";
name = Regular;
paths = (
{
closed = 1;
nodes = (
"46 632 OFFCURVE",
"41 623 OFFCURVE",
"41 616 CURVE SMOOTH",
"41 608 OFFCURVE",
"45 602 OFFCURVE",
"60 602 CURVE SMOOTH",
"70 602 OFFCURVE",
"65 615 OFFCURVE",
"74 632 CURVE SMOOTH",
"87 656 OFFCURVE",
"111 685 OFFCURVE",
"158 685 CURVE SMOOTH",
"199 685 OFFCURVE",
"214 667 OFFCURVE",
"214 663 CURVE SMOOTH",
"214 661 OFFCURVE",
"204 639 OFFCURVE",
"204 621 CURVE SMOOTH",
"204 602 OFFCURVE",
"227 585 OFFCURVE",
"240 585 CURVE SMOOTH",
"261 585 OFFCURVE",
"276 605 OFFCURVE",
"276 621 CURVE SMOOTH",
"276 656 OFFCURVE",
"256 664 OFFCURVE",
"256 673 CURVE SMOOTH",
"256 680 OFFCURVE",
"280 695 OFFCURVE",
"303 695 CURVE SMOOTH",
"393 695 OFFCURVE",
"388 557 OFFCURVE",
"392 432 CURVE SMOOTH",
"393 403 OFFCURVE",
"394 372 OFFCURVE",
"394 339 CURVE SMOOTH",
"394 336 LINE",
"392 336 LINE",
"382 365 OFFCURVE",
"317 465 OFFCURVE",
"235 465 CURVE SMOOTH",
"96 465 OFFCURVE",
"40 322 OFFCURVE",
"40 191 CURVE SMOOTH",
"40 115 OFFCURVE",
"101 -13 OFFCURVE",
"220 -13 CURVE SMOOTH",
"293 -13 OFFCURVE",
"351 22 OFFCURVE",
"378 84 CURVE SMOOTH",
"407 151 OFFCURVE",
"407 248 OFFCURVE",
"407 361 CURVE SMOOTH",
"407 381 OFFCURVE",
"406 570 OFFCURVE",
"406 607 CURVE SMOOTH",
"406 670 OFFCURVE",
"365 712 OFFCURVE",
"306 712 CURVE SMOOTH",
"284 712 OFFCURVE",
"262 702 OFFCURVE",
"241 685 CURVE",
"239 685 LINE",
"221 713 OFFCURVE",
"191 724 OFFCURVE",
"164 724 CURVE SMOOTH",
"111 724 OFFCURVE",
"80 691 OFFCURVE",
"48 636 CURVE SMOOTH"
);
},
{
closed = 1;
nodes = (
"82 305 OFFCURVE",
"150 434 OFFCURVE",
"235 434 CURVE SMOOTH",
"327 434 OFFCURVE",
"382 348 OFFCURVE",
"382 234 CURVE SMOOTH",
"382 130 OFFCURVE",
"313 20 OFFCURVE",
"227 20 CURVE SMOOTH",
"152 20 OFFCURVE",
"82 85 OFFCURVE",
"82 215 CURVE SMOOTH"
);
}
);
width = 462;
},
{
layerId = "537B1E8F-B3C8-45B3-90C6-0C31F5F160D0";
name = Light;
paths = (
{
closed = 1;
nodes = (
"45 637 OFFCURVE",
"41 629 OFFCURVE",
"41 624 CURVE SMOOTH",
"41 618 OFFCURVE",
"43 616 OFFCURVE",
"52 616 CURVE",
"50 616 OFFCURVE",
"53 633 OFFCURVE",
"60 643 CURVE SMOOTH",
"74 667 OFFCURVE",
"101 703 OFFCURVE",
"153 703 CURVE SMOOTH",
"186 703 OFFCURVE",
"219 687 OFFCURVE",
"219 671 CURVE SMOOTH",
"219 667 OFFCURVE",
"208 646 OFFCURVE",
"208 629 CURVE SMOOTH",
"208 610 OFFCURVE",
"226 599 OFFCURVE",
"237 599 CURVE SMOOTH",
"252 599 OFFCURVE",
"265 610 OFFCURVE",
"265 629 CURVE SMOOTH",
"265 660 OFFCURVE",
"246 668 OFFCURVE",
"246 682 CURVE SMOOTH",
"246 695 OFFCURVE",
"277 706 OFFCURVE",
"302 706 CURVE SMOOTH",
"402 706 OFFCURVE",
"388 599 OFFCURVE",
"388 329 CURVE",
"387 329 LINE",
"384 350 OFFCURVE",
"334 463 OFFCURVE",
"232 461 CURVE SMOOTH",
"96 458 OFFCURVE",
"40 321 OFFCURVE",
"40 187 CURVE SMOOTH",
"40 110 OFFCURVE",
"100 -15 OFFCURVE",
"217 -15 CURVE SMOOTH",
"288 -15 OFFCURVE",
"345 20 OFFCURVE",
"372 81 CURVE SMOOTH",
"401 147 OFFCURVE",
"400 245 OFFCURVE",
"400 362 CURVE SMOOTH",
"400 382 OFFCURVE",
"399 576 OFFCURVE",
"399 614 CURVE SMOOTH",
"399 687 OFFCURVE",
"361 715 OFFCURVE",
"305 715 CURVE SMOOTH",
"288 715 OFFCURVE",
"262 713 OFFCURVE",
"238 687 CURVE",
"236 687 LINE",
"219 708 OFFCURVE",
"191 727 OFFCURVE",
"159 727 CURVE SMOOTH",
"113 727 OFFCURVE",
"84 703 OFFCURVE",
"47 640 CURVE"
);
},
{
closed = 1;
nodes = (
"67 306 OFFCURVE",
"139 444 OFFCURVE",
"232 444 CURVE SMOOTH",
"327 444 OFFCURVE",
"383 358 OFFCURVE",
"383 231 CURVE SMOOTH",
"383 113 OFFCURVE",
"312 4 OFFCURVE",
"224 4 CURVE SMOOTH",
"131 4 OFFCURVE",
"67 88 OFFCURVE",
"67 212 CURVE SMOOTH"
);
}
);
width = 450;
}
);
unicode = 10E8;
},
{
glyphname = "chin-georgian";
lastChange = "2017-03-22 18:28:18 +0000";
layers = (
{
backgroundImage = {
crop = "{{0, 0}, {409.19999999999999, 727.91999999999996}}";
imagePath = ch.jpg;
locked = "1";
transform = "{1.018, 0, 0, 1.018, -4, -17}";
};
layerId = "CCC4B6D6-30B5-49E5-84BA-D7A51BB31B72";
name = Regular;
paths = (
{
closed = 1;
nodes = (
"73 149 OFFCURVE",
"73 194 OFFCURVE",
"73 228 CURVE SMOOTH",
"73 354 OFFCURVE",
"125 449 OFFCURVE",
"212 453 CURVE SMOOTH",
"271 456 OFFCURVE",
"360 403 OFFCURVE",
"360 212 CURVE SMOOTH",
"360 16 OFFCURVE",
"342 38 OFFCURVE",
"328 36 CURVE SMOOTH",
"313 34 OFFCURVE",
"299 27 OFFCURVE",
"299 14 CURVE SMOOTH",
"299 7 OFFCURVE",
"306 -2 OFFCURVE",
"316 -2 CURVE SMOOTH",
"350 -2 OFFCURVE",
"406 59 OFFCURVE",
"406 286 CURVE SMOOTH",
"406 389 OFFCURVE",
"327 474 OFFCURVE",
"218 474 CURVE SMOOTH",
"155 474 OFFCURVE",
"114 447 OFFCURVE",
"71 376 CURVE",
"68 376 LINE",
"64 391 OFFCURVE",
"59 428 OFFCURVE",
"59 454 CURVE SMOOTH",
"59 467 OFFCURVE",
"57 483 OFFCURVE",
"63 482 CURVE SMOOTH",
"67 481 OFFCURVE",
"71 482 OFFCURVE",
"75 482 CURVE SMOOTH",
"195 482 OFFCURVE",
"277 565 OFFCURVE",
"277 639 CURVE SMOOTH",
"277 683 OFFCURVE",
"249 716 OFFCURVE",
"201 716 CURVE SMOOTH",
"159 716 OFFCURVE",
"103 684 OFFCURVE",
"73 636 CURVE SMOOTH",
"40 583 OFFCURVE",
"40 506 OFFCURVE",
"40 436 CURVE SMOOTH",
"40 425 OFFCURVE",
"40 66 OFFCURVE",
"40 46 CURVE SMOOTH",
"40 16 OFFCURVE",
"46 -10 OFFCURVE",
"80 -10 CURVE SMOOTH",
"103 -10 OFFCURVE",
"108 13 OFFCURVE",
"108 26 CURVE SMOOTH",
"108 69 OFFCURVE",
"76 64 OFFCURVE",
"74 121 CURVE SMOOTH"
);
},
{
closed = 1;
nodes = (
"62 525 CURVE SMOOTH",
"62 611 OFFCURVE",
"126 676 OFFCURVE",
"190 676 CURVE SMOOTH",
"220 676 OFFCURVE",
"249 645 OFFCURVE",
"249 620 CURVE SMOOTH",
"249 597 OFFCURVE",
"232 569 OFFCURVE",
"203 547 CURVE SMOOTH",
"171 523 OFFCURVE",
"141 507 OFFCURVE",
"110 507 CURVE SMOOTH",
"75 507 OFFCURVE",
"62 514 OFFCURVE"
);
}
);
width = 446;
},
{
layerId = "537B1E8F-B3C8-45B3-90C6-0C31F5F160D0";
name = Light;
paths = (
{
closed = 1;
nodes = (
"68 141 OFFCURVE",
"68 188 OFFCURVE",
"68 224 CURVE SMOOTH",
"68 365 OFFCURVE",
"128 455 OFFCURVE",
"221 460 CURVE SMOOTH",
"285 463 OFFCURVE",
"384 411 OFFCURVE",
"384 207 CURVE SMOOTH",
"384 -21 OFFCURVE",
"353 17 OFFCURVE",
"343 16 CURVE SMOOTH",
"329 14 OFFCURVE",
"321 7 OFFCURVE",
"321 0 CURVE SMOOTH",
"321 -4 OFFCURVE",
"326 -9 OFFCURVE",
"330 -9 CURVE SMOOTH",
"379 -9 OFFCURVE",
"416 113 OFFCURVE",
"416 284 CURVE SMOOTH",
"416 391 OFFCURVE",
"334 473 OFFCURVE",
"228 473 CURVE SMOOTH",
"165 473 OFFCURVE",
"117 441 OFFCURVE",
"73 369 CURVE",
"67 369 LINE",
"58 404 OFFCURVE",
"63 485 OFFCURVE",
"67 496 CURVE",
"213 496 OFFCURVE",
"281 561 OFFCURVE",
"281 653 CURVE SMOOTH",
"281 698 OFFCURVE",
"253 726 OFFCURVE",
"210 726 CURVE SMOOTH",
"166 726 OFFCURVE",
"112 692 OFFCURVE",
"83 646 CURVE SMOOTH",
"51 592 OFFCURVE",
"50 514 OFFCURVE",
"50 441 CURVE SMOOTH",
"50 429 OFFCURVE",
"50 54 OFFCURVE",
"50 34 CURVE SMOOTH",
"50 -3 OFFCURVE",
"59 -18 OFFCURVE",
"83 -18 CURVE SMOOTH",
"100 -18 OFFCURVE",
"104 0 OFFCURVE",
"104 13 CURVE SMOOTH",
"104 49 OFFCURVE",
"71 44 OFFCURVE",
"69 112 CURVE SMOOTH"
);
},
{
closed = 1;
nodes = (
"76 508 OFFCURVE",
"60 516 OFFCURVE",
"60 534 CURVE SMOOTH",
"60 623 OFFCURVE",
"122 699 OFFCURVE",
"198 699 CURVE SMOOTH",
"232 699 OFFCURVE",
"268 665 OFFCURVE",
"268 633 CURVE SMOOTH",
"268 606 OFFCURVE",
"248 576 OFFCURVE",
"217 551 CURVE",
"177 521 OFFCURVE",
"146 508 OFFCURVE",
"115 508 CURVE SMOOTH"
);
}
);
width = 456;
}
);
unicode = 10E9;
},
{
glyphname = "can-georgian";
lastChange = "2017-03-22 19:55:45 +0000";
layers = (
{
backgroundImage = {
crop = "{{0, 0}, {497.75999999999999, 719}}";
imagePath = ts.jpg;
locked = "1";
transform = "{1, 0, 0, 1, 23, -255}";
};
layerId = "CCC4B6D6-30B5-49E5-84BA-D7A51BB31B72";
name = Regular;
paths = (
{
closed = 1;
nodes = (
"506 162 OFFCURVE",
"422 125 OFFCURVE",
"338 125 CURVE SMOOTH",
"308 125 OFFCURVE",
"283 136 OFFCURVE",
"283 157 CURVE SMOOTH",
"283 181 OFFCURVE",
"310 188 OFFCURVE",
"333 188 CURVE SMOOTH",
"385 188 OFFCURVE",
"413 175 OFFCURVE",
"425 169 CURVE",
"455 182 OFFCURVE",
"484 216 OFFCURVE",
"484 248 CURVE SMOOTH",
"484 287 OFFCURVE",
"422 323 OFFCURVE",
"390 341 CURVE SMOOTH",
"367 354 OFFCURVE",
"353 384 OFFCURVE",
"353 409 CURVE SMOOTH",
"353 413 OFFCURVE",
"354 418 OFFCURVE",
"355 422 CURVE SMOOTH",
"360 440 OFFCURVE",
"376 450 OFFCURVE",
"389 450 CURVE SMOOTH",
"404 450 OFFCURVE",
"412 434 OFFCURVE",
"412 425 CURVE SMOOTH",
"412 411 OFFCURVE",
"385 408 OFFCURVE",
"385 390 CURVE SMOOTH",
"385 365 OFFCURVE",
"400 362 OFFCURVE",
"431 341 CURVE SMOOTH",
"479 309 OFFCURVE",
"506 283 OFFCURVE",
"506 244 CURVE SMOOTH"
);
},
{
closed = 1;
nodes = (
"438 162 LINE",
"518 86 OFFCURVE",
"513 87 OFFCURVE",
"513 -7 CURVE SMOOTH",
"513 -122 OFFCURVE",
"412 -243 OFFCURVE",
"306 -243 CURVE SMOOTH",
"127 -243 OFFCURVE",
"41 -98 OFFCURVE",
"40 81 CURVE SMOOTH",
"40 139 OFFCURVE",
"47 208 OFFCURVE",
"65 270 CURVE SMOOTH",
"102 394 OFFCURVE",
"168 461 OFFCURVE",
"193 461 CURVE SMOOTH",
"220 461 OFFCURVE",
"226 445 OFFCURVE",
"226 430 CURVE SMOOTH",
"226 417 OFFCURVE",
"216 400 OFFCURVE",
"197 391 CURVE SMOOTH",
"187 386 OFFCURVE",
"172 388 OFFCURVE",
"162 384 CURVE SMOOTH",
"124 368 OFFCURVE",
"79 231 OFFCURVE",
"78 198 CURVE",
"73 168 OFFCURVE",
"69 139 OFFCURVE",
"69 109 CURVE SMOOTH",
"69 -47 OFFCURVE",
"162 -214 OFFCURVE",
"293 -214 CURVE SMOOTH",
"410 -214 OFFCURVE",
"487 -100 OFFCURVE",
"487 32 CURVE SMOOTH",
"487 73 OFFCURVE",
"450 136 OFFCURVE",
"415 148 CURVE"
);
}
);
width = 553;
},
{
layerId = "537B1E8F-B3C8-45B3-90C6-0C31F5F160D0";
name = Light;
paths = (
{
closed = 1;
nodes = (
"496 -254 OFFCURVE",
"598 47 OFFCURVE",
"451 157 CURVE",
"493 177 OFFCURVE",
"518 211 OFFCURVE",
"518 253 CURVE SMOOTH",
"518 287 OFFCURVE",
"496 317 OFFCURVE",
"440 354 CURVE SMOOTH",
"409 375 OFFCURVE",
"390 376 OFFCURVE",
"390 407 CURVE SMOOTH",
"390 433 OFFCURVE",
"416 436 OFFCURVE",
"416 444 CURVE SMOOTH",
"416 454 OFFCURVE",
"408 463 OFFCURVE",
"400 463 CURVE SMOOTH",
"389 463 OFFCURVE",
"376 453 OFFCURVE",
"373 439 CURVE",
"371 434 OFFCURVE",
"371 430 OFFCURVE",
"371 427 CURVE SMOOTH",
"371 401 OFFCURVE",
"385 374 OFFCURVE",
"405 362 CURVE SMOOTH",
"439 343 OFFCURVE",
"507 303 OFFCURVE",
"507 257 CURVE SMOOTH",
"507 223 OFFCURVE",
"477 181 OFFCURVE",
"438 166 CURVE",
"427 171 OFFCURVE",
"399 187 OFFCURVE",
"341 187 CURVE SMOOTH",
"313 187 OFFCURVE",
"297 177 OFFCURVE",
"297 161 CURVE SMOOTH",
"297 145 OFFCURVE",
"316 135 OFFCURVE",
"346 135 CURVE SMOOTH",
"381 135 OFFCURVE",
"411 140 OFFCURVE",
"438 152 CURVE",
"474 131 OFFCURVE",
"509 72 OFFCURVE",
"509 29 CURVE SMOOTH",
"509 -123 OFFCURVE",
"421 -238 OFFCURVE",
"299 -238 CURVE SMOOTH",
"155 -238 OFFCURVE",
"54 -56 OFFCURVE",
"54 111 CURVE SMOOTH",
"54 142 OFFCURVE",
"58 174 OFFCURVE",
"63 206 CURVE",
"63 205 LINE",
"64 241 OFFCURVE",
"113 389 OFFCURVE",
"157 407 CURVE",
"169 413 OFFCURVE",
"185 411 OFFCURVE",
"193 415 CURVE SMOOTH",
"209 422 OFFCURVE",
"220 437 OFFCURVE",
"220 450 CURVE SMOOTH",
"220 467 OFFCURVE",
"212 475 OFFCURVE",
"193 475 CURVE SMOOTH",
"171 475 OFFCURVE",
"104 408 OFFCURVE",
"66 279 CURVE SMOOTH",
"47 214 OFFCURVE",
"40 142 OFFCURVE",
"40 81 CURVE SMOOTH",
"40 -125 OFFCURVE",
"146 -254 OFFCURVE",
"313 -254 CURVE SMOOTH"
);
}
);
width = 561;
}
);
unicode = 10EA;
},
{
glyphname = "jil-georgian";
lastChange = "2017-03-22 19:55:27 +0000";
layers = (
{
backgroundImage = {
crop = "{{0, 0}, {388.56, 720}}";
imagePath = dz.jpg;
locked = "1";
transform = "{1.021, 0, 0, 1.021, 28, -12}";
};
layerId = "CCC4B6D6-30B5-49E5-84BA-D7A51BB31B72";
name = Regular;
paths = (
{
closed = 1;
nodes = (
"372 -12 OFFCURVE",
"410 126 OFFCURVE",
"410 351 CURVE SMOOTH",
"410 390 OFFCURVE",
"409 431 OFFCURVE",
"407 475 CURVE SMOOTH",
"403 584 OFFCURVE",
"399 645 OFFCURVE",
"371 676 CURVE SMOOTH",
"352 698 OFFCURVE",
"331 719 OFFCURVE",
"307 719 CURVE SMOOTH",
"292 719 OFFCURVE",
"283 701 OFFCURVE",
"283 687 CURVE SMOOTH",
"283 668 OFFCURVE",
"324 655 OFFCURVE",
"344 650 CURVE SMOOTH",
"374 643 OFFCURVE",
"386 586 OFFCURVE",
"386 379 CURVE",
"383 379 LINE",
"352 438 OFFCURVE",
"294 484 OFFCURVE",
"226 484 CURVE SMOOTH",
"120 484 OFFCURVE",
"40 361 OFFCURVE",
"40 239 CURVE SMOOTH",
"40 110 OFFCURVE",
"91 -12 OFFCURVE",
"206 -12 CURVE SMOOTH"
);
},
{
closed = 1;
nodes = (
"119 13 OFFCURVE",
"70 106 OFFCURVE",
"70 239 CURVE SMOOTH",
"70 361 OFFCURVE",
"142 459 OFFCURVE",
"233 459 CURVE SMOOTH",
"332 459 OFFCURVE",
"383 359 OFFCURVE",
"383 239 CURVE SMOOTH",
"383 117 OFFCURVE",
"295 13 OFFCURVE",
"206 13 CURVE SMOOTH"
);
}
);
width = 465;
},
{
layerId = "537B1E8F-B3C8-45B3-90C6-0C31F5F160D0";
name = Light;
paths = (
{
closed = 1;
nodes = (
"351 -17 OFFCURVE",
"407 87 OFFCURVE",
"407 352 CURVE SMOOTH",
"407 391 OFFCURVE",
"406 434 OFFCURVE",
"404 480 CURVE SMOOTH",
"398 593 OFFCURVE",
"395 653 OFFCURVE",
"368 684 CURVE SMOOTH",
"341 714 OFFCURVE",
"325 726 OFFCURVE",
"308 726 CURVE SMOOTH",
"300 726 OFFCURVE",
"292 714 OFFCURVE",
"292 700 CURVE SMOOTH",
"292 690 OFFCURVE",
"315 677 OFFCURVE",
"349 669 CURVE SMOOTH",
"392 659 OFFCURVE",
"392 589 OFFCURVE",
"392 374 CURVE",
"389 374 LINE",
"351 438 OFFCURVE",
"289 483 OFFCURVE",
"224 483 CURVE SMOOTH",
"126 483 OFFCURVE",
"40 368 OFFCURVE",
"40 236 CURVE SMOOTH",
"40 83 OFFCURVE",
"104 -17 OFFCURVE",
"204 -17 CURVE SMOOTH"
);
},
{
closed = 1;
nodes = (
"111 1 OFFCURVE",
"61 89 OFFCURVE",
"61 236 CURVE SMOOTH",
"61 367 OFFCURVE",
"133 466 OFFCURVE",
"232 466 CURVE SMOOTH",
"331 466 OFFCURVE",
"388 378 OFFCURVE",
"388 236 CURVE SMOOTH",
"388 110 OFFCURVE",
"304 1 OFFCURVE",
"204 1 CURVE SMOOTH"
);
}
);
width = 457;
}
);
unicode = 10EB;
},
{
glyphname = "cil-georgian";
lastChange = "2017-03-21 22:37:52 +0000";
layers = (
{
backgroundImage = {
crop = "{{0, 0}, {292.31999999999999, 723.60000000000002}}";
imagePath = w;
locked = "1";
transform = "{1.435, 0, 0, 1.435, 23, -302}";
};
layerId = "CCC4B6D6-30B5-49E5-84BA-D7A51BB31B72";
name = Regular;
paths = (
{
closed = 1;
nodes = (
"258 683 LINE",
"274 683 LINE",
"285 691 OFFCURVE",
"302 719 OFFCURVE",
"338 719 CURVE SMOOTH",
"367 719 OFFCURVE",
"389 705 OFFCURVE",
"403 685 CURVE SMOOTH",
"416 667 OFFCURVE",
"423 644 OFFCURVE",
"423 621 CURVE SMOOTH",
"423 602 OFFCURVE",
"417 560 OFFCURVE",
"396 560 CURVE SMOOTH",
"391 560 OFFCURVE",
"388 567 OFFCURVE",
"388 572 CURVE SMOOTH",
"388 584 OFFCURVE",
"397 601 OFFCURVE",
"397 621 CURVE SMOOTH",
"397 640 OFFCURVE",
"393 657 OFFCURVE",
"384 669 CURVE SMOOTH",
"373 683 OFFCURVE",
"353 689 OFFCURVE",
"335 689 CURVE SMOOTH",
"312 689 OFFCURVE",
"289 657 OFFCURVE",
"285 642 CURVE"
);
},
{
closed = 1;
nodes = (
"97 -14 LINE",
"101 -15 LINE",
"161 30 OFFCURVE",
"283 179 OFFCURVE",
"301 288 CURVE SMOOTH",
"303 300 OFFCURVE",
"304 311 OFFCURVE",
"304 322 CURVE SMOOTH",
"304 380 OFFCURVE",
"271 441 OFFCURVE",
"221 441 CURVE SMOOTH",
"173 441 OFFCURVE",
"117 380 OFFCURVE",
"117 377 CURVE SMOOTH"
);
},
{
closed = 1;
nodes = (
"294 677 OFFCURVE",
"294 625 CURVE SMOOTH",
"294 607 OFFCURVE",
"279 594 OFFCURVE",
"263 594 CURVE SMOOTH",
"251 594 OFFCURVE",
"237 601 OFFCURVE",
"237 620 CURVE SMOOTH",
"237 638 OFFCURVE",
"254 638 OFFCURVE",
"254 649 CURVE SMOOTH",
"254 674 OFFCURVE",
"223 692 OFFCURVE",
"193 692 CURVE SMOOTH",
"113 692 OFFCURVE",
"117 536 OFFCURVE",
"115 430 CURVE SMOOTH",
"115 424 OFFCURVE",
"116 418 OFFCURVE",
"117 414 CURVE",
"119 414 LINE",
"138 435 OFFCURVE",
"184 470 OFFCURVE",
"239 470 CURVE SMOOTH",
"307 470 OFFCURVE",
"341 409 OFFCURVE",
"341 339 CURVE SMOOTH",
"341 295 OFFCURVE",
"328 250 OFFCURVE",
"303 203 CURVE SMOOTH",
"257 117 OFFCURVE",
"175 24 OFFCURVE",
"105 -32 CURVE SMOOTH",
"95 -40 OFFCURVE",
"97 -49 OFFCURVE",
"96 -60 CURVE SMOOTH",
"96 -64 OFFCURVE",
"96 -72 OFFCURVE",
"96 -76 CURVE SMOOTH",
"96 -130 OFFCURVE",
"116 -160 OFFCURVE",
"116 -220 CURVE SMOOTH",
"116 -250 OFFCURVE",
"109 -294 OFFCURVE",
"82 -294 CURVE SMOOTH",
"63 -294 OFFCURVE",
"55 -269 OFFCURVE",
"55 -225 CURVE SMOOTH",
"55 -170 OFFCURVE",
"70 -85 OFFCURVE",
"74 16 CURVE SMOOTH",
"82 198 OFFCURVE",
"83 218 OFFCURVE",
"87 292 CURVE SMOOTH",
"103 596 OFFCURVE",
"101 722 OFFCURVE",
"199 722 CURVE SMOOTH",
"240 722 OFFCURVE"
);
}
);
width = 463;
},
{
layerId = "537B1E8F-B3C8-45B3-90C6-0C31F5F160D0";
name = Light;
paths = (
{
closed = 1;
nodes = (
"85 -320 OFFCURVE",
"97 -292 OFFCURVE",
"97 -250 CURVE SMOOTH",
"97 -189 OFFCURVE",
"76 -157 OFFCURVE",
"76 -100 CURVE SMOOTH",
"76 -83 LINE",
"76 -82 LINE",
"77 -72 OFFCURVE",
"74 -59 OFFCURVE",
"89 -49 CURVE",
"161 9 OFFCURVE",
"246 105 OFFCURVE",
"293 194 CURVE SMOOTH",
"319 243 OFFCURVE",
"332 289 OFFCURVE",
"332 333 CURVE SMOOTH",
"332 411 OFFCURVE",
"292 462 OFFCURVE",
"234 462 CURVE SMOOTH",
"194 462 OFFCURVE",
"144 434 OFFCURVE",
"100 396 CURVE",
"100 406 LINE",
"105 533 OFFCURVE",
"105 708 OFFCURVE",
"186 708 CURVE SMOOTH",
"224 708 OFFCURVE",
"258 684 OFFCURVE",
"258 656 CURVE SMOOTH",
"258 633 OFFCURVE",
"240 644 OFFCURVE",
"240 626 CURVE SMOOTH",
"240 613 OFFCURVE",
"247 606 OFFCURVE",
"259 606 CURVE SMOOTH",
"272 606 OFFCURVE",
"283 618 OFFCURVE",
"283 631 CURVE SMOOTH",
"283 641 OFFCURVE",
"281 651 OFFCURVE",
"277 659 CURVE",
"290 685 OFFCURVE",
"314 705 OFFCURVE",
"334 705 CURVE SMOOTH",
"358 705 OFFCURVE",
"380 696 OFFCURVE",
"391 681 CURVE SMOOTH",
"402 668 OFFCURVE",
"407 649 OFFCURVE",
"407 627 CURVE SMOOTH",
"407 605 OFFCURVE",
"397 586 OFFCURVE",
"397 576 CURVE SMOOTH",
"397 570 OFFCURVE",
"400 571 OFFCURVE",
"397 571 CURVE",
"408 571 OFFCURVE",
"417 598 OFFCURVE",
"417 627 CURVE SMOOTH",
"417 650 OFFCURVE",
"410 673 OFFCURVE",
"398 690 CURVE",
"383 710 OFFCURVE",
"362 722 OFFCURVE",
"337 722 CURVE SMOOTH",
"301 722 OFFCURVE",
"287 693 OFFCURVE",
"273 684 CURVE",
"263 684 LINE",
"244 708 OFFCURVE",
"215 725 OFFCURVE",
"192 725 CURVE SMOOTH",
"98 725 OFFCURVE",
"100 601 OFFCURVE",
"83 284 CURVE SMOOTH",
"79 207 OFFCURVE",
"77 186 OFFCURVE",
"70 -4 CURVE SMOOTH",
"66 -110 OFFCURVE",
"50 -199 OFFCURVE",
"50 -256 CURVE SMOOTH",
"50 -298 OFFCURVE",
"57 -320 OFFCURVE",
"70 -320 CURVE SMOOTH"
);
},
{
closed = 1;
nodes = (
"79 -41 CURVE",
"100 372 LINE",
"100 378 OFFCURVE",
"161 446 OFFCURVE",
"215 446 CURVE SMOOTH",
"267 446 OFFCURVE",
"310 387 OFFCURVE",
"310 315 CURVE SMOOTH",
"310 303 OFFCURVE",
"309 291 OFFCURVE",
"307 279 CURVE SMOOTH",
"291 186 OFFCURVE",
"174 24 OFFCURVE"
);
}
);
width = 457;
}
);
unicode = 10EC;
},
{
glyphname = "char-georgian";
lastChange = "2017-03-22 19:14:55 +0000";
layers = (
{
backgroundImage = {
crop = "{{0, 0}, {700.07999999999993, 723.60000000000002}}";
imagePath = W.jpg;
locked = "1";
transform = "{1.366, 0, 0, 1.366, -136, -258}";
};
layerId = "CCC4B6D6-30B5-49E5-84BA-D7A51BB31B72";
name = Regular;
paths = (
{
closed = 1;
nodes = (
"522 -30 OFFCURVE",
"531 -22 OFFCURVE",
"531 -9 CURVE SMOOTH",
"531 51 OFFCURVE",
"390 164 OFFCURVE",
"326 228 CURVE",
"326 230 LINE",
"342 237 OFFCURVE",
"408 277 OFFCURVE",
"462 317 CURVE SMOOTH",
"509 352 OFFCURVE",
"539 384 OFFCURVE",
"539 414 CURVE SMOOTH",
"539 451 OFFCURVE",
"491 475 OFFCURVE",
"434 475 CURVE SMOOTH",
"414 475 OFFCURVE",
"385 473 OFFCURVE",
"385 459 CURVE SMOOTH",
"385 457 OFFCURVE",
"387 452 OFFCURVE",
"390 452 CURVE SMOOTH",
"401 452 OFFCURVE",
"410 457 OFFCURVE",
"418 457 CURVE SMOOTH",
"454 457 OFFCURVE",
"490 450 OFFCURVE",
"490 409 CURVE SMOOTH",
"490 373 OFFCURVE",
"457 339 OFFCURVE",
"394 289 CURVE SMOOTH",
"360 262 OFFCURVE",
"326 237 OFFCURVE",
"317 237 CURVE SMOOTH",
"297 237 OFFCURVE",
"245 348 OFFCURVE",
"147 348 CURVE SMOOTH",
"93 348 OFFCURVE",
"40 315 OFFCURVE",
"40 244 CURVE SMOOTH",
"40 168 OFFCURVE",
"100 138 OFFCURVE",
"151 138 CURVE SMOOTH",
"188 138 OFFCURVE",
"231 166 OFFCURVE",
"311 212 CURVE",
"314 212 LINE",
"362 191 OFFCURVE",
"464 -30 OFFCURVE",
"515 -30 CURVE SMOOTH"
);
},
{
closed = 1;
nodes = (
"68 156 OFFCURVE",
"68 235 OFFCURVE",
"68 246 CURVE SMOOTH",
"68 258 OFFCURVE",
"82 328 OFFCURVE",
"156 330 CURVE",
"229 326 OFFCURVE",
"273 250 OFFCURVE",
"288 230 CURVE",
"288 217 LINE",
"199 168 OFFCURVE",
"193 156 OFFCURVE",
"147 156 CURVE SMOOTH"
);
},
{
closed = 1;
nodes = (
"304 -250 OFFCURVE",
"314 -229 OFFCURVE",
"314 -204 CURVE SMOOTH",
"314 -100 OFFCURVE",
"302 -60 OFFCURVE",
"302 36 CURVE SMOOTH",
"302 102 OFFCURVE",
"317 338 OFFCURVE",
"317 356 CURVE SMOOTH",
"317 380 OFFCURVE",
"327 579 OFFCURVE",
"331 611 CURVE SMOOTH",
"335 643 OFFCURVE",
"354 651 OFFCURVE",
"354 677 CURVE SMOOTH",
"354 691 OFFCURVE",
"350 720 OFFCURVE",
"329 720 CURVE SMOOTH",
"310 720 OFFCURVE",
"299 705 OFFCURVE",
"299 679 CURVE SMOOTH",
"299 660 OFFCURVE",
"306 643 OFFCURVE",
"306 633 CURVE SMOOTH",
"306 506 OFFCURVE",
"299 357 OFFCURVE",
"291 223 CURVE SMOOTH",
"277 -6 OFFCURVE",
"255 -186 OFFCURVE",
"255 -204 CURVE SMOOTH",
"255 -224 OFFCURVE",
"260 -250 OFFCURVE",
"286 -250 CURVE SMOOTH"
);
}
);
width = 609;
},
{
layerId = "537B1E8F-B3C8-45B3-90C6-0C31F5F160D0";
name = Light;
paths = (
{
closed = 1;
nodes = (
"40 168 OFFCURVE",
"100 138 OFFCURVE",
"151 138 CURVE SMOOTH",
"184.545 138 OFFCURVE",
"223.021 161.015 OFFCURVE",
"289.531 199.592 CURVE",
"275.515 -18.168 OFFCURVE",
"255 -186.618 OFFCURVE",
"255 -204 CURVE SMOOTH",
"255 -224 OFFCURVE",
"260 -250 OFFCURVE",
"286 -250 CURVE SMOOTH",
"304 -250 OFFCURVE",
"314 -229 OFFCURVE",
"314 -204 CURVE SMOOTH",
"314 -100 OFFCURVE",
"302 -60 OFFCURVE",
"302 36 CURVE SMOOTH",
"302 68.533 OFFCURVE",
"305.645 142.371 OFFCURVE",
"309.341 211.045 CURVE",
"311 212 LINE",
"314 212 LINE",
"362 191 OFFCURVE",
"464 -30 OFFCURVE",
"515 -30 CURVE SMOOTH",
"522 -30 OFFCURVE",
"531 -22 OFFCURVE",
"531 -9 CURVE SMOOTH",
"531 51 OFFCURVE",
"390 164 OFFCURVE",
"326 228 CURVE",
"326 230 LINE",
"342 237 OFFCURVE",
"408 277 OFFCURVE",
"462 317 CURVE SMOOTH",
"509 352 OFFCURVE",
"539 384 OFFCURVE",
"539 414 CURVE SMOOTH",
"539 451 OFFCURVE",
"491 475 OFFCURVE",
"434 475 CURVE SMOOTH",
"414 475 OFFCURVE",
"385 473 OFFCURVE",
"385 459 CURVE SMOOTH",
"385 457 OFFCURVE",
"387 452 OFFCURVE",
"390 452 CURVE SMOOTH",
"401 452 OFFCURVE",
"410 457 OFFCURVE",
"418 457 CURVE SMOOTH",
"454 457 OFFCURVE",
"490 450 OFFCURVE",
"490 409 CURVE SMOOTH",
"490 373 OFFCURVE",
"457 339 OFFCURVE",
"394 289 CURVE SMOOTH",
"360 262 OFFCURVE",
"326 237 OFFCURVE",
"317 237 CURVE SMOOTH",
"315.219 237 OFFCURVE",
"313.185 237.88 OFFCURVE",
"310.888 239.483 CURVE",
"314.122 298.409 OFFCURVE",
"317 348.116 OFFCURVE",
"317 356 CURVE SMOOTH",
"317 380 OFFCURVE",
"327 579 OFFCURVE",
"331 611 CURVE SMOOTH",
"335 643 OFFCURVE",
"354 651 OFFCURVE",
"354 677 CURVE SMOOTH",
"354 691 OFFCURVE",
"350 720 OFFCURVE",
"329 720 CURVE SMOOTH",
"310 720 OFFCURVE",
"299 705 OFFCURVE",
"299 679 CURVE SMOOTH",
"299 660 OFFCURVE",
"306 643 OFFCURVE",
"306 633 CURVE SMOOTH",
"306 516.8 OFFCURVE",
"300.14 382.184 OFFCURVE",
"293.016 257.49 CURVE",
"264.996 289.563 OFFCURVE",
"218.106 348 OFFCURVE",
"147 348 CURVE SMOOTH",
"93 348 OFFCURVE",
"40 315 OFFCURVE",
"40 244 CURVE SMOOTH"
);
},
{
closed = 1;
nodes = (
"68 258 OFFCURVE",
"82 328 OFFCURVE",
"156 330 CURVE",
"229 326 OFFCURVE",
"273 250 OFFCURVE",
"288 230 CURVE",
"288 217 LINE",
"199 168 OFFCURVE",
"193 156 OFFCURVE",
"147 156 CURVE SMOOTH",
"68 156 OFFCURVE",
"68 235 OFFCURVE",
"68 246 CURVE SMOOTH"
);
}
);
width = 579;
}
);
unicode = 10ED;
},
{
glyphname = "xan-georgian";
lastChange = "2017-03-22 20:28:55 +0000";
layers = (
{
backgroundImage = {
crop = "{{0, 0}, {377.27999999999997, 723.60000000000002}}";
imagePath = x.jpg;
locked = "1";
transform = "{1.028, 0, 0, 1.028, 37, -18}";
};
layerId = "CCC4B6D6-30B5-49E5-84BA-D7A51BB31B72";
name = Regular;
paths = (
{
closed = 1;
nodes = (
"364 -12 OFFCURVE",
"410 72 OFFCURVE",
"410 155 CURVE SMOOTH",
"410 240 OFFCURVE",
"360 292 OFFCURVE",
"294 333 CURVE SMOOTH",
"265 351 OFFCURVE",
"249 361 OFFCURVE",
"249 384 CURVE SMOOTH",
"249 399 OFFCURVE",
"255 436 OFFCURVE",
"270 436 CURVE SMOOTH",
"277 436 OFFCURVE",
"285 433 OFFCURVE",
"292 433 CURVE SMOOTH",
"299 433 OFFCURVE",
"306 444 OFFCURVE",
"306 455 CURVE SMOOTH",
"306 465 OFFCURVE",
"299 476 OFFCURVE",
"273 476 CURVE SMOOTH",
"248 476 OFFCURVE",
"220 432 OFFCURVE",
"220 395 CURVE SMOOTH",
"220 358 OFFCURVE",
"242 332 OFFCURVE",
"245 322 CURVE",
"243 321 LINE",
"232 326 OFFCURVE",
"206 327 OFFCURVE",
"190 327 CURVE SMOOTH",
"158 327 OFFCURVE",
"129 314 OFFCURVE",
"97 278 CURVE",
"93 278 LINE",
"89 282 OFFCURVE",
"88 294 OFFCURVE",
"88 313 CURVE SMOOTH",
"88 393 OFFCURVE",
"115 563 OFFCURVE",
"115 667 CURVE SMOOTH",
"115 698 OFFCURVE",
"105 721 OFFCURVE",
"83 721 CURVE SMOOTH",
"69 721 OFFCURVE",
"61 710 OFFCURVE",
"61 696 CURVE SMOOTH",
"61 685 OFFCURVE",
"72 677 OFFCURVE",
"80 664 CURVE SMOOTH",
"84 657 OFFCURVE",
"86 640 OFFCURVE",
"86 617 CURVE SMOOTH",
"86 517 OFFCURVE",
"55 296 OFFCURVE",
"55 196 CURVE SMOOTH",
"55 122 OFFCURVE",
"59 74 OFFCURVE",
"93 37 CURVE SMOOTH",
"125 2 OFFCURVE",
"199 -12 OFFCURVE",
"236 -12 CURVE SMOOTH"
);
},
{
closed = 1;
nodes = (
"157 7 OFFCURVE",
"83 108 OFFCURVE",
"83 191 CURVE SMOOTH",
"83 266 OFFCURVE",
"143 307 OFFCURVE",
"208 307 CURVE SMOOTH",
"246 307 OFFCURVE",
"287 293 OFFCURVE",
"318 262 CURVE SMOOTH",
"351 230 OFFCURVE",
"381 175 OFFCURVE",
"381 141 CURVE SMOOTH",
"381 58 OFFCURVE",
"315 7 OFFCURVE",
"236 7 CURVE SMOOTH"
);
}
);
width = 450;
},
{
layerId = "537B1E8F-B3C8-45B3-90C6-0C31F5F160D0";
name = Light;
paths = (
{
closed = 1;
nodes = (
"336 -13 OFFCURVE",
"400 47 OFFCURVE",
"400 149 CURVE SMOOTH",
"400 233 OFFCURVE",
"351 285 OFFCURVE",
"284 326 CURVE SMOOTH",
"254 345 OFFCURVE",
"234 357 OFFCURVE",
"234 385 CURVE SMOOTH",
"234 417 OFFCURVE",
"245 446 OFFCURVE",
"263 446 CURVE SMOOTH",
"272 446 OFFCURVE",
"281 443 OFFCURVE",
"286 443 CURVE SMOOTH",
"287 443 OFFCURVE",
"292 451 OFFCURVE",
"292 458 CURVE SMOOTH",
"292 467 OFFCURVE",
"284 472 OFFCURVE",
"267 472 CURVE SMOOTH",
"246 472 OFFCURVE",
"220 430 OFFCURVE",
"220 396 CURVE SMOOTH",
"220 360 OFFCURVE",
"242 334 OFFCURVE",
"246 323 CURVE",
"245 321 LINE",
"169 329 OFFCURVE",
"115 318 OFFCURVE",
"73 268 CURVE",
"71 268 LINE",
"74 348 OFFCURVE",
"97 660 OFFCURVE",
"97 677 CURVE SMOOTH",
"97 707 OFFCURVE",
"86 725 OFFCURVE",
"71 725 CURVE SMOOTH",
"62 725 OFFCURVE",
"56 718 OFFCURVE",
"56 706 CURVE SMOOTH",
"56 698 OFFCURVE",
"66 691 OFFCURVE",
"75 678 CURVE",
"80 668 OFFCURVE",
"82 651 OFFCURVE",
"82 625 CURVE SMOOTH",
"82 522 OFFCURVE",
"50 294 OFFCURVE",
"50 191 CURVE SMOOTH",
"50 53 OFFCURVE",
"99 -20 OFFCURVE",
"228 -16 CURVE SMOOTH"
);
},
{
closed = 1;
nodes = (
"147 -3 OFFCURVE",
"67 91 OFFCURVE",
"67 186 CURVE SMOOTH",
"67 260 OFFCURVE",
"119 308 OFFCURVE",
"199 308 CURVE SMOOTH",
"245 308 OFFCURVE",
"288 295 OFFCURVE",
"319 264 CURVE SMOOTH",
"356 227 OFFCURVE",
"386 170 OFFCURVE",
"386 134 CURVE SMOOTH",
"386 50 OFFCURVE",
"319 -3 OFFCURVE",
"228 -3 CURVE SMOOTH"
);
}
);
width = 440;
}
);
unicode = 10EE;
},
{
glyphname = "jhan-georgian";
lastChange = "2017-03-22 19:54:06 +0000";
layers = (
{
backgroundImage = {
crop = "{{0, 0}, {555.84000000000003, 723.60000000000002}}";
imagePath = jj.jpg;
locked = "1";
transform = "{1.033, 0, 0, 1.023, 14, -258}";
};
layerId = "CCC4B6D6-30B5-49E5-84BA-D7A51BB31B72";
name = Regular;
paths = (
{
closed = 1;
nodes = (
"103 406 OFFCURVE",
"103 390 OFFCURVE",
"99 385 CURVE",
"97 382 OFFCURVE",
"94 382 OFFCURVE",
"92 382 CURVE",
"85 383 OFFCURVE",
"78 395 OFFCURVE",
"78 413 CURVE SMOOTH",
"78 434 OFFCURVE",
"93 446 OFFCURVE",
"114 446 CURVE SMOOTH",
"167 446 OFFCURVE",
"203 351 OFFCURVE",
"251 256 CURVE SMOOTH",
"252 254 OFFCURVE",
"253 250 OFFCURVE",
"253 247 CURVE SMOOTH",
"253 243 OFFCURVE",
"252 241 OFFCURVE",
"249 238 CURVE SMOOTH",
"214 204 OFFCURVE",
"176 137 OFFCURVE",
"147 105 CURVE SMOOTH",
"131 88 OFFCURVE",
"52 83 OFFCURVE",
"52 23 CURVE SMOOTH",
"52 14 OFFCURVE",
"57 2 OFFCURVE",
"76 2 CURVE SMOOTH",
"112 2 OFFCURVE",
"134 83 OFFCURVE",
"170 83 CURVE SMOOTH",
"200 83 OFFCURVE",
"234 59 OFFCURVE",
"234 21 CURVE SMOOTH",
"234 -69 OFFCURVE",
"163 -167 OFFCURVE",
"40 -223 CURVE",
"48 -249 LINE",
"110 -203 OFFCURVE",
"273 -121 OFFCURVE",
"273 14 CURVE SMOOTH",
"273 56 OFFCURVE",
"238 109 OFFCURVE",
"197 109 CURVE SMOOTH",
"192 109 OFFCURVE",
"185 107 OFFCURVE",
"180 105 CURVE",
"179 106 LINE",
"179 124 OFFCURVE",
"229 182 OFFCURVE",
"263 224 CURVE",
"266 224 LINE",
"365 25 OFFCURVE",
"377 -21 OFFCURVE",
"464 -21 CURVE SMOOTH",
"530 -21 OFFCURVE",
"564 39 OFFCURVE",
"564 117 CURVE SMOOTH",
"564 149 OFFCURVE",
"557 174 OFFCURVE",
"544 174 CURVE SMOOTH",
"532 174 OFFCURVE",
"530 169 OFFCURVE",
"530 162 CURVE SMOOTH",
"530 149 OFFCURVE",
"542 138 OFFCURVE",
"542 112 CURVE SMOOTH",
"542 57 OFFCURVE",
"508 16 OFFCURVE",
"468 16 CURVE SMOOTH",
"459 16 OFFCURVE",
"447 17 OFFCURVE",
"437 23 CURVE SMOOTH",
"385 54 OFFCURVE",
"311 163 OFFCURVE",
"286 238 CURVE SMOOTH",
"285 241 OFFCURVE",
"283 244 OFFCURVE",
"283 247 CURVE SMOOTH",
"283 249 OFFCURVE",
"284 252 OFFCURVE",
"288 256 CURVE SMOOTH",
"323 292 OFFCURVE",
"433 398 OFFCURVE",
"433 430 CURVE SMOOTH",
"433 450 OFFCURVE",
"419 459 OFFCURVE",
"403 459 CURVE SMOOTH",
"388 459 OFFCURVE",
"373 449 OFFCURVE",
"366 427 CURVE SMOOTH",
"360 407 OFFCURVE",
"316 345 OFFCURVE",
"271 279 CURVE",
"267 279 LINE",
"226 354 OFFCURVE",
"185 469 OFFCURVE",
"118 469 CURVE SMOOTH",
"80 469 OFFCURVE",
"52 442 OFFCURVE",
"52 408 CURVE SMOOTH",
"52 372 OFFCURVE",
"75 345 OFFCURVE",
"116 345 CURVE SMOOTH",
"134 345 OFFCURVE",
"149 354 OFFCURVE",
"149 383 CURVE SMOOTH",
"149 398 OFFCURVE",
"142 404 OFFCURVE",
"134 405 CURVE SMOOTH",
"131 406 OFFCURVE",
"128 406 OFFCURVE",
"125 406 CURVE SMOOTH"
);
}
);
width = 604;
},
{
layerId = "537B1E8F-B3C8-45B3-90C6-0C31F5F160D0";
name = Light;
paths = (
{
closed = 1;
nodes = (
"102 407 OFFCURVE",
"104 395 OFFCURVE",
"98 388 CURVE",
"99 388 LINE",
"94 381 OFFCURVE",
"85 382 OFFCURVE",
"84 382 CURVE",
"70 383 OFFCURVE",
"62 399 OFFCURVE",
"62 421 CURVE SMOOTH",
"62 446 OFFCURVE",
"80 463 OFFCURVE",
"107 463 CURVE SMOOTH",
"169 463 OFFCURVE",
"208 359 OFFCURVE",
"257 261 CURVE SMOOTH",
"259 257 OFFCURVE",
"260 253 OFFCURVE",
"260 249 CURVE SMOOTH",
"260 243 OFFCURVE",
"258 239 OFFCURVE",
"254 234 CURVE",
"219 200 OFFCURVE",
"180 129 OFFCURVE",
"148 96 CURVE SMOOTH",
"129 76 OFFCURVE",
"51 73 OFFCURVE",
"51 16 CURVE SMOOTH",
"51 7 OFFCURVE",
"58 2 OFFCURVE",
"68 2 CURVE SMOOTH",
"99 2 OFFCURVE",
"122 86 OFFCURVE",
"166 86 CURVE SMOOTH",
"206 86 OFFCURVE",
"240 54 OFFCURVE",
"240 14 CURVE SMOOTH",
"240 -85 OFFCURVE",
"161 -185 OFFCURVE",
"40 -243 CURVE",
"44 -254 LINE",
"114 -205 OFFCURVE",
"264 -123 OFFCURVE",
"264 7 CURVE SMOOTH",
"264 51 OFFCURVE",
"214 97 OFFCURVE",
"164 98 CURVE",
"164 101 OFFCURVE",
"186 148 OFFCURVE",
"262 232 CURVE",
"265 232 LINE",
"377 19 OFFCURVE",
"390 -22 OFFCURVE",
"471 -22 CURVE SMOOTH",
"529 -22 OFFCURVE",
"566 30 OFFCURVE",
"566 114 CURVE SMOOTH",
"566 143 OFFCURVE",
"559 166 OFFCURVE",
"554 166 CURVE SMOOTH",
"548 166 OFFCURVE",
"548 166 OFFCURVE",
"548 160 CURVE SMOOTH",
"548 149 OFFCURVE",
"560 138 OFFCURVE",
"560 109 CURVE SMOOTH",
"560 49 OFFCURVE",
"523 2 OFFCURVE",
"475 2 CURVE SMOOTH",
"461 2 OFFCURVE",
"448 5 OFFCURVE",
"439 10 CURVE SMOOTH",
"384 40 OFFCURVE",
"306 154 OFFCURVE",
"278 237 CURVE SMOOTH",
"277 240 OFFCURVE",
"275 244 OFFCURVE",
"275 249 CURVE SMOOTH",
"275 254 OFFCURVE",
"277 258 OFFCURVE",
"282 263 CURVE SMOOTH",
"319 301 OFFCURVE",
"430 409 OFFCURVE",
"430 439 CURVE SMOOTH",
"430 453 OFFCURVE",
"422 462 OFFCURVE",
"408 462 CURVE SMOOTH",
"394 462 OFFCURVE",
"383 451 OFFCURVE",
"377 434 CURVE",
"369 409 OFFCURVE",
"334 359 OFFCURVE",
"271 275 CURVE",
"266 275 LINE",
"217 358 OFFCURVE",
"173 472 OFFCURVE",
"112 472 CURVE SMOOTH",
"77 472 OFFCURVE",
"51 448 OFFCURVE",
"51 416 CURVE SMOOTH",
"51 381 OFFCURVE",
"74 358 OFFCURVE",
"110 358 CURVE SMOOTH",
"127 358 OFFCURVE",
"136 368 OFFCURVE",
"136 390 CURVE SMOOTH",
"136 400 OFFCURVE",
"132 406 OFFCURVE",
"126 406 CURVE",
"124 407 OFFCURVE",
"122 407 OFFCURVE",
"119 407 CURVE SMOOTH"
);
}
);
width = 606;
}
);
unicode = 10EF;
},
{
glyphname = "hae-georgian";
lastChange = "2017-03-22 15:28:15 +0000";
layers = (
{
backgroundImage = {
crop = "{{0, 0}, {342.47999999999996, 723.60000000000002}}";
imagePath = h.psd;
locked = "1";
transform = "{1.040, 0, 0, 1.040, 0, -22}";
};
layerId = "CCC4B6D6-30B5-49E5-84BA-D7A51BB31B72";
name = Regular;
paths = (
{
closed = 1;
nodes = (
"115 719 OFFCURVE",
"92 694 OFFCURVE",
"92 663 CURVE SMOOTH",
"92 626 OFFCURVE",
"119 619 OFFCURVE",
"134 619 CURVE SMOOTH",
"154 619 OFFCURVE",
"144 631 OFFCURVE",
"165 631 CURVE SMOOTH",
"217 631 OFFCURVE",
"291 596 OFFCURVE",
"291 537 CURVE SMOOTH",
"291 504 OFFCURVE",
"262 469 OFFCURVE",
"238 469 CURVE SMOOTH",
"223 469 OFFCURVE",
"193 477 OFFCURVE",
"165 477 CURVE SMOOTH",
"138 477 OFFCURVE",
"115 466 OFFCURVE",
"115 447 CURVE SMOOTH",
"115 428 OFFCURVE",
"134 414 OFFCURVE",
"173 414 CURVE SMOOTH",
"240 414 OFFCURVE",
"247 435 OFFCURVE",
"257 435 CURVE SMOOTH",
"275 435 OFFCURVE",
"294 405 OFFCURVE",
"294 350 CURVE SMOOTH",
"294 328 OFFCURVE",
"276 280 OFFCURVE",
"245 280 CURVE SMOOTH",
"222 280 OFFCURVE",
"211 294 OFFCURVE",
"176 294 CURVE SMOOTH",
"138 294 OFFCURVE",
"102 283 OFFCURVE",
"102 258 CURVE SMOOTH",
"102 237 OFFCURVE",
"138 221 OFFCURVE",
"178 221 CURVE SMOOTH",
"217 221 OFFCURVE",
"223 241 OFFCURVE",
"248 241 CURVE SMOOTH",
"284 241 OFFCURVE",
"301 196 OFFCURVE",
"301 154 CURVE SMOOTH",
"301 75 OFFCURVE",
"259 24 OFFCURVE",
"171 24 CURVE SMOOTH",
"147 24 OFFCURVE",
"126 28 OFFCURVE",
"126 37 CURVE SMOOTH",
"126 54 OFFCURVE",
"139 67 OFFCURVE",
"139 86 CURVE SMOOTH",
"139 108 OFFCURVE",
"126 126 OFFCURVE",
"91 126 CURVE SMOOTH",
"61 126 OFFCURVE",
"40 101 OFFCURVE",
"40 73 CURVE SMOOTH",
"40 18 OFFCURVE",
"104 -12 OFFCURVE",
"174 -12 CURVE SMOOTH",
"267 -12 OFFCURVE",
"326 50 OFFCURVE",
"326 142 CURVE SMOOTH",
"326 231 OFFCURVE",
"282 242 OFFCURVE",
"267 258 CURVE",
"267 261 LINE",
"278 273 OFFCURVE",
"317 303 OFFCURVE",
"317 362 CURVE SMOOTH",
"317 409 OFFCURVE",
"288 438 OFFCURVE",
"286 444 CURVE",
"286 446 LINE",
"313 464 OFFCURVE",
"325 497 OFFCURVE",
"325 533 CURVE SMOOTH",
"325 608 OFFCURVE",
"244 643 OFFCURVE",
"165 654 CURVE SMOOTH",
"139 658 OFFCURVE",
"130 665 OFFCURVE",
"130 687 CURVE SMOOTH",
"130 690 OFFCURVE",
"130 696 OFFCURVE",
"138 702 CURVE",
"139 710 LINE",
"124 721 LINE"
);
}
);
width = 366;
},
{
layerId = "537B1E8F-B3C8-45B3-90C6-0C31F5F160D0";
name = Light;
paths = (
{
closed = 1;
nodes = (
"117 720 OFFCURVE",
"102 700 OFFCURVE",
"102 674 CURVE SMOOTH",
"102 650 OFFCURVE",
"113 636 OFFCURVE",
"135 636 CURVE SMOOTH",
"151 636 OFFCURVE",
"152 644 OFFCURVE",
"169 644 CURVE SMOOTH",
"225 644 OFFCURVE",
"307 609 OFFCURVE",
"307 544 CURVE SMOOTH",
"307 507 OFFCURVE",
"275 467 OFFCURVE",
"244 467 CURVE SMOOTH",
"228 467 OFFCURVE",
"197 475 OFFCURVE",
"169 475 CURVE SMOOTH",
"143 475 OFFCURVE",
"125 465 OFFCURVE",
"125 451 CURVE SMOOTH",
"125 435 OFFCURVE",
"144 424 OFFCURVE",
"177 424 CURVE SMOOTH",
"239 424 OFFCURVE",
"249 446 OFFCURVE",
"264 446 CURVE SMOOTH",
"320 446 OFFCURVE",
"316 272 OFFCURVE",
"251 272 CURVE SMOOTH",
"225 272 OFFCURVE",
"212 286 OFFCURVE",
"180 286 CURVE SMOOTH",
"139 286 OFFCURVE",
"112 274 OFFCURVE",
"112 256 CURVE SMOOTH",
"112 240 OFFCURVE",
"144 225 OFFCURVE",
"182 225 CURVE SMOOTH",
"216 225 OFFCURVE",
"224 246 OFFCURVE",
"255 246 CURVE SMOOTH",
"292 246 OFFCURVE",
"313 196 OFFCURVE",
"313 140 CURVE SMOOTH",
"313 50 OFFCURVE",
"266 7 OFFCURVE",
"175 7 CURVE SMOOTH",
"141 7 OFFCURVE",
"120 14 OFFCURVE",
"120 28 CURVE SMOOTH",
"120 47 OFFCURVE",
"134 61 OFFCURVE",
"134 78 CURVE SMOOTH",
"134 101 OFFCURVE",
"119 112 OFFCURVE",
"92 112 CURVE SMOOTH",
"68 112 OFFCURVE",
"48 92 OFFCURVE",
"48 65 CURVE SMOOTH",
"48 18 OFFCURVE",
"101 -16 OFFCURVE",
"178 -16 CURVE SMOOTH",
"268 -16 OFFCURVE",
"327 44 OFFCURVE",
"327 136 CURVE SMOOTH",
"327 227 OFFCURVE",
"292 246 OFFCURVE",
"266 259 CURVE",
"266 260 LINE",
"273 272 OFFCURVE",
"320 301 OFFCURVE",
"320 363 CURVE SMOOTH",
"320 409 OFFCURVE",
"288 440 OFFCURVE",
"286 448 CURVE",
"286 450 LINE",
"308 469 OFFCURVE",
"326 498 OFFCURVE",
"326 540 CURVE SMOOTH",
"326 601 OFFCURVE",
"269 641 OFFCURVE",
"168 658 CURVE SMOOTH",
"136 663 OFFCURVE",
"124 673 OFFCURVE",
"124 699 CURVE SMOOTH",
"124 702 OFFCURVE",
"124 711 OFFCURVE",
"133 718 CURVE",
"125 726 LINE"
);
}
);
width = 367;
}
);
unicode = 10F0;
},
{
glyphname = "he-georgian";
lastChange = "2017-03-22 15:35:29 +0000";
layers = (
{
backgroundImage = {
crop = "{{0, 0}, {436.31999999999999, 709.91999999999996}}";
imagePath = dasamatebeli/1.jpg;
locked = "1";
transform = "{1.035, 0, 0, 1.035, 21, -14}";
};
layerId = "CCC4B6D6-30B5-49E5-84BA-D7A51BB31B72";
name = Regular;
paths = (
{
closed = 1;
nodes = (
"125 490 OFFCURVE",
"156 490 OFFCURVE",
"218 542 CURVE SMOOTH",
"268 584 OFFCURVE",
"293 630 OFFCURVE",
"293 668 CURVE SMOOTH",
"293 692 OFFCURVE",
"279 721 OFFCURVE",
"240 721 CURVE SMOOTH",
"201 721 OFFCURVE",
"163 699 OFFCURVE",
"139 668 CURVE SMOOTH",
"57 560 OFFCURVE",
"40 418 OFFCURVE",
"40 280 CURVE SMOOTH",
"40 124 OFFCURVE",
"108 -11 OFFCURVE",
"250 -11 CURVE SMOOTH",
"327 -11 OFFCURVE",
"393 51 OFFCURVE",
"393 125 CURVE SMOOTH",
"393 150 OFFCURVE",
"385 167 OFFCURVE",
"370 193 CURVE SMOOTH",
"368 197 OFFCURVE",
"368 200 OFFCURVE",
"368 203 CURVE SMOOTH",
"369 219 OFFCURVE",
"417 239 OFFCURVE",
"420 349 CURVE SMOOTH",
"420 364 OFFCURVE",
"418 379 OFFCURVE",
"414 391 CURVE SMOOTH",
"399 440 OFFCURVE",
"382 434 OFFCURVE",
"382 440 CURVE SMOOTH",
"382 457 OFFCURVE",
"427 447 OFFCURVE",
"427 523 CURVE SMOOTH",
"427 562 OFFCURVE",
"390 600 OFFCURVE",
"389 628 CURVE SMOOTH",
"389 641 OFFCURVE",
"395 656 OFFCURVE",
"411 662 CURVE SMOOTH",
"423 667 OFFCURVE",
"429 678 OFFCURVE",
"429 687 CURVE SMOOTH",
"429 695 OFFCURVE",
"424 702 OFFCURVE",
"414 702 CURVE SMOOTH",
"404 702 OFFCURVE",
"370 682 OFFCURVE",
"370 645 CURVE SMOOTH",
"370 590 OFFCURVE",
"409 553 OFFCURVE",
"409 524 CURVE SMOOTH",
"409 489 OFFCURVE",
"387 458 OFFCURVE",
"366 458 CURVE SMOOTH",
"357 458 OFFCURVE",
"349 478 OFFCURVE",
"324 478 CURVE SMOOTH",
"310 478 OFFCURVE",
"297 473 OFFCURVE",
"297 457 CURVE SMOOTH",
"297 439 OFFCURVE",
"305 426 OFFCURVE",
"332 426 CURVE SMOOTH",
"342 426 OFFCURVE",
"353 432 OFFCURVE",
"367 432 CURVE SMOOTH",
"380 432 OFFCURVE",
"393 399 OFFCURVE",
"399 378 CURVE SMOOTH",
"402 367 OFFCURVE",
"403 356 OFFCURVE",
"403 344 CURVE SMOOTH",
"403 293 OFFCURVE",
"378 233 OFFCURVE",
"353 233 CURVE SMOOTH",
"333 233 OFFCURVE",
"325 248 OFFCURVE",
"305 248 CURVE SMOOTH",
"294 248 OFFCURVE",
"277 240 OFFCURVE",
"277 219 CURVE SMOOTH",
"277 199 OFFCURVE",
"294 187 OFFCURVE",
"314 187 CURVE SMOOTH",
"333 187 OFFCURVE",
"336 196 OFFCURVE",
"343 196 CURVE SMOOTH",
"358 196 OFFCURVE",
"371 153 OFFCURVE",
"371 123 CURVE SMOOTH",
"371 80 OFFCURVE",
"315 10 OFFCURVE",
"251 10 CURVE SMOOTH",
"124 10 OFFCURVE",
"59 226 OFFCURVE",
"59 340 CURVE SMOOTH",
"59 375 OFFCURVE",
"64 432 OFFCURVE",
"79 485 CURVE"
);
},
{
closed = 1;
nodes = (
"141 693 OFFCURVE",
"238 693 CURVE SMOOTH",
"260 693 OFFCURVE",
"277 674 OFFCURVE",
"277 655 CURVE SMOOTH",
"277 637 OFFCURVE",
"268 613 OFFCURVE",
"251 593 CURVE SMOOTH",
"214 550 OFFCURVE",
"145 508 OFFCURVE",
"81 506 CURVE",
"81 524 OFFCURVE"
);
}
);
width = 469;
},
{
layerId = "537B1E8F-B3C8-45B3-90C6-0C31F5F160D0";
name = Light;
paths = (
{
closed = 1;
nodes = (
"125 497 OFFCURVE",
"171 505 OFFCURVE",
"235 560 CURVE SMOOTH",
"282 600 OFFCURVE",
"290 639 OFFCURVE",
"290 679 CURVE SMOOTH",
"290 707 OFFCURVE",
"272 726 OFFCURVE",
"243 726 CURVE SMOOTH",
"208 726 OFFCURVE",
"170 706 OFFCURVE",
"145 674 CURVE SMOOTH",
"62 566 OFFCURVE",
"40 426 OFFCURVE",
"40 283 CURVE SMOOTH",
"40 106 OFFCURVE",
"127 -15 OFFCURVE",
"254 -15 CURVE SMOOTH",
"329 -15 OFFCURVE",
"396 44 OFFCURVE",
"398 116 CURVE SMOOTH",
"399 162 OFFCURVE",
"391 187 OFFCURVE",
"368 207 CURVE",
"368 208 LINE",
"384 222 OFFCURVE",
"422 241 OFFCURVE",
"425 349 CURVE",
"425 381 OFFCURVE",
"405 443 OFFCURVE",
"384 447 CURVE",
"384 448 LINE",
"394 451 OFFCURVE",
"428 462 OFFCURVE",
"428 529 CURVE SMOOTH",
"428 567 OFFCURVE",
"390 606 OFFCURVE",
"389 637 CURVE",
"389 657 OFFCURVE",
"399 672 OFFCURVE",
"417 680 CURVE",
"425 683 OFFCURVE",
"430 690 OFFCURVE",
"430 698 CURVE SMOOTH",
"430 703 OFFCURVE",
"427 706 OFFCURVE",
"423 706 CURVE SMOOTH",
"415 706 OFFCURVE",
"381 686 OFFCURVE",
"381 652 CURVE SMOOTH",
"381 597 OFFCURVE",
"421 562 OFFCURVE",
"421 530 CURVE SMOOTH",
"421 492 OFFCURVE",
"401 455 OFFCURVE",
"373 455 CURVE SMOOTH",
"358 455 OFFCURVE",
"352 475 OFFCURVE",
"330 475 CURVE SMOOTH",
"317 475 OFFCURVE",
"310 467 OFFCURVE",
"310 458 CURVE SMOOTH",
"310 440 OFFCURVE",
"319 436 OFFCURVE",
"338 436 CURVE SMOOTH",
"347 436 OFFCURVE",
"357 442 OFFCURVE",
"373 442 CURVE SMOOTH",
"398 442 OFFCURVE",
"415 387 OFFCURVE",
"415 344 CURVE SMOOTH",
"415 284 OFFCURVE",
"391 222 OFFCURVE",
"360 222 CURVE SMOOTH",
"334 222 OFFCURVE",
"328 238 OFFCURVE",
"310 238 CURVE SMOOTH",
"299 238 OFFCURVE",
"290 229 OFFCURVE",
"290 215 CURVE SMOOTH",
"290 200 OFFCURVE",
"302 189 OFFCURVE",
"320 189 CURVE SMOOTH",
"334 189 OFFCURVE",
"336 199 OFFCURVE",
"350 199 CURVE SMOOTH",
"370 199 OFFCURVE",
"386 157 OFFCURVE",
"386 116 CURVE SMOOTH",
"386 56 OFFCURVE",
"325 -2 OFFCURVE",
"255 -2 CURVE SMOOTH",
"117 -2 OFFCURVE",
"53 221 OFFCURVE",
"53 340 CURVE SMOOTH",
"53 377 OFFCURVE",
"57 435 OFFCURVE",
"73 492 CURVE"
);
},
{
closed = 1;
nodes = (
"78 505 LINE",
"78 525 OFFCURVE",
"135 712 OFFCURVE",
"241 712 CURVE SMOOTH",
"267 712 OFFCURVE",
"280 696 OFFCURVE",
"280 671 CURVE SMOOTH",
"280 649 OFFCURVE",
"275 617 OFFCURVE",
"258 596 CURVE SMOOTH",
"220 552 OFFCURVE",
"148 506 OFFCURVE",
"79 504 CURVE"
);
}
);
width = 470;
}
);
unicode = 10F1;
},
{
glyphname = "hie-georgian";
lastChange = "2017-03-21 22:45:10 +0000";
layers = (
{
backgroundImage = {
crop = "{{0, 0}, {481, 499.91999999999996}}";
imagePath = dasamatebeli/iota.jpg;
locked = "1";
transform = "{1.028, 0, 0, 1.028, 29, -14}";
};
layerId = "CCC4B6D6-30B5-49E5-84BA-D7A51BB31B72";
name = Regular;
paths = (
{
closed = 1;
nodes = (
"443 -12 OFFCURVE",
"492 32 OFFCURVE",
"492 62 CURVE SMOOTH",
"492 68 OFFCURVE",
"486 72 OFFCURVE",
"479 72 CURVE SMOOTH",
"467 72 OFFCURVE",
"467 61 OFFCURVE",
"450 42 CURVE SMOOTH",
"435 25 OFFCURVE",
"407 19 OFFCURVE",
"379 19 CURVE SMOOTH",
"351 19 OFFCURVE",
"316 29 OFFCURVE",
"293 47 CURVE",
"293 48 LINE",
"346 86 OFFCURVE",
"442 129 OFFCURVE",
"442 279 CURVE SMOOTH",
"442 429 OFFCURVE",
"334 464 OFFCURVE",
"283 464 CURVE SMOOTH",
"232 464 OFFCURVE",
"119 433 OFFCURVE",
"119 266 CURVE SMOOTH",
"119 147 OFFCURVE",
"235 66 OFFCURVE",
"263 48 CURVE",
"263 47 LINE",
"230 28 OFFCURVE",
"190 18 OFFCURVE",
"160 18 CURVE SMOOTH",
"119 18 OFFCURVE",
"90 38 OFFCURVE",
"83 72 CURVE SMOOTH",
"81 84 OFFCURVE",
"83 100 OFFCURVE",
"60 100 CURVE SMOOTH",
"43 100 OFFCURVE",
"40 80 OFFCURVE",
"40 72 CURVE SMOOTH",
"40 27 OFFCURVE",
"86 -7 OFFCURVE",
"150 -7 CURVE SMOOTH",
"218 -7 OFFCURVE",
"272 38 OFFCURVE",
"279 38 CURVE",
"287 38 OFFCURVE",
"326 -12 OFFCURVE",
"401 -12 CURVE"
);
},
{
closed = 1;
nodes = (
"210 123 OFFCURVE",
"155 124 OFFCURVE",
"155 293 CURVE SMOOTH",
"155 375 OFFCURVE",
"204 448 OFFCURVE",
"274 448 CURVE SMOOTH",
"378 448 OFFCURVE",
"405 376 OFFCURVE",
"405 270 CURVE SMOOTH",
"405 193 OFFCURVE",
"369 109 OFFCURVE",
"281 59 CURVE",
"280 59 LINE"
);
}
);
width = 532;
},
{
layerId = "537B1E8F-B3C8-45B3-90C6-0C31F5F160D0";
name = Light;
paths = (
{
closed = 1;
nodes = (
"428 -5 OFFCURVE",
"476 34 OFFCURVE",
"476 62 CURVE SMOOTH",
"476 64 OFFCURVE",
"475 65 OFFCURVE",
"471 65 CURVE SMOOTH",
"465 65 OFFCURVE",
"467 59 OFFCURVE",
"448 37 CURVE",
"433 21 OFFCURVE",
"406 12 OFFCURVE",
"371 12 CURVE SMOOTH",
"331 12 OFFCURVE",
"303 24 OFFCURVE",
"277 47 CURVE",
"277 48 LINE",
"401 144 OFFCURVE",
"426 173 OFFCURVE",
"426 279 CURVE SMOOTH",
"426 424 OFFCURVE",
"325 457 OFFCURVE",
"275 457 CURVE SMOOTH",
"225 457 OFFCURVE",
"119 428 OFFCURVE",
"119 266 CURVE SMOOTH",
"119 187 OFFCURVE",
"164 125 OFFCURVE",
"263 48 CURVE",
"263 47 LINE",
"230 24 OFFCURVE",
"198 11 OFFCURVE",
"152 11 CURVE SMOOTH",
"107 11 OFFCURVE",
"75 34 OFFCURVE",
"67 71 CURVE",
"64 92 OFFCURVE",
"64 93 OFFCURVE",
"52 93 CURVE SMOOTH",
"45 93 OFFCURVE",
"40 84 OFFCURVE",
"40 72 CURVE SMOOTH",
"40 31 OFFCURVE",
"83 0 OFFCURVE",
"142 0 CURVE SMOOTH",
"207 0 OFFCURVE",
"260 43 OFFCURVE",
"271 43 CURVE SMOOTH",
"284 43 OFFCURVE",
"321 -5 OFFCURVE",
"393 -5 CURVE SMOOTH"
);
},
{
closed = 1;
nodes = (
"170 139 OFFCURVE",
"139 159 OFFCURVE",
"139 293 CURVE SMOOTH",
"139 383 OFFCURVE",
"195 446 OFFCURVE",
"266 446 CURVE SMOOTH",
"363 446 OFFCURVE",
"407 398 OFFCURVE",
"405 270 CURVE SMOOTH",
"403 166 OFFCURVE",
"315 84 OFFCURVE",
"272 52 CURVE",
"269 52 LINE"
);
}
);
width = 516;
}
);
unicode = 10F2;
},
{
glyphname = "we-georgian";
lastChange = "2017-03-22 15:38:36 +0000";
layers = (
{
backgroundImage = {
crop = "{{0, 0}, {402, 709.91999999999996}}";
imagePath = "0.jpg";
locked = "1";
transform = "{1, 0, 0, 1, -27, -247}";
};
layerId = "CCC4B6D6-30B5-49E5-84BA-D7A51BB31B72";
name = Regular;
paths = (
{
closed = 1;
nodes = (
"72 444 OFFCURVE",
"83 462 OFFCURVE",
"101 462 CURVE SMOOTH",
"110 462 OFFCURVE",
"123 460 OFFCURVE",
"123 447 CURVE SMOOTH",
"123 434 OFFCURVE",
"118 413 OFFCURVE",
"118 394 CURVE SMOOTH",
"118 370 OFFCURVE",
"126 349 OFFCURVE",
"173 349 CURVE SMOOTH",
"180 349 OFFCURVE",
"188 350 OFFCURVE",
"198 354 CURVE",
"266 379 OFFCURVE",
"262 429 OFFCURVE",
"283 446 CURVE SMOOTH",
"286 448 OFFCURVE",
"289 449 OFFCURVE",
"292 449 CURVE SMOOTH",
"302 449 OFFCURVE",
"308 442 OFFCURVE",
"308 434 CURVE SMOOTH",
"308 431 OFFCURVE",
"306 426 OFFCURVE",
"305 424 CURVE SMOOTH",
"293 406 OFFCURVE",
"151 111 OFFCURVE",
"151 107 CURVE SMOOTH",
"151 102 OFFCURVE",
"155 101 OFFCURVE",
"161 101 CURVE SMOOTH",
"173 101 OFFCURVE",
"183 100 OFFCURVE",
"194 100 CURVE SMOOTH",
"237 99 OFFCURVE",
"289 68 OFFCURVE",
"289 6 CURVE SMOOTH",
"289 -114 OFFCURVE",
"86 -247 OFFCURVE",
"61 -247 CURVE SMOOTH",
"47 -247 OFFCURVE",
"40 -239 OFFCURVE",
"40 -231 CURVE SMOOTH",
"40 -224 OFFCURVE",
"45 -217 OFFCURVE",
"56 -217 CURVE SMOOTH",
"67 -217 OFFCURVE",
"67 -229 OFFCURVE",
"69 -229 CURVE",
"144 -193 OFFCURVE",
"228 -110 OFFCURVE",
"228 -10 CURVE SMOOTH",
"228 32 OFFCURVE",
"206 74 OFFCURVE",
"167 74 CURVE SMOOTH",
"152 74 OFFCURVE",
"135 70 OFFCURVE",
"126 54 CURVE SMOOTH",
"104 17 OFFCURVE",
"104 -10 OFFCURVE",
"74 -10 CURVE SMOOTH",
"58 -10 OFFCURVE",
"53 4 OFFCURVE",
"53 16 CURVE SMOOTH",
"53 53 OFFCURVE",
"116 78 OFFCURVE",
"132 109 CURVE SMOOTH",
"191 223 OFFCURVE",
"216 310 OFFCURVE",
"245 355 CURVE",
"243 357 LINE",
"202 337 OFFCURVE",
"186 329 OFFCURVE",
"158 329 CURVE SMOOTH",
"120 329 OFFCURVE",
"72 371 OFFCURVE",
"72 418 CURVE SMOOTH"
);
}
);
width = 348;
},
{
layerId = "537B1E8F-B3C8-45B3-90C6-0C31F5F160D0";
name = Light;
paths = (
{
closed = 1;
nodes = (
"77 -256 OFFCURVE",
"285 -120 OFFCURVE",
"285 3 CURVE SMOOTH",
"285 55 OFFCURVE",
"245 95 OFFCURVE",
"194 95 CURVE SMOOTH",
"182 95 OFFCURVE",
"172 96 OFFCURVE",
"159 96 CURVE SMOOTH",
"147 96 OFFCURVE",
"140 95 OFFCURVE",
"140 103 CURVE SMOOTH",
"140 111 OFFCURVE",
"292 423 OFFCURVE",
"303 448 CURVE",
"304 449 OFFCURVE",
"305 453 OFFCURVE",
"305 454 CURVE SMOOTH",
"305 459 OFFCURVE",
"302 462 OFFCURVE",
"297 462 CURVE SMOOTH",
"296 462 OFFCURVE",
"295 462 OFFCURVE",
"292 460 CURVE",
"275 447 OFFCURVE",
"274 395 OFFCURVE",
"201 362 CURVE SMOOTH",
"155 341 OFFCURVE",
"105 359 OFFCURVE",
"105 412 CURVE SMOOTH",
"105 433 OFFCURVE",
"111 455 OFFCURVE",
"111 468 CURVE SMOOTH",
"111 473 OFFCURVE",
"107 476 OFFCURVE",
"96 476 CURVE SMOOTH",
"83 476 OFFCURVE",
"74 461 OFFCURVE",
"74 437 CURVE SMOOTH",
"74 395 OFFCURVE",
"117 343 OFFCURVE",
"156 343 CURVE SMOOTH",
"171 343 OFFCURVE",
"186 340 OFFCURVE",
"253 377 CURVE",
"254 376 LINE",
"252 373 OFFCURVE",
"160 169 OFFCURVE",
"128 108 CURVE SMOOTH",
"111 74 OFFCURVE",
"54 48 OFFCURVE",
"54 13 CURVE SMOOTH",
"54 1 OFFCURVE",
"59 -7 OFFCURVE",
"67 -7 CURVE SMOOTH",
"92 -7 OFFCURVE",
"91 17 OFFCURVE",
"115 58 CURVE SMOOTH",
"124 74 OFFCURVE",
"142 82 OFFCURVE",
"165 82 CURVE SMOOTH",
"208 82 OFFCURVE",
"238 41 OFFCURVE",
"238 -14 CURVE SMOOTH",
"238 -83 OFFCURVE",
"154 -201 OFFCURVE",
"61 -248 CURVE SMOOTH",
"51 -253 OFFCURVE",
"55 -239 OFFCURVE",
"46 -239 CURVE SMOOTH",
"41 -239 OFFCURVE",
"40 -243 OFFCURVE",
"40 -247 CURVE SMOOTH",
"40 -252 OFFCURVE",
"45 -256 OFFCURVE",
"54 -256 CURVE SMOOTH"
);
}
);
width = 345;
}
);
unicode = 10F3;
},
{
glyphname = "hoe-georgian";
lastChange = "2017-03-22 15:43:19 +0000";
layers = (
{
backgroundImage = {
crop = "{{0, 0}, {441.12, 723.60000000000002}}";
imagePath = hoe.jpg;
locked = "1";
transform = "{1.038, 0, 0, 1.038, 19, -21}";
};
layerId = "CCC4B6D6-30B5-49E5-84BA-D7A51BB31B72";
name = Regular;
paths = (
{
closed = 1;
nodes = (
"275 -11 OFFCURVE",
"288 78 OFFCURVE",
"292 209 CURVE",
"333 205 OFFCURVE",
"393 162 OFFCURVE",
"393 100 CURVE SMOOTH",
"393 46 OFFCURVE",
"340 22 OFFCURVE",
"340 16 CURVE SMOOTH",
"340 9 OFFCURVE",
"356 2 OFFCURVE",
"361 0 CURVE",
"378 19 OFFCURVE",
"413 63 OFFCURVE",
"414 100 CURVE SMOOTH",
"417 177 OFFCURVE",
"319 233 OFFCURVE",
"293 240 CURVE",
"307 478 LINE",
"373 491 OFFCURVE",
"434 538 OFFCURVE",
"434 571 CURVE SMOOTH",
"434 598 OFFCURVE",
"428 609 OFFCURVE",
"406 609 CURVE SMOOTH",
"395 609 OFFCURVE",
"379 600 OFFCURVE",
"379 583 CURVE SMOOTH",
"379 567 OFFCURVE",
"382 565 OFFCURVE",
"382 543 CURVE SMOOTH",
"382 521 OFFCURVE",
"315 500 OFFCURVE",
"308 499 CURVE",
"308 538 OFFCURVE",
"308 575 OFFCURVE",
"308 605 CURVE SMOOTH",
"308 667 OFFCURVE",
"270 720 OFFCURVE",
"212 720 CURVE SMOOTH",
"132 720 OFFCURVE",
"70 667 OFFCURVE",
"70 585 CURVE SMOOTH",
"70 527 OFFCURVE",
"125 465 OFFCURVE",
"195 465 CURVE SMOOTH",
"246 465 OFFCURVE",
"272 469 OFFCURVE",
"288 471 CURVE",
"272 245 LINE",
"265 246 LINE",
"248 248 OFFCURVE",
"232 249 OFFCURVE",
"217 249 CURVE SMOOTH",
"147 249 OFFCURVE",
"103 222 OFFCURVE",
"76 196 CURVE SMOOTH",
"50 171 OFFCURVE",
"40 134 OFFCURVE",
"40 107 CURVE SMOOTH",
"40 44 OFFCURVE",
"113 -11 OFFCURVE",
"188 -11 CURVE SMOOTH"
);
},
{
closed = 1;
nodes = (
"106 28 OFFCURVE",
"70 74 OFFCURVE",
"70 107 CURVE SMOOTH",
"70 175 OFFCURVE",
"145 220 OFFCURVE",
"211 220 CURVE SMOOTH",
"227 220 OFFCURVE",
"246 218 OFFCURVE",
"268 213 CURVE",
"268 79 OFFCURVE",
"251 28 OFFCURVE",
"165 28 CURVE SMOOTH"
);
},
{
closed = 1;
nodes = (
"149 483 OFFCURVE",
"93 516 OFFCURVE",
"93 581 CURVE SMOOTH",
"93 615 OFFCURVE",
"103 641 OFFCURVE",
"125 656 CURVE SMOOTH",
"139 666 OFFCURVE",
"162 675 OFFCURVE",
"185 675 CURVE SMOOTH",
"299 675 OFFCURVE",
"287 603 OFFCURVE",
"291 495 CURVE",
"268 486 OFFCURVE",
"255 482 OFFCURVE",
"223 482 CURVE SMOOTH"
);
}
);
width = 474;
},
{
layerId = "537B1E8F-B3C8-45B3-90C6-0C31F5F160D0";
name = Light;
paths = (
{
closed = 1;
nodes = (
"269 -16 OFFCURVE",
"282 73 OFFCURVE",
"286 212 CURVE",
"318 210 OFFCURVE",
"410 177 OFFCURVE",
"402 92 CURVE SMOOTH",
"396 32 OFFCURVE",
"350 6 OFFCURVE",
"350 5 CURVE SMOOTH",
"350 4 OFFCURVE",
"355 1 OFFCURVE",
"362 -2 CURVE",
"379 18 OFFCURVE",
"415 59 OFFCURVE",
"416 92 CURVE SMOOTH",
"418 145 OFFCURVE",
"379 208 OFFCURVE",
"286 231 CURVE",
"302 485 LINE",
"365 495 OFFCURVE",
"431 547 OFFCURVE",
"431 579 CURVE SMOOTH",
"431 605 OFFCURVE",
"427 611 OFFCURVE",
"410 611 CURVE SMOOTH",
"400 611 OFFCURVE",
"391 603 OFFCURVE",
"391 592 CURVE SMOOTH",
"391 578 OFFCURVE",
"394 576 OFFCURVE",
"394 550 CURVE SMOOTH",
"394 521 OFFCURVE",
"310 496 OFFCURVE",
"309 497 CURVE",
"302 496 LINE",
"302 539 OFFCURVE",
"301 582 OFFCURVE",
"301 614 CURVE SMOOTH",
"301 678 OFFCURVE",
"261 726 OFFCURVE",
"210 726 CURVE SMOOTH",
"128 726 OFFCURVE",
"71 671 OFFCURVE",
"71 594 CURVE SMOOTH",
"71 522 OFFCURVE",
"129 477 OFFCURVE",
"192 477 CURVE SMOOTH",
"255 477 OFFCURVE",
"275 483 OFFCURVE",
"291 484 CURVE",
"276 234 LINE",
"263 236 LINE SMOOTH",
"246 239 OFFCURVE",
"229 239 OFFCURVE",
"215 239 CURVE SMOOTH",
"158 239 OFFCURVE",
"111 221 OFFCURVE",
"75 186 CURVE SMOOTH",
"53 165 OFFCURVE",
"40 131 OFFCURVE",
"40 99 CURVE SMOOTH",
"40 40 OFFCURVE",
"109 -16 OFFCURVE",
"185 -16 CURVE SMOOTH"
);
},
{
closed = 1;
nodes = (
"104 10 OFFCURVE",
"54 52 OFFCURVE",
"54 99 CURVE SMOOTH",
"54 166 OFFCURVE",
"127 223 OFFCURVE",
"209 223 CURVE SMOOTH",
"229 223 OFFCURVE",
"253 220 OFFCURVE",
"276 214 CURVE",
"263 35 OFFCURVE",
"257 10 OFFCURVE",
"161 10 CURVE SMOOTH"
);
},
{
closed = 1;
nodes = (
"86 494 OFFCURVE",
"86 589 CURVE SMOOTH",
"86 654 OFFCURVE",
"111 694 OFFCURVE",
"182 694 CURVE SMOOTH",
"311 694 OFFCURVE",
"286 609 OFFCURVE",
"291 495 CURVE",
"192 477 OFFCURVE"
);
}
);
width = 471;
}
);
unicode = 10F5;
},
{
glyphname = "fi-georgian";
lastChange = "2017-03-21 22:48:56 +0000";
layers = (
{
backgroundImage = {
crop = "{{0, 0}, {441.12, 723.60000000000002}}";
imagePath = fi.jpg;
locked = "1";
transform = "{1.055, 0, 0, 1.055, 15, -295}";
};
layerId = "CCC4B6D6-30B5-49E5-84BA-D7A51BB31B72";
name = Regular;
paths = (
{
closed = 1;
nodes = (
"224 -287 OFFCURVE",
"233 -275 OFFCURVE",
"235 -254 CURVE SMOOTH",
"239 -219 OFFCURVE",
"237 -146 OFFCURVE",
"240 -104 CURVE",
"327 -103 OFFCURVE",
"395 -47 OFFCURVE",
"415 41 CURVE SMOOTH",
"420 65 OFFCURVE",
"422 84 OFFCURVE",
"422 106 CURVE SMOOTH",
"422 189 OFFCURVE",
"380 270 OFFCURVE",
"308 270 CURVE SMOOTH",
"263 270 OFFCURVE",
"247 240 OFFCURVE",
"247 240 CURVE",
"246 256 OFFCURVE",
"246 270 OFFCURVE",
"246 283 CURVE SMOOTH",
"246 352 OFFCURVE",
"256 383 OFFCURVE",
"259 435 CURVE SMOOTH",
"259 436 OFFCURVE",
"259 437 OFFCURVE",
"259 438 CURVE SMOOTH",
"259 455 OFFCURVE",
"249 461 OFFCURVE",
"243 461 CURVE SMOOTH",
"228 461 OFFCURVE",
"221 447 OFFCURVE",
"221 431 CURVE SMOOTH",
"221 413 OFFCURVE",
"224 382 OFFCURVE",
"224 358 CURVE SMOOTH",
"224 352 OFFCURVE",
"223 346 OFFCURVE",
"223 341 CURVE SMOOTH",
"218 262 OFFCURVE",
"212 51 OFFCURVE",
"208 -74 CURVE",
"99 -57 OFFCURVE",
"64 -10 OFFCURVE",
"64 61 CURVE SMOOTH",
"64 165 OFFCURVE",
"104 214 OFFCURVE",
"155 234 CURVE SMOOTH",
"167 239 OFFCURVE",
"168 250 OFFCURVE",
"168 260 CURVE SMOOTH",
"168 266 OFFCURVE",
"162 274 OFFCURVE",
"149 274 CURVE SMOOTH",
"80 274 OFFCURVE",
"40 169 OFFCURVE",
"40 84 CURVE SMOOTH",
"40 -76 OFFCURVE",
"196 -104 OFFCURVE",
"204 -104 CURVE",
"205 -124 OFFCURVE",
"195 -210 OFFCURVE",
"189 -235 CURVE SMOOTH",
"188 -241 OFFCURVE",
"187 -247 OFFCURVE",
"187 -252 CURVE SMOOTH",
"187 -278 OFFCURVE",
"203 -287 OFFCURVE",
"211 -287 CURVE SMOOTH"
);
},
{
closed = 1;
nodes = (
"228 -74 CURVE",
"236 20 OFFCURVE",
"238 199 OFFCURVE",
"248 214 CURVE SMOOTH",
"254 223 OFFCURVE",
"275 252 OFFCURVE",
"308 252 CURVE SMOOTH",
"342 252 OFFCURVE",
"374 227 OFFCURVE",
"389 191 CURVE SMOOTH",
"400 164 OFFCURVE",
"405 133 OFFCURVE",
"405 104 CURVE SMOOTH",
"405 5 OFFCURVE",
"335 -74 OFFCURVE"
);
}
);
width = 462;
},
{
layerId = "537B1E8F-B3C8-45B3-90C6-0C31F5F160D0";
name = Light;
paths = (
{
closed = 1;
nodes = (
"219 -293 OFFCURVE",
"225 -284 OFFCURVE",
"227 -265 CURVE SMOOTH",
"232 -227 OFFCURVE",
"226 -147 OFFCURVE",
"231 -104 CURVE",
"322 -106 OFFCURVE",
"396 -47 OFFCURVE",
"416 45 CURVE SMOOTH",
"421 69 OFFCURVE",
"423 89 OFFCURVE",
"423 111 CURVE SMOOTH",
"423 204 OFFCURVE",
"376 275 OFFCURVE",
"312 275 CURVE SMOOTH",
"270 275 OFFCURVE",
"253 257 OFFCURVE",
"243 250 CURVE",
"240 251 LINE",
"239 268 OFFCURVE",
"239 282 OFFCURVE",
"239 296 CURVE SMOOTH",
"239 368 OFFCURVE",
"249 402 OFFCURVE",
"253 455 CURVE",
"253 456 OFFCURVE",
"253 457 OFFCURVE",
"253 458 CURVE SMOOTH",
"253 469 OFFCURVE",
"248 475 OFFCURVE",
"244 475 CURVE SMOOTH",
"236 475 OFFCURVE",
"229 466 OFFCURVE",
"229 451 CURVE SMOOTH",
"229 432 OFFCURVE",
"233 400 OFFCURVE",
"233 375 CURVE SMOOTH",
"233 368 OFFCURVE",
"232 362 OFFCURVE",
"232 357 CURVE",
"226 272 OFFCURVE",
"218 44 OFFCURVE",
"214 -86 CURVE",
"99 -70 OFFCURVE",
"54 -8 OFFCURVE",
"54 80 CURVE SMOOTH",
"54 178 OFFCURVE",
"83 226 OFFCURVE",
"149 252 CURVE SMOOTH",
"154 254 OFFCURVE",
"157 259 OFFCURVE",
"157 272 CURVE SMOOTH",
"157 276 OFFCURVE",
"152 279 OFFCURVE",
"146 279 CURVE SMOOTH",
"88 279 OFFCURVE",
"40 190 OFFCURVE",
"40 88 CURVE SMOOTH",
"40 -78 OFFCURVE",
"205 -103 OFFCURVE",
"210 -103 CURVE",
"218 -106 OFFCURVE",
"203 -218 OFFCURVE",
"196 -248 CURVE",
"195 -254 OFFCURVE",
"194 -259 OFFCURVE",
"194 -264 CURVE SMOOTH",
"194 -280 OFFCURVE",
"202 -293 OFFCURVE",
"211 -293 CURVE SMOOTH"
);
},
{
closed = 1;
nodes = (
"410 -7 OFFCURVE",
"346 -90 OFFCURVE",
"228 -86 CURVE",
"238 10 OFFCURVE",
"229 209 OFFCURVE",
"242 228 CURVE SMOOTH",
"248 237 OFFCURVE",
"273 264 OFFCURVE",
"312 264 CURVE SMOOTH",
"382 264 OFFCURVE",
"410 195 OFFCURVE",
"410 109 CURVE SMOOTH"
);
}
);
width = 463;
}
);
unicode = 10F6;
},
{
glyphname = zero;
lastChange = "2017-03-22 19:14:06 +0000";
layers = (
{
layerId = "CCC4B6D6-30B5-49E5-84BA-D7A51BB31B72";
name = Regular;
paths = (
{
closed = 1;
nodes = (
"431 -14 OFFCURVE",
"505 198 OFFCURVE",
"505 376 CURVE SMOOTH",
"505 563 OFFCURVE",
"463 718 OFFCURVE",
"278 718 CURVE SMOOTH",
"123 718 OFFCURVE",
"40 586 OFFCURVE",
"40 378 CURVE SMOOTH",
"40 143 OFFCURVE",
"90 -14 OFFCURVE",
"264 -14 CURVE SMOOTH"
);
},
{
closed = 1;
nodes = (
"121 25 OFFCURVE",
"84 123 OFFCURVE",
"84 289 CURVE SMOOTH",
"84 496 OFFCURVE",
"140 686 OFFCURVE",
"302 686 CURVE SMOOTH",
"438 686 OFFCURVE",
"446 569 OFFCURVE",
"446 409 CURVE SMOOTH",
"446 233 OFFCURVE",
"406 25 OFFCURVE",
"264 25 CURVE SMOOTH"
);
}
);
width = 555;
},
{
layerId = "537B1E8F-B3C8-45B3-90C6-0C31F5F160D0";
name = Light;
paths = (
{
closed = 1;
nodes = (
"429 -16 OFFCURVE",
"503 197 OFFCURVE",
"503 379 CURVE SMOOTH",
"503 618 OFFCURVE",
"433 725 OFFCURVE",
"277 725 CURVE SMOOTH",
"128 725 OFFCURVE",
"40 599 OFFCURVE",
"40 381 CURVE SMOOTH",
"40 107 OFFCURVE",
"108 -16 OFFCURVE",
"263 -16 CURVE SMOOTH"
);
},
{
closed = 1;
nodes = (
"125 10 OFFCURVE",
"69 92 OFFCURVE",
"69 289 CURVE SMOOTH",
"69 554 OFFCURVE",
"152 706 OFFCURVE",
"302 706 CURVE SMOOTH",
"451 706 OFFCURVE",
"459 578 OFFCURVE",
"459 413 CURVE SMOOTH",
"459 162 OFFCURVE",
"388 10 OFFCURVE",
"263 10 CURVE SMOOTH"
);
}
);
width = 543;
}
);
unicode = 0030;
},
{
glyphname = one;
lastChange = "2017-03-22 17:47:39 +0000";
layers = (
{
layerId = "CCC4B6D6-30B5-49E5-84BA-D7A51BB31B72";
name = Regular;
paths = (
{
closed = 1;
nodes = (
"69 450 OFFCURVE",
"96 450 CURVE SMOOTH",
"161 450 OFFCURVE",
"255 511 OFFCURVE",
"325 576 CURVE",
"328 576 LINE",
"320 418 OFFCURVE",
"271 122 OFFCURVE",
"271 53 CURVE SMOOTH",
"271 15 OFFCURVE",
"275 -10 OFFCURVE",
"300 -10 CURVE SMOOTH",
"321 -10 OFFCURVE",
"328 15 OFFCURVE",
"328 53 CURVE SMOOTH",
"328 354 OFFCURVE",
"338 500 OFFCURVE",
"360 626 CURVE SMOOTH",
"363 643 OFFCURVE",
"372 666 OFFCURVE",
"372 683 CURVE SMOOTH",
"372 707 OFFCURVE",
"360 718 OFFCURVE",
"348 718 CURVE SMOOTH",
"336 718 OFFCURVE",
"325 707 OFFCURVE",
"325 686 CURVE SMOOTH",
"325 671 OFFCURVE",
"326 653 OFFCURVE",
"326 633 CURVE SMOOTH",
"326 581 OFFCURVE",
"206 500 OFFCURVE",
"178 500 CURVE SMOOTH",
"133 500 OFFCURVE",
"119 525 OFFCURVE",
"96 525 CURVE SMOOTH",
"78 525 OFFCURVE",
"50 518 OFFCURVE",
"50 484 CURVE SMOOTH",
"50 460 OFFCURVE"
);
}
);
width = 432;
},
{
layerId = "537B1E8F-B3C8-45B3-90C6-0C31F5F160D0";
name = Light;
paths = (
{
closed = 1;
nodes = (
"40 472 OFFCURVE",
"52 462 OFFCURVE",
"79 462 CURVE SMOOTH",
"135 462 OFFCURVE",
"229 490 OFFCURVE",
"320 593 CURVE",
"323 591 LINE",
"314 427 OFFCURVE",
"270 114 OFFCURVE",
"270 43 CURVE SMOOTH",
"270 -1 OFFCURVE",
"276 -16 OFFCURVE",
"291 -16 CURVE SMOOTH",
"305 -16 OFFCURVE",
"312 3 OFFCURVE",
"312 43 CURVE SMOOTH",
"312 355 OFFCURVE",
"323 508 OFFCURVE",
"345 639 CURVE SMOOTH",
"348 656 OFFCURVE",
"358 680 OFFCURVE",
"358 697 CURVE SMOOTH",
"358 715 OFFCURVE",
"351 726 OFFCURVE",
"341 726 CURVE SMOOTH",
"333 726 OFFCURVE",
"326 716 OFFCURVE",
"326 700 CURVE SMOOTH",
"326 684 OFFCURVE",
"327 666 OFFCURVE",
"327 645 CURVE SMOOTH",
"327 588 OFFCURVE",
"197 500 OFFCURVE",
"165 500 CURVE SMOOTH",
"113 500 OFFCURVE",
"100 526 OFFCURVE",
"79 526 CURVE SMOOTH",
"55 526 OFFCURVE",
"40 514 OFFCURVE",
"40 490 CURVE SMOOTH"
);
}
);
width = 408;
}
);
unicode = 0031;
},
{
glyphname = two;
lastChange = "2017-03-22 16:53:57 +0000";
layers = (
{
layerId = "CCC4B6D6-30B5-49E5-84BA-D7A51BB31B72";
name = Regular;
paths = (
{
closed = 1;
nodes = (
"98 -6 OFFCURVE",
"139 29 OFFCURVE",
"246 180 CURVE SMOOTH",
"390 382 OFFCURVE",
"408 429 OFFCURVE",
"408 515 CURVE SMOOTH",
"408 693 OFFCURVE",
"328 717 OFFCURVE",
"252 717 CURVE SMOOTH",
"147 717 OFFCURVE",
"61 617 OFFCURVE",
"61 500 CURVE SMOOTH",
"61 467 OFFCURVE",
"68 433 OFFCURVE",
"86 408 CURVE SMOOTH",
"98 391 OFFCURVE",
"126 376 OFFCURVE",
"145 376 CURVE SMOOTH",
"168 376 OFFCURVE",
"181 396 OFFCURVE",
"181 418 CURVE SMOOTH",
"181 451 OFFCURVE",
"145 464 OFFCURVE",
"124 464 CURVE SMOOTH",
"117 464 OFFCURVE",
"109 491 OFFCURVE",
"109 519 CURVE SMOOTH",
"109 581 OFFCURVE",
"138 682 OFFCURVE",
"254 682 CURVE SMOOTH",
"331 682 OFFCURVE",
"364 616 OFFCURVE",
"364 530 CURVE SMOOTH",
"364 402 OFFCURVE",
"263 221 OFFCURVE",
"187 168 CURVE SMOOTH",
"80 93 OFFCURVE",
"49 70 OFFCURVE",
"42 48 CURVE SMOOTH",
"34 23 OFFCURVE",
"50 -6 OFFCURVE",
"80 -6 CURVE SMOOTH"
);
},
{
closed = 1;
nodes = (
"80 -6 LINE",
"103 -6 OFFCURVE",
"145 47 OFFCURVE",
"257 47 CURVE SMOOTH",
"317 47 OFFCURVE",
"420 29 OFFCURVE",
"472 -4 CURVE SMOOTH",
"475 -6 OFFCURVE",
"479 -8 OFFCURVE",
"482 -8 CURVE SMOOTH",
"493 -8 OFFCURVE",
"497 -2 OFFCURVE",
"497 4 CURVE SMOOTH",
"497 12 OFFCURVE",
"492 21 OFFCURVE",
"483 26 CURVE SMOOTH",
"414 67 OFFCURVE",
"322 98 OFFCURVE",
"224 98 CURVE SMOOTH",
"194 98 OFFCURVE",
"94 93 OFFCURVE",
"42 48 CURVE"
);
}
);
width = 537;
},
{
layerId = "537B1E8F-B3C8-45B3-90C6-0C31F5F160D0";
name = Light;
paths = (
{
closed = 1;
nodes = (
"36 10 OFFCURVE",
"47 -15 OFFCURVE",
"77 -15 CURVE",
"99 -13 OFFCURVE",
"140 40 OFFCURVE",
"258 40 CURVE SMOOTH",
"322 40 OFFCURVE",
"428 15 OFFCURVE",
"487 -14 CURVE SMOOTH",
"491 -16 OFFCURVE",
"493 -17 OFFCURVE",
"493 -17 CURVE SMOOTH",
"498 -17 OFFCURVE",
"501 -15 OFFCURVE",
"501 -12 CURVE SMOOTH",
"501 -6 OFFCURVE",
"496 2 OFFCURVE",
"490 5 CURVE SMOOTH",
"408 45 OFFCURVE",
"316 79 OFFCURVE",
"224 79 CURVE SMOOTH",
"216 79 OFFCURVE",
"201 79 OFFCURVE",
"183 77 CURVE",
"177 77 OFFCURVE",
"171 80 OFFCURVE",
"174 87 CURVE",
"240 176 LINE",
"390 386 OFFCURVE",
"402 428 OFFCURVE",
"408 521 CURVE SMOOTH",
"418 701 OFFCURVE",
"331 725 OFFCURVE",
"253 725 CURVE SMOOTH",
"150 725 OFFCURVE",
"62 625 OFFCURVE",
"62 506 CURVE SMOOTH",
"62 468 OFFCURVE",
"71 436 OFFCURVE",
"86 414 CURVE SMOOTH",
"97 398 OFFCURVE",
"124 384 OFFCURVE",
"141 384 CURVE SMOOTH",
"158 384 OFFCURVE",
"171 398 OFFCURVE",
"171 420 CURVE SMOOTH",
"171 443 OFFCURVE",
"148 461 OFFCURVE",
"120 461 CURVE SMOOTH",
"105 461 OFFCURVE",
"95 491 OFFCURVE",
"95 526 CURVE SMOOTH",
"95 591 OFFCURVE",
"128 703 OFFCURVE",
"255 703 CURVE SMOOTH",
"333 703 OFFCURVE",
"384 641 OFFCURVE",
"378 537 CURVE SMOOTH",
"371 384 OFFCURVE",
"271 223 OFFCURVE",
"190 153 CURVE SMOOTH",
"88 64 OFFCURVE",
"49 53 OFFCURVE",
"42 32 CURVE SMOOTH"
);
}
);
width = 505;
}
);
unicode = 0032;
},
{
glyphname = three;
lastChange = "2017-03-22 16:55:44 +0000";
layers = (
{
guideLines = (
{
angle = 90;
position = "{41, 392}";
}
);
layerId = "CCC4B6D6-30B5-49E5-84BA-D7A51BB31B72";
name = Regular;
paths = (
{
closed = 1;
nodes = (
"307 -10 OFFCURVE",
"396 52 OFFCURVE",
"396 210 CURVE SMOOTH",
"396 312 OFFCURVE",
"344 351 OFFCURVE",
"308 366 CURVE",
"278 352 LINE",
"327 343 OFFCURVE",
"374 273 OFFCURVE",
"374 207 CURVE SMOOTH",
"374 100 OFFCURVE",
"306 20 OFFCURVE",
"204 20 CURVE SMOOTH",
"172 20 OFFCURVE",
"85 45 OFFCURVE",
"85 121 CURVE SMOOTH",
"85 135 OFFCURVE",
"100 150 OFFCURVE",
"100 169 CURVE SMOOTH",
"100 181 OFFCURVE",
"84 191 OFFCURVE",
"69 191 CURVE SMOOTH",
"46 191 OFFCURVE",
"40 166 OFFCURVE",
"40 136 CURVE SMOOTH",
"40 44 OFFCURVE",
"115 -10 OFFCURVE",
"199 -10 CURVE SMOOTH"
);
},
{
closed = 1;
nodes = (
"310 341 OFFCURVE",
"388 403 OFFCURVE",
"388 494 CURVE",
"356 494 LINE",
"356 420 OFFCURVE",
"287 385 OFFCURVE",
"273 385 CURVE SMOOTH",
"258 385 OFFCURVE",
"231 412 OFFCURVE",
"188 412 CURVE SMOOTH",
"135 412 OFFCURVE",
"122 395 OFFCURVE",
"122 378 CURVE SMOOTH",
"122 349 OFFCURVE",
"167 341 OFFCURVE",
"206 341 CURVE SMOOTH"
);
},
{
closed = 1;
nodes = (
"388 494 LINE",
"388 652 OFFCURVE",
"308 711 OFFCURVE",
"200 711 CURVE SMOOTH",
"116 711 OFFCURVE",
"41 657 OFFCURVE",
"41 565 CURVE SMOOTH",
"41 535 OFFCURVE",
"47 510 OFFCURVE",
"70 510 CURVE SMOOTH",
"85 510 OFFCURVE",
"101 520 OFFCURVE",
"101 532 CURVE SMOOTH",
"101 551 OFFCURVE",
"86 566 OFFCURVE",
"86 580 CURVE SMOOTH",
"86 656 OFFCURVE",
"173 681 OFFCURVE",
"205 681 CURVE SMOOTH",
"307 681 OFFCURVE",
"356 601 OFFCURVE",
"356 494 CURVE"
);
}
);
width = 436;
},
{
layerId = "537B1E8F-B3C8-45B3-90C6-0C31F5F160D0";
name = Light;
paths = (
{
closed = 1;
nodes = (
"40 46 OFFCURVE",
"106 -15 OFFCURVE",
"198 -15 CURVE SMOOTH",
"324 -15 OFFCURVE",
"395 66 OFFCURVE",
"395 208 CURVE SMOOTH",
"395 291 OFFCURVE",
"360 354 OFFCURVE",
"294 374 CURVE",
"294 375 LINE",
"353 400 OFFCURVE",
"387 445 OFFCURVE",
"387 505 CURVE SMOOTH",
"387 649 OFFCURVE",
"322 724 OFFCURVE",
"199 724 CURVE SMOOTH",
"107 724 OFFCURVE",
"41 663 OFFCURVE",
"41 579 CURVE SMOOTH",
"41 544 OFFCURVE",
"48 529 OFFCURVE",
"63 529 CURVE SMOOTH",
"76 529 OFFCURVE",
"87 537 OFFCURVE",
"87 544 CURVE SMOOTH",
"87 562 OFFCURVE",
"71 578 OFFCURVE",
"71 594 CURVE SMOOTH",
"71 679 OFFCURVE",
"155 707 OFFCURVE",
"204 707 CURVE SMOOTH",
"308 707 OFFCURVE",
"370 630 OFFCURVE",
"370 505 CURVE SMOOTH",
"370 423 OFFCURVE",
"292 383 OFFCURVE",
"275 383 CURVE SMOOTH",
"256 383 OFFCURVE",
"228 411 OFFCURVE",
"186 411 CURVE SMOOTH",
"146 411 OFFCURVE",
"126 402 OFFCURVE",
"126 383 CURVE SMOOTH",
"126 363 OFFCURVE",
"154 352 OFFCURVE",
"205 352 CURVE SMOOTH",
"231 352 OFFCURVE",
"256 356 OFFCURVE",
"279 363 CURVE",
"337 355 OFFCURVE",
"378 278 OFFCURVE",
"378 205 CURVE SMOOTH",
"378 86 OFFCURVE",
"312 2 OFFCURVE",
"203 2 CURVE SMOOTH",
"169 2 OFFCURVE",
"70 30 OFFCURVE",
"70 115 CURVE SMOOTH",
"70 131 OFFCURVE",
"86 147 OFFCURVE",
"86 165 CURVE SMOOTH",
"86 172 OFFCURVE",
"74 180 OFFCURVE",
"62 180 CURVE SMOOTH",
"47 180 OFFCURVE",
"40 165 OFFCURVE",
"40 130 CURVE SMOOTH"
);
}
);
width = 435;
}
);
unicode = 0033;
},
{
glyphname = four;
lastChange = "2017-03-22 17:00:43 +0000";
layers = (
{
layerId = "CCC4B6D6-30B5-49E5-84BA-D7A51BB31B72";
name = Regular;
paths = (
{
closed = 1;
nodes = (
"40 296 OFFCURVE",
"60 284 OFFCURVE",
"86 286 CURVE SMOOTH",
"119 289 OFFCURVE",
"326 480 OFFCURVE",
"389 577 CURVE",
"392 577 LINE",
"384 419 OFFCURVE",
"335 123 OFFCURVE",
"335 54 CURVE SMOOTH",
"335 16 OFFCURVE",
"339 -9 OFFCURVE",
"364 -9 CURVE SMOOTH",
"385 -9 OFFCURVE",
"392 16 OFFCURVE",
"392 54 CURVE SMOOTH",
"392 355 OFFCURVE",
"402 501 OFFCURVE",
"424 627 CURVE SMOOTH",
"427 644 OFFCURVE",
"436 667 OFFCURVE",
"436 684 CURVE SMOOTH",
"436 708 OFFCURVE",
"424 719 OFFCURVE",
"412 719 CURVE SMOOTH",
"400 719 OFFCURVE",
"389 708 OFFCURVE",
"389 687 CURVE SMOOTH",
"389 672 OFFCURVE",
"390 654 OFFCURVE",
"390 634 CURVE SMOOTH",
"390 582 OFFCURVE",
"201 361 OFFCURVE",
"134 361 CURVE SMOOTH",
"89 361 OFFCURVE",
"109 361 OFFCURVE",
"86 361 CURVE SMOOTH",
"68 361 OFFCURVE",
"40 354 OFFCURVE",
"40 320 CURVE SMOOTH"
);
},
{
closed = 1;
nodes = (
"500 315 OFFCURVE",
"495 322 OFFCURVE",
"490 324 CURVE SMOOTH",
"458 337 OFFCURVE",
"392 307 OFFCURVE",
"298 241 CURVE SMOOTH",
"288 234 OFFCURVE",
"284 231 OFFCURVE",
"283 227 CURVE SMOOTH",
"282 222 OFFCURVE",
"281 219 OFFCURVE",
"284 218 CURVE SMOOTH",
"286 217 OFFCURVE",
"292 219 OFFCURVE",
"298 224 CURVE SMOOTH",
"335 255 OFFCURVE",
"452 328 OFFCURVE",
"476 316 CURVE SMOOTH",
"478 315 OFFCURVE",
"478 313 OFFCURVE",
"477 311 CURVE SMOOTH",
"475 307 OFFCURVE",
"471 303 OFFCURVE",
"461 302 CURVE SMOOTH",
"359 292 OFFCURVE",
"113 294 OFFCURVE",
"100 311 CURVE SMOOTH",
"79 339 OFFCURVE",
"43 288 OFFCURVE",
"86 286 CURVE SMOOTH",
"125 284 OFFCURVE",
"323 277 OFFCURVE",
"467 289 CURVE SMOOTH",
"479 290 OFFCURVE",
"491 299 OFFCURVE",
"495 306 CURVE SMOOTH"
);
}
);
width = 527;
},
{
layerId = "537B1E8F-B3C8-45B3-90C6-0C31F5F160D0";
name = Light;
paths = (
{
closed = 1;
nodes = (
"380 -16 OFFCURVE",
"388 2 OFFCURVE",
"388 41 CURVE SMOOTH",
"388 354 OFFCURVE",
"398 507 OFFCURVE",
"421 639 CURVE SMOOTH",
"424 656 OFFCURVE",
"434 680 OFFCURVE",
"434 697 CURVE SMOOTH",
"434 714 OFFCURVE",
"427 725 OFFCURVE",
"418 725 CURVE SMOOTH",
"410 725 OFFCURVE",
"403 716 OFFCURVE",
"403 700 CURVE SMOOTH",
"403 684 OFFCURVE",
"404 666 OFFCURVE",
"404 645 CURVE SMOOTH",
"404 588 OFFCURVE",
"202 352 OFFCURVE",
"128 352 CURVE SMOOTH",
"121 352 OFFCURVE",
"80 352 OFFCURVE",
"79 352 CURVE",
"52 352 OFFCURVE",
"40 340 OFFCURVE",
"40 318 CURVE SMOOTH",
"40 299 OFFCURVE",
"54 289 OFFCURVE",
"77 291 CURVE SMOOTH",
"112 294 OFFCURVE",
"345 481 OFFCURVE",
"394 594 CURVE",
"397 594 LINE",
"398 372 OFFCURVE",
"347 160 OFFCURVE",
"347 41 CURVE SMOOTH",
"347 -3 OFFCURVE",
"352 -16 OFFCURVE",
"368 -16 CURVE SMOOTH"
);
},
{
closed = 1;
nodes = (
"86 287 OFFCURVE",
"371 283 OFFCURVE",
"457 291 CURVE SMOOTH",
"469 292 OFFCURVE",
"477 297 OFFCURVE",
"481 304 CURVE SMOOTH",
"486 312 OFFCURVE",
"484 318 OFFCURVE",
"476 321 CURVE SMOOTH",
"445 335 OFFCURVE",
"355 280 OFFCURVE",
"282 224 CURVE SMOOTH",
"265 212 OFFCURVE",
"276 213 OFFCURVE",
"282 219 CURVE",
"283 220 OFFCURVE",
"283 221 OFFCURVE",
"293 228 CURVE SMOOTH",
"391 297 OFFCURVE",
"443 324 OFFCURVE",
"471 313 CURVE SMOOTH",
"481 309 OFFCURVE",
"472 297 OFFCURVE",
"462 296 CURVE SMOOTH",
"362 286 OFFCURVE",
"108 303 OFFCURVE",
"86 308 CURVE SMOOTH",
"67 311 OFFCURVE",
"43 297 OFFCURVE",
"68 291 CURVE SMOOTH"
);
}
);
width = 524;
}
);
unicode = 0034;
},
{
glyphname = five;
lastChange = "2017-03-22 17:02:02 +0000";
layers = (
{
layerId = "CCC4B6D6-30B5-49E5-84BA-D7A51BB31B72";
name = Regular;
paths = (
{
closed = 1;
nodes = (
"40 170 LINE",
"54 51 OFFCURVE",
"128 -12 OFFCURVE",
"227 -12 CURVE SMOOTH",
"342 -12 OFFCURVE",
"425 133 OFFCURVE",
"425 256 CURVE SMOOTH",
"425 385 OFFCURVE",
"361 492 OFFCURVE",
"233 492 CURVE SMOOTH",
"160 492 OFFCURVE",
"104 428 OFFCURVE",
"78 366 CURVE",
"76 366 LINE",
"130 597 OFFCURVE",
"135 622 OFFCURVE",
"146 642 CURVE SMOOTH",
"160 668 OFFCURVE",
"185 684 OFFCURVE",
"225 684 CURVE SMOOTH",
"274 684 OFFCURVE",
"309 657 OFFCURVE",
"374 657 CURVE SMOOTH",
"417 657 OFFCURVE",
"457 682 OFFCURVE",
"476 710 CURVE",
"463 721 LINE",
"452 710 OFFCURVE",
"429 697 OFFCURVE",
"388 697 CURVE SMOOTH",
"319 697 OFFCURVE",
"300 715 OFFCURVE",
"229 715 CURVE SMOOTH",
"169 715 OFFCURVE",
"138 687 OFFCURVE",
"122 651 CURVE",
"40 313 LINE",
"83 306 LINE",
"103 400 OFFCURVE",
"168 470 OFFCURVE",
"250 470 CURVE SMOOTH",
"344 470 OFFCURVE",
"382 389 OFFCURVE",
"382 279 CURVE SMOOTH",
"382 157 OFFCURVE",
"325 15 OFFCURVE",
"227 15 CURVE SMOOTH",
"131 15 OFFCURVE",
"86 68 OFFCURVE",
"83 176 CURVE"
);
}
);
width = 516;
},
{
layerId = "537B1E8F-B3C8-45B3-90C6-0C31F5F160D0";
name = Light;
paths = (
{
closed = 1;
nodes = (
"50 160 LINE",
"66 51 OFFCURVE",
"133 -16 OFFCURVE",
"234 -16 CURVE SMOOTH",
"337 -16 OFFCURVE",
"431 117 OFFCURVE",
"431 257 CURVE SMOOTH",
"431 402 OFFCURVE",
"357 495 OFFCURVE",
"241 495 CURVE SMOOTH",
"180 495 OFFCURVE",
"119 443 OFFCURVE",
"79 363 CURVE",
"77 363 LINE",
"149 663 LINE",
"157 696 OFFCURVE",
"190 711 OFFCURVE",
"232 711 CURVE SMOOTH",
"286 711 OFFCURVE",
"323 683 OFFCURVE",
"387 683 CURVE SMOOTH",
"423 683 OFFCURVE",
"461 700 OFFCURVE",
"483 727 CURVE",
"480 730 LINE",
"462 716 OFFCURVE",
"434 708 OFFCURVE",
"402 708 CURVE SMOOTH",
"327 708 OFFCURVE",
"307 727 OFFCURVE",
"236 727 CURVE SMOOTH",
"186 727 OFFCURVE",
"145 707 OFFCURVE",
"134 666 CURVE",
"51 323 LINE",
"77 319 LINE",
"101 421 OFFCURVE",
"168 477 OFFCURVE",
"252 477 CURVE SMOOTH",
"347 477 OFFCURVE",
"405 414 OFFCURVE",
"405 281 CURVE SMOOTH",
"405 153 OFFCURVE",
"343 2 OFFCURVE",
"234 2 CURVE SMOOTH",
"133 2 OFFCURVE",
"81 52 OFFCURVE",
"75 164 CURVE"
);
}
);
width = 600;
}
);
unicode = 0035;
},
{
glyphname = six;
lastChange = "2017-03-22 19:14:15 +0000";
layers = (
{
layerId = "CCC4B6D6-30B5-49E5-84BA-D7A51BB31B72";
name = Regular;
paths = (
{
closed = 1;
nodes = (
"356 -8 OFFCURVE",
"436 104 OFFCURVE",
"436 221 CURVE SMOOTH",
"436 363 OFFCURVE",
"364 468 OFFCURVE",
"241 468 CURVE SMOOTH",
"152 468 OFFCURVE",
"105 411 OFFCURVE",
"82 356 CURVE",
"80 356 LINE",
"61 583 OFFCURVE",
"179 763 OFFCURVE",
"316 665 CURVE SMOOTH",
"332 654 OFFCURVE",
"352 650 OFFCURVE",
"362 659 CURVE SMOOTH",
"374 670 OFFCURVE",
"371 683 OFFCURVE",
"358 698 CURVE SMOOTH",
"313 747 OFFCURVE",
"65 729 OFFCURVE",
"52 450 CURVE SMOOTH",
"37 132 OFFCURVE",
"109 -8 OFFCURVE",
"241 -8 CURVE SMOOTH"
);
},
{
closed = 1;
nodes = (
"148 9 OFFCURVE",
"82 129 OFFCURVE",
"82 234 CURVE SMOOTH",
"82 368 OFFCURVE",
"139 447 OFFCURVE",
"241 447 CURVE SMOOTH",
"328 447 OFFCURVE",
"395 358 OFFCURVE",
"395 221 CURVE SMOOTH",
"395 147 OFFCURVE",
"356 9 OFFCURVE",
"241 9 CURVE SMOOTH"
);
}
);
width = 476;
},
{
layerId = "537B1E8F-B3C8-45B3-90C6-0C31F5F160D0";
name = Light;
paths = (
{
closed = 1;
nodes = (
"330 -15 OFFCURVE",
"415 98 OFFCURVE",
"415 222 CURVE SMOOTH",
"415 369 OFFCURVE",
"340 467 OFFCURVE",
"226 469 CURVE SMOOTH",
"154 470 OFFCURVE",
"95 438 OFFCURVE",
"62 351 CURVE",
"60 351 LINE",
"31 599 OFFCURVE",
"156 762 OFFCURVE",
"307 681 CURVE SMOOTH",
"323 673 OFFCURVE",
"337 668 OFFCURVE",
"343 674 CURVE SMOOTH",
"350 681 OFFCURVE",
"349 690 OFFCURVE",
"338 703 CURVE SMOOTH",
"297 752 OFFCURVE",
"56 732 OFFCURVE",
"42 455 CURVE SMOOTH",
"28 151 OFFCURVE",
"90 -15 OFFCURVE",
"225 -15 CURVE SMOOTH"
);
},
{
closed = 1;
nodes = (
"134 -3 OFFCURVE",
"64 114 OFFCURVE",
"64 240 CURVE SMOOTH",
"64 383 OFFCURVE",
"117 454 OFFCURVE",
"226 454 CURVE SMOOTH",
"324 454 OFFCURVE",
"392 361 OFFCURVE",
"392 222 CURVE SMOOTH",
"392 145 OFFCURVE",
"350 -3 OFFCURVE",
"226 -3 CURVE SMOOTH"
);
}
);
width = 455;
}
);
unicode = 0036;
},
{
glyphname = seven;
lastChange = "2017-03-22 17:09:59 +0000";
layers = (
{
layerId = "CCC4B6D6-30B5-49E5-84BA-D7A51BB31B72";
name = Regular;
paths = (
{
closed = 1;
nodes = (
"379 489 OFFCURVE",
"272 32 OFFCURVE",
"272 28 CURVE SMOOTH",
"272 12 OFFCURVE",
"276 -9 OFFCURVE",
"296 -9 CURVE SMOOTH",
"311 -9 OFFCURVE",
"319 8 OFFCURVE",
"319 28 CURVE SMOOTH",
"319 110 OFFCURVE",
"328 157 OFFCURVE",
"344 232 CURVE SMOOTH",
"376 387 OFFCURVE",
"411 510 OFFCURVE",
"411 593 CURVE SMOOTH",
"411 672 OFFCURVE",
"380 715 OFFCURVE",
"287 715 CURVE SMOOTH",
"216 715 OFFCURVE",
"197 697 OFFCURVE",
"128 697 CURVE SMOOTH",
"87 697 OFFCURVE",
"64 710 OFFCURVE",
"53 721 CURVE",
"40 710 LINE",
"59 682 OFFCURVE",
"99 657 OFFCURVE",
"142 657 CURVE SMOOTH",
"207 657 OFFCURVE",
"242 684 OFFCURVE",
"291 684 CURVE SMOOTH",
"374 684 OFFCURVE",
"379 639 OFFCURVE",
"379 581 CURVE SMOOTH"
);
},
{
closed = 0;
nodes = (
"386 566 LINE"
);
},
{
closed = 1;
nodes = (
"214 385 OFFCURVE",
"224 385 CURVE SMOOTH",
"232 385 OFFCURVE",
"245 394 OFFCURVE",
"245 407 CURVE SMOOTH",
"245 423 OFFCURVE",
"227 439 OFFCURVE",
"208 439 CURVE SMOOTH",
"192 439 OFFCURVE",
"170 425 OFFCURVE",
"170 400 CURVE SMOOTH",
"170 365 OFFCURVE",
"195 357 OFFCURVE",
"240 353 CURVE SMOOTH",
"253 352 OFFCURVE",
"470 351 OFFCURVE",
"502 340 CURVE SMOOTH",
"525 332 OFFCURVE",
"535 316 OFFCURVE",
"535 298 CURVE SMOOTH",
"535 279 OFFCURVE",
"523 258 OFFCURVE",
"500 247 CURVE SMOOTH",
"485 240 OFFCURVE",
"475 244 OFFCURVE",
"468 240 CURVE SMOOTH",
"465 238 OFFCURVE",
"464 235 OFFCURVE",
"464 233 CURVE SMOOTH",
"464 228 OFFCURVE",
"468 224 OFFCURVE",
"474 224 CURVE SMOOTH",
"481 224 OFFCURVE",
"492 228 OFFCURVE",
"504 234 CURVE SMOOTH",
"538 252 OFFCURVE",
"557 283 OFFCURVE",
"557 310 CURVE SMOOTH",
"557 331 OFFCURVE",
"547 350 OFFCURVE",
"524 361 CURVE SMOOTH",
"512 367 OFFCURVE",
"462 369 OFFCURVE",
"408 369 CURVE SMOOTH",
"338 369 OFFCURVE",
"260 366 OFFCURVE",
"246 366 CURVE SMOOTH",
"209 366 OFFCURVE",
"197 373 OFFCURVE",
"187 388 CURVE SMOOTH",
"184 393 OFFCURVE",
"182 398 OFFCURVE",
"182 402 CURVE SMOOTH",
"182 414 OFFCURVE",
"191 424 OFFCURVE",
"204 424 CURVE SMOOTH",
"210 424 OFFCURVE",
"216 421 OFFCURVE",
"216 415 CURVE SMOOTH",
"216 410 OFFCURVE",
"208 407 OFFCURVE",
"208 401 CURVE SMOOTH",
"208 395 OFFCURVE"
);
}
);
width = 587;
},
{
layerId = "537B1E8F-B3C8-45B3-90C6-0C31F5F160D0";
name = Light;
paths = (
{
closed = 1;
nodes = (
"305 -17 OFFCURVE",
"312 -4 OFFCURVE",
"312 14 CURVE SMOOTH",
"312 101 OFFCURVE",
"322 150 OFFCURVE",
"338 228 CURVE SMOOTH",
"373 390 OFFCURVE",
"408 518 OFFCURVE",
"408 604 CURVE SMOOTH",
"408 688 OFFCURVE",
"373 724 OFFCURVE",
"287 724 CURVE SMOOTH",
"216 724 OFFCURVE",
"197 705 OFFCURVE",
"121 705 CURVE SMOOTH",
"89 705 OFFCURVE",
"61 713 OFFCURVE",
"43 727 CURVE",
"40 725 LINE",
"62 697 OFFCURVE",
"99 678 OFFCURVE",
"136 678 CURVE SMOOTH",
"202 678 OFFCURVE",
"238 706 OFFCURVE",
"291 706 CURVE SMOOTH",
"385 706 OFFCURVE",
"392 652 OFFCURVE",
"392 591 CURVE SMOOTH",
"392 494 OFFCURVE",
"280 18 OFFCURVE",
"280 14 CURVE SMOOTH",
"280 -6 OFFCURVE",
"286 -17 OFFCURVE",
"297 -17 CURVE SMOOTH"
);
},
{
closed = 1;
nodes = (
"488 226 OFFCURVE",
"505 229 OFFCURVE",
"518 236 CURVE SMOOTH",
"549 251 OFFCURVE",
"561 281 OFFCURVE",
"561 309 CURVE SMOOTH",
"561 329 OFFCURVE",
"549 346 OFFCURVE",
"531 356 CURVE SMOOTH",
"518 363 OFFCURVE",
"480 363 OFFCURVE",
"414 363 CURVE SMOOTH",
"359 363 OFFCURVE",
"238 363 OFFCURVE",
"235 363 CURVE SMOOTH",
"184 363 OFFCURVE",
"174 375 OFFCURVE",
"174 403 CURVE SMOOTH",
"174 424 OFFCURVE",
"194 434 OFFCURVE",
"202 434 CURVE SMOOTH",
"213 434 OFFCURVE",
"222 428 OFFCURVE",
"222 418 CURVE SMOOTH",
"222 407 OFFCURVE",
"213 408 OFFCURVE",
"213 404 CURVE SMOOTH",
"213 399 OFFCURVE",
"217 394 OFFCURVE",
"222 394 CURVE SMOOTH",
"228 394 OFFCURVE",
"235 403 OFFCURVE",
"235 410 CURVE SMOOTH",
"235 422 OFFCURVE",
"219 438 OFFCURVE",
"205 438 CURVE SMOOTH",
"191 438 OFFCURVE",
"168 432 OFFCURVE",
"168 405 CURVE SMOOTH",
"168 367 OFFCURVE",
"195 358 OFFCURVE",
"245 358 CURVE SMOOTH",
"249 358 OFFCURVE",
"490 356 OFFCURVE",
"518 346 CURVE SMOOTH",
"543 338 OFFCURVE",
"556 320 OFFCURVE",
"554 296 CURVE SMOOTH",
"552 272 OFFCURVE",
"538 250 OFFCURVE",
"513 239 CURVE SMOOTH",
"494 230 OFFCURVE",
"484 231 OFFCURVE",
"480 229 CURVE",
"480 229 LINE",
"480 229 OFFCURVE",
"480 229 OFFCURVE",
"480 228 CURVE SMOOTH",
"480 226 OFFCURVE",
"480 226 OFFCURVE",
"482 226 CURVE SMOOTH"
);
}
);
width = 601;
}
);
unicode = 0037;
},
{
glyphname = eight;
lastChange = "2017-03-22 17:10:49 +0000";
layers = (
{
layerId = "CCC4B6D6-30B5-49E5-84BA-D7A51BB31B72";
name = Regular;
paths = (
{
closed = 1;
nodes = (
"316 -7 OFFCURVE",
"372 43 OFFCURVE",
"372 138 CURVE SMOOTH",
"372 181 OFFCURVE",
"352 253 OFFCURVE",
"316 294 CURVE SMOOTH",
"261 356 LINE",
"261 363 LINE",
"336 405 OFFCURVE",
"389 477 OFFCURVE",
"389 546 CURVE SMOOTH",
"389 629 OFFCURVE",
"290 715 OFFCURVE",
"212 715 CURVE SMOOTH",
"132 715 OFFCURVE",
"54 649 OFFCURVE",
"54 557 CURVE SMOOTH",
"54 471 OFFCURVE",
"98 420 OFFCURVE",
"187 363 CURVE",
"187 357 LINE",
"118 319 OFFCURVE",
"40 251 OFFCURVE",
"40 160 CURVE SMOOTH",
"40 74 OFFCURVE",
"111 -7 OFFCURVE",
"211 -7 CURVE SMOOTH"
);
},
{
closed = 1;
nodes = (
"172 35 OFFCURVE",
"82 89 OFFCURVE",
"82 164 CURVE SMOOTH",
"82 262 OFFCURVE",
"161 328 OFFCURVE",
"217 328 CURVE SMOOTH",
"270 328 OFFCURVE",
"338 245 OFFCURVE",
"338 165 CURVE SMOOTH",
"338 114 OFFCURVE",
"323 35 OFFCURVE",
"227 35 CURVE SMOOTH"
);
},
{
closed = 1;
nodes = (
"163 385 OFFCURVE",
"101 489 OFFCURVE",
"101 560 CURVE SMOOTH",
"101 629 OFFCURVE",
"134 675 OFFCURVE",
"211 675 CURVE SMOOTH",
"277 675 OFFCURVE",
"340 617 OFFCURVE",
"340 548 CURVE SMOOTH",
"340 477 OFFCURVE",
"281 385 OFFCURVE",
"229 385 CURVE SMOOTH"
);
}
);
width = 429;
},
{
layerId = "537B1E8F-B3C8-45B3-90C6-0C31F5F160D0";
name = Light;
paths = (
{
closed = 1;
nodes = (
"316 -16 OFFCURVE",
"371 33 OFFCURVE",
"371 129 CURVE SMOOTH",
"371 180 OFFCURVE",
"345 251 OFFCURVE",
"314 287 CURVE SMOOTH",
"254 355 LINE",
"254 368 LINE",
"335 411 OFFCURVE",
"388 486 OFFCURVE",
"388 556 CURVE SMOOTH",
"388 634 OFFCURVE",
"293 725 OFFCURVE",
"212 725 CURVE SMOOTH",
"126 725 OFFCURVE",
"55 653 OFFCURVE",
"55 567 CURVE SMOOTH",
"55 485 OFFCURVE",
"91 433 OFFCURVE",
"194 368 CURVE",
"194 354 LINE",
"96 301 OFFCURVE",
"40 227 OFFCURVE",
"40 152 CURVE SMOOTH",
"40 60 OFFCURVE",
"116 -16 OFFCURVE",
"211 -16 CURVE SMOOTH"
);
},
{
closed = 1;
nodes = (
"168 14 OFFCURVE",
"67 73 OFFCURVE",
"67 156 CURVE SMOOTH",
"67 262 OFFCURVE",
"155 335 OFFCURVE",
"217 335 CURVE SMOOTH",
"280 335 OFFCURVE",
"352 241 OFFCURVE",
"352 157 CURVE SMOOTH",
"352 65 OFFCURVE",
"308 14 OFFCURVE",
"227 14 CURVE SMOOTH"
);
},
{
closed = 1;
nodes = (
"155 380 OFFCURVE",
"87 494 OFFCURVE",
"87 570 CURVE SMOOTH",
"87 653 OFFCURVE",
"131 698 OFFCURVE",
"211 698 CURVE SMOOTH",
"286 698 OFFCURVE",
"354 632 OFFCURVE",
"354 558 CURVE SMOOTH",
"354 477 OFFCURVE",
"287 380 OFFCURVE",
"229 380 CURVE SMOOTH"
);
}
);
width = 428;
}
);
unicode = 0038;
},
{
glyphname = nine;
lastChange = "2017-03-22 17:11:17 +0000";
layers = (
{
layerId = "CCC4B6D6-30B5-49E5-84BA-D7A51BB31B72";
name = Regular;
paths = (
{
closed = 1;
nodes = (
"120 719 OFFCURVE",
"40 607 OFFCURVE",
"40 490 CURVE SMOOTH",
"40 348 OFFCURVE",
"112 243 OFFCURVE",
"235 243 CURVE SMOOTH",
"324 243 OFFCURVE",
"371 300 OFFCURVE",
"394 355 CURVE",
"396 355 LINE",
"415 128 OFFCURVE",
"297 -52 OFFCURVE",
"160 46 CURVE SMOOTH",
"144 57 OFFCURVE",
"124 61 OFFCURVE",
"114 52 CURVE SMOOTH",
"102 41 OFFCURVE",
"105 28 OFFCURVE",
"118 13 CURVE SMOOTH",
"163 -36 OFFCURVE",
"411 -18 OFFCURVE",
"424 261 CURVE SMOOTH",
"439 579 OFFCURVE",
"367 719 OFFCURVE",
"235 719 CURVE SMOOTH"
);
},
{
closed = 1;
nodes = (
"328 702 OFFCURVE",
"394 582 OFFCURVE",
"394 477 CURVE SMOOTH",
"394 343 OFFCURVE",
"337 264 OFFCURVE",
"235 264 CURVE SMOOTH",
"148 264 OFFCURVE",
"81 353 OFFCURVE",
"81 490 CURVE SMOOTH",
"81 564 OFFCURVE",
"120 702 OFFCURVE",
"235 702 CURVE SMOOTH"
);
}
);
width = 466;
},
{
layerId = "537B1E8F-B3C8-45B3-90C6-0C31F5F160D0";
name = Light;
paths = (
{
closed = 1;
nodes = (
"125 724 OFFCURVE",
"40 611 OFFCURVE",
"40 487 CURVE SMOOTH",
"40 340 OFFCURVE",
"115 242 OFFCURVE",
"229 240 CURVE SMOOTH",
"301 239 OFFCURVE",
"360 271 OFFCURVE",
"393 358 CURVE",
"395 358 LINE",
"424 110 OFFCURVE",
"299 -53 OFFCURVE",
"148 28 CURVE SMOOTH",
"132 36 OFFCURVE",
"118 41 OFFCURVE",
"112 35 CURVE SMOOTH",
"105 28 OFFCURVE",
"106 19 OFFCURVE",
"117 6 CURVE SMOOTH",
"158 -43 OFFCURVE",
"399 -23 OFFCURVE",
"413 254 CURVE SMOOTH",
"427 558 OFFCURVE",
"365 724 OFFCURVE",
"230 724 CURVE SMOOTH"
);
},
{
closed = 1;
nodes = (
"321 712 OFFCURVE",
"391 595 OFFCURVE",
"391 469 CURVE SMOOTH",
"391 326 OFFCURVE",
"338 255 OFFCURVE",
"229 255 CURVE SMOOTH",
"131 255 OFFCURVE",
"63 348 OFFCURVE",
"63 487 CURVE SMOOTH",
"63 564 OFFCURVE",
"105 712 OFFCURVE",
"229 712 CURVE SMOOTH"
);
}
);
width = 600;
}
);
unicode = 0039;
},
{
glyphname = asterisk;
lastChange = "2017-03-22 17:31:10 +0000";
layers = (
{
layerId = "CCC4B6D6-30B5-49E5-84BA-D7A51BB31B72";
name = Regular;
paths = (
{
closed = 1;
nodes = (
"168 692 LINE",
"172 696 OFFCURVE",
"178 696 OFFCURVE",
"181 692 CURVE",
"185 688 OFFCURVE",
"185 682 OFFCURVE",
"182 679 CURVE",
"169 667 OFFCURVE",
"156 656 OFFCURVE",
"143 644 CURVE",
"192 644 LINE SMOOTH",
"198 644 OFFCURVE",
"202 640 OFFCURVE",
"202 634 CURVE SMOOTH",
"202 629 OFFCURVE",
"198 625 OFFCURVE",
"192 624 CURVE",
"176 624 OFFCURVE",
"160 625 OFFCURVE",
"143 625 CURVE",
"154 614 OFFCURVE",
"164 602 OFFCURVE",
"175 591 CURVE SMOOTH",
"179 587 OFFCURVE",
"178 581 OFFCURVE",
"175 578 CURVE SMOOTH",
"171 574 OFFCURVE",
"165 573 OFFCURVE",
"161 577 CURVE",
"151 588 OFFCURVE",
"140 599 OFFCURVE",
"130 611 CURVE",
"128 595 OFFCURVE",
"127 580 OFFCURVE",
"126 565 CURVE",
"126 559 OFFCURVE",
"121 555 OFFCURVE",
"116 555 CURVE SMOOTH",
"111 555 OFFCURVE",
"106 559 OFFCURVE",
"107 564 CURVE",
"108 581 OFFCURVE",
"109 597 OFFCURVE",
"110 614 CURVE",
"74 580 LINE SMOOTH",
"70 576 OFFCURVE",
"64 576 OFFCURVE",
"61 579 CURVE SMOOTH",
"57 583 OFFCURVE",
"57 589 OFFCURVE",
"60 593 CURVE",
"72 604 OFFCURVE",
"84 615 OFFCURVE",
"95 626 CURVE",
"80 626 OFFCURVE",
"65 627 OFFCURVE",
"50 628 CURVE",
"44 627 OFFCURVE",
"40 632 OFFCURVE",
"40 637 CURVE SMOOTH",
"40 642 OFFCURVE",
"44 647 OFFCURVE",
"50 647 CURVE",
"66 646 OFFCURVE",
"82 646 OFFCURVE",
"98 645 CURVE",
"88 657 OFFCURVE",
"77 669 OFFCURVE",
"67 680 CURVE",
"63 684 OFFCURVE",
"64 690 OFFCURVE",
"67 694 CURVE",
"71 698 OFFCURVE",
"77 698 OFFCURVE",
"81 694 CURVE",
"92 682 OFFCURVE",
"103 670 OFFCURVE",
"113 658 CURVE",
"116 707 LINE",
"116 712 OFFCURVE",
"121 716 OFFCURVE",
"126 717 CURVE",
"131 717 OFFCURVE",
"135 713 OFFCURVE",
"135 708 CURVE SMOOTH",
"135 692 OFFCURVE",
"134 676 OFFCURVE",
"133 660 CURVE"
);
}
);
width = 242;
},
{
layerId = "537B1E8F-B3C8-45B3-90C6-0C31F5F160D0";
name = Light;
paths = (
{
closed = 1;
nodes = (
"120 570 OFFCURVE",
"123 573 OFFCURVE",
"123 577 CURVE",
"124 592 OFFCURVE",
"125 607 OFFCURVE",
"127 623 CURVE",
"132 625 LINE",
"142 613 OFFCURVE",
"153 602 OFFCURVE",
"163 591 CURVE",
"165 589 OFFCURVE",
"169 588 OFFCURVE",
"173 592 CURVE SMOOTH",
"175 594 OFFCURVE",
"175 598 OFFCURVE",
"173 601 CURVE SMOOTH",
"164 614 OFFCURVE",
"152 624 OFFCURVE",
"141 635 CURVE",
"143 640 LINE",
"160 640 OFFCURVE",
"176 639 OFFCURVE",
"192 639 CURVE",
"196 640 OFFCURVE",
"199 643 OFFCURVE",
"199 646 CURVE SMOOTH",
"199 651 OFFCURVE",
"196 653 OFFCURVE",
"192 653 CURVE SMOOTH",
"143 653 LINE",
"141 658 LINE",
"154 670 OFFCURVE",
"167 681 OFFCURVE",
"180 693 CURVE",
"182 695 OFFCURVE",
"182 699 OFFCURVE",
"179 702 CURVE",
"177 705 OFFCURVE",
"173 705 OFFCURVE",
"170 702 CURVE",
"135 670 LINE",
"130 672 LINE",
"131 688 OFFCURVE",
"132 704 OFFCURVE",
"132 720 CURVE SMOOTH",
"132 724 OFFCURVE",
"129 726 OFFCURVE",
"126 726 CURVE",
"127 726 LINE",
"122 725 OFFCURVE",
"119 722 OFFCURVE",
"119 719 CURVE",
"116 670 LINE",
"111 668 LINE",
"101 680 OFFCURVE",
"90 692 OFFCURVE",
"79 704 CURVE",
"76 707 OFFCURVE",
"72 707 OFFCURVE",
"69 704 CURVE",
"67 701 OFFCURVE",
"66 697 OFFCURVE",
"69 694 CURVE",
"79 683 OFFCURVE",
"90 671 OFFCURVE",
"100 659 CURVE",
"98 654 LINE",
"82 655 OFFCURVE",
"66 655 OFFCURVE",
"50 656 CURVE",
"46 656 OFFCURVE",
"43 653 OFFCURVE",
"43 649 CURVE SMOOTH",
"43 645 OFFCURVE",
"46 642 OFFCURVE",
"50 643 CURVE",
"50 643 LINE",
"65 642 OFFCURVE",
"80 641 OFFCURVE",
"95 641 CURVE",
"97 636 LINE",
"86 625 OFFCURVE",
"74 614 OFFCURVE",
"62 603 CURVE",
"62 603 LINE",
"60 600 OFFCURVE",
"60 596 OFFCURVE",
"63 593 CURVE SMOOTH",
"65 591 OFFCURVE",
"69 591 OFFCURVE",
"72 594 CURVE SMOOTH",
"108 628 LINE",
"113 626 LINE",
"112 609 OFFCURVE",
"111 593 OFFCURVE",
"110 576 CURVE",
"109 573 OFFCURVE",
"112 570 OFFCURVE",
"116 570 CURVE SMOOTH"
);
}
);
width = 242;
}
);
unicode = 002A;
},
{
glyphname = backslash;
lastChange = "2017-03-22 15:47:12 +0000";
layers = (
{
layerId = "CCC4B6D6-30B5-49E5-84BA-D7A51BB31B72";
name = Regular;
paths = (
{
closed = 1;
nodes = (
"244 185 CURVE SMOOTH",
"261 123 OFFCURVE",
"268 67 OFFCURVE",
"283 21 CURVE SMOOTH",
"290 -1 OFFCURVE",
"299 -9 OFFCURVE",
"310 -9 CURVE SMOOTH",
"325 -9 OFFCURVE",
"338 0 OFFCURVE",
"338 22 CURVE SMOOTH",
"338 29 OFFCURVE",
"337 35 OFFCURVE",
"335 40 CURVE SMOOTH",
"335 41 OFFCURVE",
"229 337 OFFCURVE",
"225 352 CURVE SMOOTH",
"204 430 OFFCURVE",
"153 601 OFFCURVE",
"129 670 CURVE SMOOTH",
"113 717 OFFCURVE",
"90 717 OFFCURVE",
"72 717 CURVE SMOOTH",
"61 717 OFFCURVE",
"40 704 OFFCURVE",
"40 679 CURVE SMOOTH",
"40 670 OFFCURVE",
"43 659 OFFCURVE",
"49 647 CURVE SMOOTH",
"79 586 OFFCURVE",
"170 455 OFFCURVE"
);
}
);
width = 378;
},
{
layerId = "537B1E8F-B3C8-45B3-90C6-0C31F5F160D0";
name = Light;
paths = (
{
closed = 1;
nodes = (
"79 598 OFFCURVE",
"176 461 OFFCURVE",
"252 180 CURVE SMOOTH",
"269 115 OFFCURVE",
"277 57 OFFCURVE",
"292 10 CURVE SMOOTH",
"299 -9 OFFCURVE",
"305 -16 OFFCURVE",
"312 -16 CURVE SMOOTH",
"326 -16 OFFCURVE",
"333 -8 OFFCURVE",
"333 9 CURVE SMOOTH",
"333 16 OFFCURVE",
"332 24 OFFCURVE",
"330 28 CURVE",
"326 38 OFFCURVE",
"218 341 OFFCURVE",
"215 350 CURVE SMOOTH",
"195 431 OFFCURVE",
"141 608 OFFCURVE",
"116 680 CURVE SMOOTH",
"97 733 OFFCURVE",
"40 741 OFFCURVE",
"40 691 CURVE SMOOTH",
"40 683 OFFCURVE",
"43 671 OFFCURVE",
"48 661 CURVE SMOOTH"
);
}
);
width = 373;
}
);
unicode = 005C;
},
{
glyphname = periodcentered;
lastChange = "2017-03-22 15:49:37 +0000";
layers = (
{
layerId = "CCC4B6D6-30B5-49E5-84BA-D7A51BB31B72";
name = Regular;
paths = (
{
closed = 1;
nodes = (
"116 343 OFFCURVE",
"89 343 CURVE SMOOTH",
"64 343 OFFCURVE",
"40 333 OFFCURVE",
"40 304 CURVE SMOOTH",
"40 261 OFFCURVE",
"68 258 OFFCURVE",
"100 258 CURVE SMOOTH",
"126 258 OFFCURVE",
"143 282 OFFCURVE",
"143 304 CURVE SMOOTH",
"143 330 OFFCURVE"
);
}
);
width = 183;
},
{
layerId = "537B1E8F-B3C8-45B3-90C6-0C31F5F160D0";
name = Light;
paths = (
{
closed = 1;
nodes = (
"127 323 OFFCURVE",
"109 336 OFFCURVE",
"81 336 CURVE SMOOTH",
"54 336 OFFCURVE",
"40 325 OFFCURVE",
"40 304 CURVE SMOOTH",
"40 267 OFFCURVE",
"60 265 OFFCURVE",
"92 265 CURVE SMOOTH",
"111 265 OFFCURVE",
"127 283 OFFCURVE",
"127 304 CURVE SMOOTH"
);
}
);
width = 167;
}
);
unicode = 00B7;
},
{
glyphname = bullet;
lastChange = "2017-03-22 15:50:02 +0000";
layers = (
{
layerId = "CCC4B6D6-30B5-49E5-84BA-D7A51BB31B72";
name = Regular;
paths = (
{
closed = 1;
nodes = (
"192 442 OFFCURVE",
"138 442 CURVE SMOOTH",
"88 442 OFFCURVE",
"40 422 OFFCURVE",
"40 364 CURVE SMOOTH",
"40 278 OFFCURVE",
"96 272 OFFCURVE",
"160 272 CURVE SMOOTH",
"212 272 OFFCURVE",
"246 320 OFFCURVE",
"246 364 CURVE SMOOTH",
"246 416 OFFCURVE"
);
}
);
width = 286;
},
{
layerId = "537B1E8F-B3C8-45B3-90C6-0C31F5F160D0";
name = Light;
paths = (
{
closed = 1;
nodes = (
"230 406 OFFCURVE",
"189 435 OFFCURVE",
"130 435 CURVE SMOOTH",
"72 435 OFFCURVE",
"40 409 OFFCURVE",
"40 364 CURVE SMOOTH",
"40 284 OFFCURVE",
"88 279 OFFCURVE",
"152 279 CURVE SMOOTH",
"194 279 OFFCURVE",
"230 318 OFFCURVE",
"230 364 CURVE SMOOTH"
);
}
);
width = 270;
}
);
unicode = 2022;
},
{
glyphname = colon;
lastChange = "2017-03-22 15:50:24 +0000";
layers = (
{
guideLines = (
{
position = "{146, 416}";
},
{
position = "{182, 526}";
},
{
position = "{76, 114}";
},
{
position = "{103, 0}";
}
);
layerId = "CCC4B6D6-30B5-49E5-84BA-D7A51BB31B72";
name = Regular;
paths = (
{
closed = 1;
nodes = (
"109 58 OFFCURVE",
"91 58 CURVE SMOOTH",
"74 58 OFFCURVE",
"58 51 OFFCURVE",
"58 32 CURVE SMOOTH",
"58 3 OFFCURVE",
"77 1 OFFCURVE",
"98 1 CURVE SMOOTH",
"116 1 OFFCURVE",
"127 17 OFFCURVE",
"127 32 CURVE SMOOTH",
"127 49 OFFCURVE"
);
},
{
closed = 1;
nodes = (
"109 435 OFFCURVE",
"91 435 CURVE SMOOTH",
"74 435 OFFCURVE",
"58 428 OFFCURVE",
"58 409 CURVE SMOOTH",
"58 380 OFFCURVE",
"77 378 OFFCURVE",
"98 378 CURVE SMOOTH",
"116 378 OFFCURVE",
"127 394 OFFCURVE",
"127 409 CURVE SMOOTH",
"127 426 OFFCURVE"
);
}
);
width = 185;
},
{
layerId = "537B1E8F-B3C8-45B3-90C6-0C31F5F160D0";
name = Light;
paths = (
{
closed = 1;
nodes = (
"93 43 OFFCURVE",
"81 51 OFFCURVE",
"65 51 CURVE SMOOTH",
"48 51 OFFCURVE",
"40 44 OFFCURVE",
"40 32 CURVE SMOOTH",
"40 9 OFFCURVE",
"51 8 OFFCURVE",
"72 8 CURVE SMOOTH",
"83 8 OFFCURVE",
"93 19 OFFCURVE",
"93 32 CURVE SMOOTH"
);
},
{
closed = 1;
nodes = (
"93 420 OFFCURVE",
"81 428 OFFCURVE",
"65 428 CURVE SMOOTH",
"48 428 OFFCURVE",
"40 421 OFFCURVE",
"40 409 CURVE SMOOTH",
"40 386 OFFCURVE",
"51 385 OFFCURVE",
"72 385 CURVE SMOOTH",
"83 385 OFFCURVE",
"93 396 OFFCURVE",
"93 409 CURVE SMOOTH"
);
}
);
width = 133;
}
);
unicode = 003A;
},
{
glyphname = comma;
lastChange = "2017-03-22 20:12:12 +0000";
layers = (
{
layerId = "CCC4B6D6-30B5-49E5-84BA-D7A51BB31B72";
name = Regular;
paths = (
{
closed = 1;
nodes = (
"96 -55 OFFCURVE",
"109 -37 OFFCURVE",
"114 -20 CURVE SMOOTH",
"116 -13 OFFCURVE",
"117 -6 OFFCURVE",
"117 1 CURVE SMOOTH",
"117 31 OFFCURVE",
"101 60 OFFCURVE",
"74 60 CURVE SMOOTH",
"57 60 OFFCURVE",
"43 42 OFFCURVE",
"43 25 CURVE SMOOTH",
"43 -5 OFFCURVE",
"78 -4 OFFCURVE",
"78 -16 CURVE SMOOTH",
"78 -35 OFFCURVE",
"56 -54 OFFCURVE",
"45 -61 CURVE SMOOTH",
"42 -63 OFFCURVE",
"40 -66 OFFCURVE",
"40 -71 CURVE SMOOTH",
"40 -78 OFFCURVE",
"47 -81 OFFCURVE",
"56 -81 CURVE SMOOTH",
"64 -81 OFFCURVE",
"71 -77 OFFCURVE",
"79 -70 CURVE SMOOTH"
);
}
);
width = 157;
},
{
layerId = "537B1E8F-B3C8-45B3-90C6-0C31F5F160D0";
name = Light;
paths = (
{
closed = 1;
nodes = (
"86 -62 OFFCURVE",
"100 -43 OFFCURVE",
"104 -25 CURVE SMOOTH",
"106 -19 OFFCURVE",
"107 -12 OFFCURVE",
"107 -4 CURVE SMOOTH",
"107 29 OFFCURVE",
"91 53 OFFCURVE",
"69 53 CURVE SMOOTH",
"55 53 OFFCURVE",
"43 38 OFFCURVE",
"43 22 CURVE SMOOTH",
"43 -5 OFFCURVE",
"82 -1 OFFCURVE",
"82 -23 CURVE SMOOTH",
"82 -41 OFFCURVE",
"65 -64 OFFCURVE",
"41 -79 CURVE",
"41 -79 OFFCURVE",
"40 -82 OFFCURVE",
"40 -84 CURVE SMOOTH",
"40 -86 OFFCURVE",
"42 -87 OFFCURVE",
"49 -87 CURVE SMOOTH",
"54 -87 OFFCURVE",
"60 -85 OFFCURVE",
"69 -77 CURVE SMOOTH"
);
}
);
width = 141;
}
);
unicode = 002C;
},
{
glyphname = ellipsis;
lastChange = "2017-03-22 15:51:47 +0000";
layers = (
{
layerId = "CCC4B6D6-30B5-49E5-84BA-D7A51BB31B72";
name = Regular;
paths = (
{
closed = 1;
nodes = (
"91 48 OFFCURVE",
"73 48 CURVE SMOOTH",
"56 48 OFFCURVE",
"40 41 OFFCURVE",
"40 22 CURVE SMOOTH",
"40 -7 OFFCURVE",
"59 -9 OFFCURVE",
"80 -9 CURVE SMOOTH",
"98 -9 OFFCURVE",
"109 7 OFFCURVE",
"109 22 CURVE SMOOTH",
"109 39 OFFCURVE"
);
},
{
closed = 1;
nodes = (
"240 48 OFFCURVE",
"222 48 CURVE SMOOTH",
"205 48 OFFCURVE",
"189 41 OFFCURVE",
"189 22 CURVE SMOOTH",
"189 -7 OFFCURVE",
"208 -9 OFFCURVE",
"229 -9 CURVE SMOOTH",
"247 -9 OFFCURVE",
"258 7 OFFCURVE",
"258 22 CURVE SMOOTH",
"258 39 OFFCURVE"
);
},
{
closed = 1;
nodes = (
"384 48 OFFCURVE",
"366 48 CURVE SMOOTH",
"349 48 OFFCURVE",
"333 41 OFFCURVE",
"333 22 CURVE SMOOTH",
"333 -7 OFFCURVE",
"352 -9 OFFCURVE",
"373 -9 CURVE SMOOTH",
"391 -9 OFFCURVE",
"402 7 OFFCURVE",
"402 22 CURVE SMOOTH",
"402 39 OFFCURVE"
);
}
);
width = 442;
},
{
layerId = "537B1E8F-B3C8-45B3-90C6-0C31F5F160D0";
name = Light;
paths = (
{
closed = 1;
nodes = (
"93 20 OFFCURVE",
"81 28 OFFCURVE",
"65 28 CURVE SMOOTH",
"48 28 OFFCURVE",
"40 21 OFFCURVE",
"40 9 CURVE SMOOTH",
"40 -14 OFFCURVE",
"51 -15 OFFCURVE",
"72 -15 CURVE SMOOTH",
"83 -15 OFFCURVE",
"93 -4 OFFCURVE",
"93 9 CURVE SMOOTH"
);
},
{
closed = 1;
nodes = (
"242 20 OFFCURVE",
"230 28 OFFCURVE",
"214 28 CURVE SMOOTH",
"197 28 OFFCURVE",
"189 21 OFFCURVE",
"189 9 CURVE SMOOTH",
"189 -14 OFFCURVE",
"200 -15 OFFCURVE",
"221 -15 CURVE SMOOTH",
"232 -15 OFFCURVE",
"242 -4 OFFCURVE",
"242 9 CURVE SMOOTH"
);
},
{
closed = 1;
nodes = (
"386 20 OFFCURVE",
"374 28 OFFCURVE",
"358 28 CURVE SMOOTH",
"341 28 OFFCURVE",
"333 21 OFFCURVE",
"333 9 CURVE SMOOTH",
"333 -14 OFFCURVE",
"344 -15 OFFCURVE",
"365 -15 CURVE SMOOTH",
"376 -15 OFFCURVE",
"386 -4 OFFCURVE",
"386 9 CURVE SMOOTH"
);
}
);
width = 426;
}
);
unicode = 2026;
},
{
glyphname = exclam;
lastChange = "2017-03-22 19:14:26 +0000";
layers = (
{
layerId = "CCC4B6D6-30B5-49E5-84BA-D7A51BB31B72";
name = Regular;
paths = (
{
closed = 1;
nodes = (
"138 616 OFFCURVE",
"138 670 CURVE SMOOTH",
"138 710 OFFCURVE",
"113 719 OFFCURVE",
"105 719 CURVE SMOOTH",
"97 719 OFFCURVE",
"71 710 OFFCURVE",
"71 670 CURVE SMOOTH",
"71 611 OFFCURVE",
"69 469 OFFCURVE",
"69 404 CURVE SMOOTH",
"69 391 OFFCURVE",
"55 139 OFFCURVE",
"55 138 CURVE SMOOTH",
"55 120 OFFCURVE",
"61 105 OFFCURVE",
"76 105 CURVE SMOOTH",
"90 105 OFFCURVE",
"99 111 OFFCURVE",
"99 135 CURVE SMOOTH",
"99 174 OFFCURVE",
"93 219 OFFCURVE",
"93 271 CURVE SMOOTH",
"93 495 OFFCURVE"
);
},
{
closed = 1;
nodes = (
"91 49 OFFCURVE",
"73 49 CURVE SMOOTH",
"56 49 OFFCURVE",
"40 42 OFFCURVE",
"40 23 CURVE SMOOTH",
"40 -6 OFFCURVE",
"59 -8 OFFCURVE",
"80 -8 CURVE SMOOTH",
"98 -8 OFFCURVE",
"109 8 OFFCURVE",
"109 23 CURVE SMOOTH",
"109 40 OFFCURVE"
);
}
);
width = 188;
},
{
layerId = "537B1E8F-B3C8-45B3-90C6-0C31F5F160D0";
name = Light;
paths = (
{
closed = 1;
nodes = (
"78 501 OFFCURVE",
"125 628 OFFCURVE",
"125 684 CURVE SMOOTH",
"125 707 OFFCURVE",
"114 727 OFFCURVE",
"99 727 CURVE SMOOTH",
"85 727 OFFCURVE",
"72 708 OFFCURVE",
"72 684 CURVE SMOOTH",
"72 622 OFFCURVE",
"69 475 OFFCURVE",
"69 406 CURVE SMOOTH",
"69 393 OFFCURVE",
"56 131 OFFCURVE",
"56 130 CURVE SMOOTH",
"56 112 OFFCURVE",
"61 102 OFFCURVE",
"68 102 CURVE SMOOTH",
"80 102 OFFCURVE",
"84 108 OFFCURVE",
"84 127 CURVE SMOOTH",
"84 168 OFFCURVE",
"78 214 OFFCURVE",
"78 268 CURVE SMOOTH"
);
},
{
closed = 1;
nodes = (
"95 21 OFFCURVE",
"82 30 OFFCURVE",
"66 30 CURVE SMOOTH",
"48 30 OFFCURVE",
"40 23 OFFCURVE",
"40 10 CURVE SMOOTH",
"40 -13 OFFCURVE",
"52 -14 OFFCURVE",
"73 -14 CURVE SMOOTH",
"84 -14 OFFCURVE",
"95 -4 OFFCURVE",
"95 10 CURVE SMOOTH"
);
}
);
width = 165;
}
);
unicode = 0021;
},
{
glyphname = exclamdown;
lastChange = "2017-03-21 22:10:41 +0000";
layers = (
{
layerId = "CCC4B6D6-30B5-49E5-84BA-D7A51BB31B72";
name = Regular;
paths = (
{
closed = 1;
nodes = (
"93 440 CURVE SMOOTH",
"93 492 OFFCURVE",
"99 537 OFFCURVE",
"99 576 CURVE SMOOTH",
"99 600 OFFCURVE",
"90 606 OFFCURVE",
"76 606 CURVE SMOOTH",
"61 606 OFFCURVE",
"55 591 OFFCURVE",
"55 573 CURVE SMOOTH",
"55 572 OFFCURVE",
"69 320 OFFCURVE",
"69 307 CURVE SMOOTH",
"69 242 OFFCURVE",
"71 100 OFFCURVE",
"71 41 CURVE SMOOTH",
"71 1 OFFCURVE",
"97 -8 OFFCURVE",
"105 -8 CURVE SMOOTH",
"113 -8 OFFCURVE",
"138 1 OFFCURVE",
"138 41 CURVE SMOOTH",
"138 95 OFFCURVE",
"93 216 OFFCURVE"
);
},
{
closed = 1;
nodes = (
"109 688 CURVE SMOOTH",
"109 703 OFFCURVE",
"98 719 OFFCURVE",
"80 719 CURVE SMOOTH",
"59 719 OFFCURVE",
"40 717 OFFCURVE",
"40 688 CURVE SMOOTH",
"40 669 OFFCURVE",
"56 662 OFFCURVE",
"73 662 CURVE SMOOTH",
"91 662 OFFCURVE",
"109 671 OFFCURVE"
);
}
);
width = 183;
},
{
layerId = "537B1E8F-B3C8-45B3-90C6-0C31F5F160D0";
name = Light;
paths = (
{
closed = 1;
nodes = (
"87 212 OFFCURVE",
"40 85 OFFCURVE",
"40 29 CURVE SMOOTH",
"40 6 OFFCURVE",
"51 -14 OFFCURVE",
"66 -14 CURVE SMOOTH",
"80 -14 OFFCURVE",
"93 5 OFFCURVE",
"93 29 CURVE SMOOTH",
"93 91 OFFCURVE",
"96 238 OFFCURVE",
"96 307 CURVE SMOOTH",
"96 320 OFFCURVE",
"109 582 OFFCURVE",
"109 583 CURVE SMOOTH",
"109 601 OFFCURVE",
"104 611 OFFCURVE",
"97 611 CURVE SMOOTH",
"85 611 OFFCURVE",
"81 605 OFFCURVE",
"81 586 CURVE SMOOTH",
"81 545 OFFCURVE",
"87 499 OFFCURVE",
"87 445 CURVE SMOOTH"
);
},
{
closed = 1;
nodes = (
"70 692 OFFCURVE",
"83 683 OFFCURVE",
"99 683 CURVE SMOOTH",
"117 683 OFFCURVE",
"125 690 OFFCURVE",
"125 703 CURVE SMOOTH",
"125 726 OFFCURVE",
"113 727 OFFCURVE",
"92 727 CURVE SMOOTH",
"81 727 OFFCURVE",
"70 717 OFFCURVE",
"70 703 CURVE SMOOTH"
);
}
);
width = 165;
}
);
unicode = 00A1;
},
{
glyphname = numbersign;
lastChange = "2017-03-21 22:14:29 +0000";
layers = (
{
layerId = "CCC4B6D6-30B5-49E5-84BA-D7A51BB31B72";
name = Regular;
paths = (
{
closed = 1;
nodes = (
"49 450 OFFCURVE",
"76 450 CURVE SMOOTH",
"141 450 OFFCURVE",
"235 511 OFFCURVE",
"305 576 CURVE",
"308 576 LINE",
"300 418 OFFCURVE",
"251 122 OFFCURVE",
"251 53 CURVE SMOOTH",
"251 15 OFFCURVE",
"255 -10 OFFCURVE",
"280 -10 CURVE SMOOTH",
"301 -10 OFFCURVE",
"308 15 OFFCURVE",
"308 53 CURVE SMOOTH",
"308 354 OFFCURVE",
"318 500 OFFCURVE",
"340 626 CURVE SMOOTH",
"343 643 OFFCURVE",
"352 666 OFFCURVE",
"352 683 CURVE SMOOTH",
"352 707 OFFCURVE",
"340 718 OFFCURVE",
"328 718 CURVE SMOOTH",
"316 718 OFFCURVE",
"305 707 OFFCURVE",
"305 686 CURVE SMOOTH",
"305 671 OFFCURVE",
"306 653 OFFCURVE",
"306 633 CURVE SMOOTH",
"306 581 OFFCURVE",
"186 500 OFFCURVE",
"158 500 CURVE SMOOTH",
"113 500 OFFCURVE",
"99 525 OFFCURVE",
"76 525 CURVE SMOOTH",
"58 525 OFFCURVE",
"30 518 OFFCURVE",
"30 484 CURVE SMOOTH",
"30 460 OFFCURVE"
);
},
{
closed = 1;
nodes = (
"385 257 OFFCURVE",
"358 257 CURVE SMOOTH",
"293 257 OFFCURVE",
"199 196 OFFCURVE",
"129 131 CURVE",
"126 131 LINE",
"134 289 OFFCURVE",
"183 585 OFFCURVE",
"183 654 CURVE SMOOTH",
"183 692 OFFCURVE",
"179 717 OFFCURVE",
"154 717 CURVE SMOOTH",
"133 717 OFFCURVE",
"126 692 OFFCURVE",
"126 654 CURVE SMOOTH",
"126 353 OFFCURVE",
"116 207 OFFCURVE",
"94 81 CURVE SMOOTH",
"91 64 OFFCURVE",
"82 41 OFFCURVE",
"82 24 CURVE SMOOTH",
"82 0 OFFCURVE",
"94 -11 OFFCURVE",
"106 -11 CURVE SMOOTH",
"118 -11 OFFCURVE",
"129 0 OFFCURVE",
"129 21 CURVE SMOOTH",
"129 36 OFFCURVE",
"128 54 OFFCURVE",
"128 74 CURVE SMOOTH",
"128 126 OFFCURVE",
"248 207 OFFCURVE",
"276 207 CURVE SMOOTH",
"321 207 OFFCURVE",
"335 182 OFFCURVE",
"358 182 CURVE SMOOTH",
"376 182 OFFCURVE",
"404 189 OFFCURVE",
"404 223 CURVE SMOOTH",
"404 247 OFFCURVE"
);
}
);
width = 434;
},
{
layerId = "537B1E8F-B3C8-45B3-90C6-0C31F5F160D0";
name = Light;
paths = (
{
closed = 1;
nodes = (
"40 472 OFFCURVE",
"53 462 OFFCURVE",
"80 462 CURVE SMOOTH",
"137 462 OFFCURVE",
"230 508 OFFCURVE",
"318 594 CURVE",
"321 594 LINE",
"321 380 OFFCURVE",
"270 152 OFFCURVE",
"270 41 CURVE SMOOTH",
"270 -2 OFFCURVE",
"277 -17 OFFCURVE",
"292 -17 CURVE SMOOTH",
"306 -17 OFFCURVE",
"313 2 OFFCURVE",
"313 41 CURVE SMOOTH",
"313 355 OFFCURVE",
"323 508 OFFCURVE",
"346 639 CURVE SMOOTH",
"349 657 OFFCURVE",
"359 681 OFFCURVE",
"359 698 CURVE SMOOTH",
"359 716 OFFCURVE",
"352 727 OFFCURVE",
"342 727 CURVE SMOOTH",
"334 727 OFFCURVE",
"327 717 OFFCURVE",
"327 701 CURVE SMOOTH",
"327 685 OFFCURVE",
"328 667 OFFCURVE",
"328 646 CURVE SMOOTH",
"328 588 OFFCURVE",
"197 500 OFFCURVE",
"165 500 CURVE SMOOTH",
"113 500 OFFCURVE",
"100 526 OFFCURVE",
"80 526 CURVE SMOOTH",
"55 526 OFFCURVE",
"40 514 OFFCURVE",
"40 490 CURVE SMOOTH"
);
},
{
closed = 1;
nodes = (
"413 237 OFFCURVE",
"401 247 OFFCURVE",
"373 247 CURVE SMOOTH",
"316 247 OFFCURVE",
"223 201 OFFCURVE",
"135 115 CURVE",
"132 115 LINE",
"132 329 OFFCURVE",
"183 557 OFFCURVE",
"183 668 CURVE SMOOTH",
"183 711 OFFCURVE",
"176 726 OFFCURVE",
"161 726 CURVE SMOOTH",
"147 726 OFFCURVE",
"140 707 OFFCURVE",
"140 668 CURVE SMOOTH",
"140 354 OFFCURVE",
"130 201 OFFCURVE",
"107 70 CURVE SMOOTH",
"104 52 OFFCURVE",
"94 28 OFFCURVE",
"94 11 CURVE SMOOTH",
"94 -7 OFFCURVE",
"101 -18 OFFCURVE",
"111 -18 CURVE SMOOTH",
"119 -18 OFFCURVE",
"126 -8 OFFCURVE",
"126 8 CURVE SMOOTH",
"126 24 OFFCURVE",
"125 42 OFFCURVE",
"125 63 CURVE SMOOTH",
"125 121 OFFCURVE",
"256 209 OFFCURVE",
"288 209 CURVE SMOOTH",
"340 209 OFFCURVE",
"353 183 OFFCURVE",
"373 183 CURVE SMOOTH",
"398 183 OFFCURVE",
"413 195 OFFCURVE",
"413 219 CURVE SMOOTH"
);
}
);
width = 438;
}
);
unicode = 0023;
},
{
glyphname = period;
lastChange = "2017-03-22 20:12:19 +0000";
layers = (
{
layerId = "CCC4B6D6-30B5-49E5-84BA-D7A51BB31B72";
name = Regular;
paths = (
{
closed = 1;
nodes = (
"91 48 OFFCURVE",
"73 48 CURVE SMOOTH",
"56 48 OFFCURVE",
"40 41 OFFCURVE",
"40 22 CURVE SMOOTH",
"40 -7 OFFCURVE",
"59 -9 OFFCURVE",
"80 -9 CURVE SMOOTH",
"98 -9 OFFCURVE",
"109 7 OFFCURVE",
"109 22 CURVE SMOOTH",
"109 39 OFFCURVE"
);
}
);
width = 149;
},
{
layerId = "537B1E8F-B3C8-45B3-90C6-0C31F5F160D0";
name = Light;
paths = (
{
closed = 1;
nodes = (
"93 33 OFFCURVE",
"81 41 OFFCURVE",
"65 41 CURVE SMOOTH",
"48 41 OFFCURVE",
"40 34 OFFCURVE",
"40 22 CURVE SMOOTH",
"40 -1 OFFCURVE",
"51 -2 OFFCURVE",
"72 -2 CURVE SMOOTH",
"83 -2 OFFCURVE",
"93 9 OFFCURVE",
"93 22 CURVE SMOOTH"
);
}
);
width = 133;
}
);
unicode = 002E;
},
{
glyphname = question;
lastChange = "2017-03-21 22:16:09 +0000";
layers = (
{
layerId = "CCC4B6D6-30B5-49E5-84BA-D7A51BB31B72";
name = Regular;
paths = (
{
closed = 1;
nodes = (
"80 553 OFFCURVE",
"71 567 OFFCURVE",
"71 584 CURVE SMOOTH",
"71 650 OFFCURVE",
"127 691 OFFCURVE",
"188 691 CURVE SMOOTH",
"241 691 OFFCURVE",
"296 639 OFFCURVE",
"296 579 CURVE SMOOTH",
"296 460 OFFCURVE",
"178 288 OFFCURVE",
"155 175 CURVE SMOOTH",
"153 165 OFFCURVE",
"150 154 OFFCURVE",
"150 143 CURVE SMOOTH",
"150 123 OFFCURVE",
"157 105 OFFCURVE",
"175 105 CURVE SMOOTH",
"199 105 OFFCURVE",
"209 153 OFFCURVE",
"210 178 CURVE SMOOTH",
"217 360 OFFCURVE",
"320 431 OFFCURVE",
"320 580 CURVE SMOOTH",
"320 646 OFFCURVE",
"272 716 OFFCURVE",
"188 716 CURVE",
"148 716 OFFCURVE",
"99 697 OFFCURVE",
"77 672 CURVE SMOOTH",
"49 640 OFFCURVE",
"40 597 OFFCURVE",
"40 576 CURVE SMOOTH",
"40 530 OFFCURVE",
"55 487 OFFCURVE",
"88 487 CURVE SMOOTH",
"107 487 OFFCURVE",
"118 502 OFFCURVE",
"118 517 CURVE SMOOTH",
"118 534 OFFCURVE",
"108 553 OFFCURVE",
"85 553 CURVE SMOOTH"
);
},
{
closed = 1;
nodes = (
"182 49 OFFCURVE",
"164 49 CURVE SMOOTH",
"147 49 OFFCURVE",
"131 42 OFFCURVE",
"131 23 CURVE SMOOTH",
"131 -6 OFFCURVE",
"150 -8 OFFCURVE",
"171 -8 CURVE SMOOTH",
"189 -8 OFFCURVE",
"200 8 OFFCURVE",
"200 23 CURVE SMOOTH",
"200 40 OFFCURVE"
);
}
);
width = 360;
},
{
layerId = "537B1E8F-B3C8-45B3-90C6-0C31F5F160D0";
name = Light;
paths = (
{
closed = 1;
nodes = (
"66 557 OFFCURVE",
"56 577 OFFCURVE",
"56 597 CURVE SMOOTH",
"56 665 OFFCURVE",
"112 713 OFFCURVE",
"187 713 CURVE SMOOTH",
"250 713 OFFCURVE",
"301 656 OFFCURVE",
"301 592 CURVE SMOOTH",
"301 465 OFFCURVE",
"182 284 OFFCURVE",
"161 167 CURVE SMOOTH",
"159 156 OFFCURVE",
"155 145 OFFCURVE",
"155 134 CURVE SMOOTH",
"155 113 OFFCURVE",
"163 102 OFFCURVE",
"173 102 CURVE SMOOTH",
"187 102 OFFCURVE",
"201 134 OFFCURVE",
"202 171 CURVE SMOOTH",
"207 366 OFFCURVE",
"317 438 OFFCURVE",
"317 593 CURVE SMOOTH",
"317 668 OFFCURVE",
"260 728 OFFCURVE",
"187 728 CURVE SMOOTH",
"146 728 OFFCURVE",
"98 709 OFFCURVE",
"77 684 CURVE",
"55 660 OFFCURVE",
"40 619 OFFCURVE",
"40 588 CURVE SMOOTH",
"40 537 OFFCURVE",
"57 502 OFFCURVE",
"82 502 CURVE SMOOTH",
"96 502 OFFCURVE",
"105 513 OFFCURVE",
"105 527 CURVE SMOOTH",
"105 544 OFFCURVE",
"95 557 OFFCURVE",
"79 557 CURVE SMOOTH"
);
},
{
closed = 1;
nodes = (
"191 20 OFFCURVE",
"178 28 OFFCURVE",
"162 28 CURVE SMOOTH",
"144 28 OFFCURVE",
"135 21 OFFCURVE",
"135 8 CURVE SMOOTH",
"135 -16 OFFCURVE",
"147 -17 OFFCURVE",
"169 -17 CURVE SMOOTH",
"181 -17 OFFCURVE",
"191 -5 OFFCURVE",
"191 8 CURVE SMOOTH"
);
}
);
width = 357;
}
);
unicode = 003F;
},
{
glyphname = questiondown;
lastChange = "2017-03-21 22:16:27 +0000";
layers = (
{
layerId = "CCC4B6D6-30B5-49E5-84BA-D7A51BB31B72";
name = Regular;
paths = (
{
closed = 1;
nodes = (
"108 155 OFFCURVE",
"118 174 OFFCURVE",
"118 191 CURVE SMOOTH",
"118 206 OFFCURVE",
"107 221 OFFCURVE",
"88 221 CURVE SMOOTH",
"55 221 OFFCURVE",
"40 178 OFFCURVE",
"40 132 CURVE SMOOTH",
"40 111 OFFCURVE",
"49 68 OFFCURVE",
"77 36 CURVE SMOOTH",
"99 11 OFFCURVE",
"148 -8 OFFCURVE",
"188 -8 CURVE",
"272 -8 OFFCURVE",
"320 62 OFFCURVE",
"320 128 CURVE SMOOTH",
"320 277 OFFCURVE",
"217 348 OFFCURVE",
"210 530 CURVE SMOOTH",
"209 555 OFFCURVE",
"199 603 OFFCURVE",
"175 603 CURVE SMOOTH",
"157 603 OFFCURVE",
"150 585 OFFCURVE",
"150 565 CURVE SMOOTH",
"150 554 OFFCURVE",
"153 543 OFFCURVE",
"155 533 CURVE SMOOTH",
"178 420 OFFCURVE",
"296 248 OFFCURVE",
"296 129 CURVE SMOOTH",
"296 69 OFFCURVE",
"241 17 OFFCURVE",
"188 17 CURVE SMOOTH",
"127 17 OFFCURVE",
"71 58 OFFCURVE",
"71 124 CURVE SMOOTH",
"71 141 OFFCURVE",
"80 155 OFFCURVE",
"85 155 CURVE SMOOTH"
);
},
{
closed = 1;
nodes = (
"200 685 CURVE SMOOTH",
"200 700 OFFCURVE",
"189 716 OFFCURVE",
"171 716 CURVE SMOOTH",
"150 716 OFFCURVE",
"131 714 OFFCURVE",
"131 685 CURVE SMOOTH",
"131 666 OFFCURVE",
"147 659 OFFCURVE",
"164 659 CURVE SMOOTH",
"182 659 OFFCURVE",
"200 668 OFFCURVE"
);
}
);
width = 360;
},
{
layerId = "537B1E8F-B3C8-45B3-90C6-0C31F5F160D0";
name = Light;
paths = (
{
closed = 1;
nodes = (
"291 154 OFFCURVE",
"301 134 OFFCURVE",
"301 114 CURVE SMOOTH",
"301 46 OFFCURVE",
"245 -2 OFFCURVE",
"170 -2 CURVE SMOOTH",
"107 -2 OFFCURVE",
"56 55 OFFCURVE",
"56 119 CURVE SMOOTH",
"56 246 OFFCURVE",
"175 427 OFFCURVE",
"196 544 CURVE SMOOTH",
"198 555 OFFCURVE",
"202 566 OFFCURVE",
"202 577 CURVE SMOOTH",
"202 598 OFFCURVE",
"194 609 OFFCURVE",
"184 609 CURVE SMOOTH",
"170 609 OFFCURVE",
"156 577 OFFCURVE",
"155 540 CURVE SMOOTH",
"150 345 OFFCURVE",
"40 273 OFFCURVE",
"40 118 CURVE SMOOTH",
"40 43 OFFCURVE",
"97 -17 OFFCURVE",
"170 -17 CURVE SMOOTH",
"211 -17 OFFCURVE",
"259 2 OFFCURVE",
"280 27 CURVE",
"302 51 OFFCURVE",
"317 92 OFFCURVE",
"317 123 CURVE SMOOTH",
"317 174 OFFCURVE",
"300 209 OFFCURVE",
"275 209 CURVE SMOOTH",
"261 209 OFFCURVE",
"252 198 OFFCURVE",
"252 184 CURVE SMOOTH",
"252 167 OFFCURVE",
"262 154 OFFCURVE",
"278 154 CURVE SMOOTH"
);
},
{
closed = 1;
nodes = (
"166 691 OFFCURVE",
"179 683 OFFCURVE",
"195 683 CURVE SMOOTH",
"213 683 OFFCURVE",
"222 690 OFFCURVE",
"222 703 CURVE SMOOTH",
"222 727 OFFCURVE",
"210 728 OFFCURVE",
"188 728 CURVE SMOOTH",
"176 728 OFFCURVE",
"166 716 OFFCURVE",
"166 703 CURVE SMOOTH"
);
}
);
width = 600;
}
);
unicode = 00BF;
},
{
glyphname = quotedbl;
lastChange = "2017-03-22 17:18:21 +0000";
layers = (
{
layerId = "CCC4B6D6-30B5-49E5-84BA-D7A51BB31B72";
name = Regular;
paths = (
{
closed = 1;
nodes = (
"67 602 OFFCURVE",
"67 609 OFFCURVE",
"67 630 CURVE SMOOTH",
"67 667 OFFCURVE",
"72 670 OFFCURVE",
"70 697 CURVE SMOOTH",
"69 713 OFFCURVE",
"63 719 OFFCURVE",
"56 718 CURVE SMOOTH",
"46 717 OFFCURVE",
"40 707 OFFCURVE",
"40 695 CURVE SMOOTH",
"40 694 OFFCURVE",
"46 587 OFFCURVE",
"47 577 CURVE SMOOTH",
"51 532 OFFCURVE",
"44 509 OFFCURVE",
"46 466 CURVE SMOOTH",
"47 439 OFFCURVE",
"64 433 OFFCURVE",
"70 433 CURVE SMOOTH",
"75 433 OFFCURVE",
"95 440 OFFCURVE",
"93 467 CURVE SMOOTH",
"90 501 OFFCURVE",
"74 489 OFFCURVE",
"68 583 CURVE SMOOTH"
);
},
{
closed = 1;
nodes = (
"157 602 OFFCURVE",
"157 609 OFFCURVE",
"157 630 CURVE SMOOTH",
"157 667 OFFCURVE",
"162 670 OFFCURVE",
"160 697 CURVE SMOOTH",
"159 713 OFFCURVE",
"153 719 OFFCURVE",
"146 718 CURVE SMOOTH",
"136 717 OFFCURVE",
"130 707 OFFCURVE",
"130 695 CURVE SMOOTH",
"130 694 OFFCURVE",
"136 587 OFFCURVE",
"137 577 CURVE SMOOTH",
"141 532 OFFCURVE",
"134 509 OFFCURVE",
"136 466 CURVE SMOOTH",
"137 439 OFFCURVE",
"154 433 OFFCURVE",
"160 433 CURVE SMOOTH",
"165 433 OFFCURVE",
"185 440 OFFCURVE",
"183 467 CURVE SMOOTH",
"180 501 OFFCURVE",
"164 489 OFFCURVE",
"158 583 CURVE SMOOTH"
);
}
);
width = 223;
},
{
layerId = "537B1E8F-B3C8-45B3-90C6-0C31F5F160D0";
name = Light;
paths = (
{
closed = 1;
nodes = (
"67 616 OFFCURVE",
"70 663 OFFCURVE",
"66 709 CURVE SMOOTH",
"64 722 OFFCURVE",
"62 726 OFFCURVE",
"60 726 CURVE",
"54 726 OFFCURVE",
"50 718 OFFCURVE",
"50 708 CURVE SMOOTH",
"50 707 OFFCURVE",
"57 588 OFFCURVE",
"58 578 CURVE SMOOTH",
"63 527 OFFCURVE",
"53 502 OFFCURVE",
"57 454 CURVE SMOOTH",
"58 438 OFFCURVE",
"66 425 OFFCURVE",
"74 425 CURVE SMOOTH",
"83 425 OFFCURVE",
"86 439 OFFCURVE",
"83 454 CURVE SMOOTH",
"78 489 OFFCURVE",
"79 438 OFFCURVE",
"69 584 CURVE SMOOTH"
);
},
{
closed = 1;
nodes = (
"67 616 OFFCURVE",
"70 663 OFFCURVE",
"66 709 CURVE SMOOTH",
"64 722 OFFCURVE",
"62 726 OFFCURVE",
"60 726 CURVE",
"54 726 OFFCURVE",
"50 718 OFFCURVE",
"50 708 CURVE SMOOTH",
"50 707 OFFCURVE",
"57 588 OFFCURVE",
"58 578 CURVE SMOOTH",
"63 527 OFFCURVE",
"53 502 OFFCURVE",
"57 454 CURVE SMOOTH",
"58 438 OFFCURVE",
"66 425 OFFCURVE",
"74 425 CURVE SMOOTH",
"83 425 OFFCURVE",
"86 439 OFFCURVE",
"83 454 CURVE SMOOTH",
"78 489 OFFCURVE",
"79 438 OFFCURVE",
"69 584 CURVE SMOOTH"
);
},
{
closed = 1;
nodes = (
"134 616 OFFCURVE",
"137 663 OFFCURVE",
"133 709 CURVE SMOOTH",
"132 722 OFFCURVE",
"129 726 OFFCURVE",
"127 726 CURVE",
"121 726 OFFCURVE",
"117 718 OFFCURVE",
"117 708 CURVE SMOOTH",
"117 707 OFFCURVE",
"124 588 OFFCURVE",
"125 578 CURVE SMOOTH",
"130 527 OFFCURVE",
"121 502 OFFCURVE",
"124 454 CURVE SMOOTH",
"125 438 OFFCURVE",
"133 425 OFFCURVE",
"141 425 CURVE SMOOTH",
"150 425 OFFCURVE",
"153 439 OFFCURVE",
"150 454 CURVE SMOOTH",
"143 489 OFFCURVE",
"145 438 OFFCURVE",
"136 584 CURVE SMOOTH"
);
}
);
width = 201;
}
);
unicode = 0022;
},
{
glyphname = quotesingle;
lastChange = "2017-03-22 17:18:39 +0000";
layers = (
{
layerId = "CCC4B6D6-30B5-49E5-84BA-D7A51BB31B72";
name = Regular;
paths = (
{
closed = 1;
nodes = (
"67 630 CURVE SMOOTH",
"67 667 OFFCURVE",
"72 670 OFFCURVE",
"70 697 CURVE SMOOTH",
"69 713 OFFCURVE",
"63 719 OFFCURVE",
"56 718 CURVE SMOOTH",
"46 717 OFFCURVE",
"40 707 OFFCURVE",
"40 695 CURVE SMOOTH",
"40 694 OFFCURVE",
"46 587 OFFCURVE",
"47 577 CURVE SMOOTH",
"51 532 OFFCURVE",
"44 508 OFFCURVE",
"46 465 CURVE SMOOTH",
"47 438 OFFCURVE",
"64 432 OFFCURVE",
"70 432 CURVE SMOOTH",
"75 432 OFFCURVE",
"95 439 OFFCURVE",
"93 466 CURVE SMOOTH",
"90 500 OFFCURVE",
"74 488 OFFCURVE",
"68 583 CURVE SMOOTH",
"67 602 OFFCURVE",
"67 609 OFFCURVE"
);
}
);
width = 133;
},
{
layerId = "537B1E8F-B3C8-45B3-90C6-0C31F5F160D0";
name = Light;
paths = (
{
closed = 1;
nodes = (
"67 616 OFFCURVE",
"70 663 OFFCURVE",
"66 709 CURVE SMOOTH",
"64 722 OFFCURVE",
"62 726 OFFCURVE",
"60 726 CURVE",
"54 726 OFFCURVE",
"50 718 OFFCURVE",
"50 708 CURVE SMOOTH",
"50 707 OFFCURVE",
"57 588 OFFCURVE",
"58 578 CURVE SMOOTH",
"63 527 OFFCURVE",
"53 502 OFFCURVE",
"57 454 CURVE SMOOTH",
"58 438 OFFCURVE",
"66 425 OFFCURVE",
"74 425 CURVE SMOOTH",
"83 425 OFFCURVE",
"86 439 OFFCURVE",
"83 454 CURVE SMOOTH",
"78 489 OFFCURVE",
"79 438 OFFCURVE",
"69 584 CURVE SMOOTH"
);
},
{
closed = 1;
nodes = (
"67 616 OFFCURVE",
"70 663 OFFCURVE",
"66 709 CURVE SMOOTH",
"64 722 OFFCURVE",
"62 726 OFFCURVE",
"60 726 CURVE",
"54 726 OFFCURVE",
"50 718 OFFCURVE",
"50 708 CURVE SMOOTH",
"50 707 OFFCURVE",
"57 588 OFFCURVE",
"58 578 CURVE SMOOTH",
"63 527 OFFCURVE",
"53 502 OFFCURVE",
"57 454 CURVE SMOOTH",
"58 438 OFFCURVE",
"66 425 OFFCURVE",
"74 425 CURVE SMOOTH",
"83 425 OFFCURVE",
"86 439 OFFCURVE",
"83 454 CURVE SMOOTH",
"78 489 OFFCURVE",
"79 438 OFFCURVE",
"69 584 CURVE SMOOTH"
);
}
);
width = 134;
}
);
unicode = 0027;
},
{
glyphname = semicolon;
lastChange = "2017-03-22 15:52:53 +0000";
layers = (
{
layerId = "CCC4B6D6-30B5-49E5-84BA-D7A51BB31B72";
name = Regular;
paths = (
{
closed = 1;
nodes = (
"95 373 OFFCURVE",
"77 373 CURVE SMOOTH",
"60 373 OFFCURVE",
"44 366 OFFCURVE",
"44 347 CURVE SMOOTH",
"44 318 OFFCURVE",
"63 316 OFFCURVE",
"84 316 CURVE SMOOTH",
"102 316 OFFCURVE",
"113 332 OFFCURVE",
"113 347 CURVE SMOOTH",
"113 364 OFFCURVE"
);
},
{
closed = 1;
nodes = (
"96 -49 OFFCURVE",
"109 -31 OFFCURVE",
"114 -14 CURVE SMOOTH",
"116 -7 OFFCURVE",
"117 0 OFFCURVE",
"117 7 CURVE SMOOTH",
"117 37 OFFCURVE",
"101 66 OFFCURVE",
"74 66 CURVE SMOOTH",
"57 66 OFFCURVE",
"49 56 OFFCURVE",
"49 39 CURVE SMOOTH",
"49 9 OFFCURVE",
"78 -8 OFFCURVE",
"78 -20 CURVE SMOOTH",
"78 -39 OFFCURVE",
"56 -48 OFFCURVE",
"45 -55 CURVE SMOOTH",
"42 -57 OFFCURVE",
"40 -60 OFFCURVE",
"40 -65 CURVE SMOOTH",
"40 -72 OFFCURVE",
"47 -75 OFFCURVE",
"56 -75 CURVE SMOOTH",
"64 -75 OFFCURVE",
"71 -71 OFFCURVE",
"79 -64 CURVE SMOOTH"
);
}
);
width = 157;
},
{
layerId = "537B1E8F-B3C8-45B3-90C6-0C31F5F160D0";
name = Light;
paths = (
{
closed = 1;
nodes = (
"97 358 OFFCURVE",
"85 366 OFFCURVE",
"69 366 CURVE SMOOTH",
"52 366 OFFCURVE",
"44 359 OFFCURVE",
"44 347 CURVE SMOOTH",
"44 324 OFFCURVE",
"55 323 OFFCURVE",
"76 323 CURVE SMOOTH",
"87 323 OFFCURVE",
"97 334 OFFCURVE",
"97 347 CURVE SMOOTH"
);
},
{
closed = 1;
nodes = (
"82 -45 OFFCURVE",
"94 -28 OFFCURVE",
"98 -12 CURVE SMOOTH",
"100 -6 OFFCURVE",
"101 0 OFFCURVE",
"101 7 CURVE SMOOTH",
"101 37 OFFCURVE",
"86 59 OFFCURVE",
"66 59 CURVE SMOOTH",
"54 59 OFFCURVE",
"49 53 OFFCURVE",
"49 39 CURVE SMOOTH",
"49 12 OFFCURVE",
"78 -5 OFFCURVE",
"78 -20 CURVE SMOOTH",
"78 -43 OFFCURVE",
"52 -54 OFFCURVE",
"41 -61 CURVE",
"41 -61 OFFCURVE",
"40 -63 OFFCURVE",
"40 -65 CURVE SMOOTH",
"40 -67 OFFCURVE",
"42 -68 OFFCURVE",
"48 -68 CURVE SMOOTH",
"53 -68 OFFCURVE",
"58 -66 OFFCURVE",
"66 -59 CURVE SMOOTH"
);
}
);
width = 141;
}
);
unicode = 003B;
},
{
glyphname = slash;
lastChange = "2017-03-22 15:53:25 +0000";
layers = (
{
layerId = "CCC4B6D6-30B5-49E5-84BA-D7A51BB31B72";
name = Regular;
paths = (
{
closed = 1;
nodes = (
"289 586 OFFCURVE",
"319 647 CURVE SMOOTH",
"325 659 OFFCURVE",
"328 670 OFFCURVE",
"328 679 CURVE SMOOTH",
"328 704 OFFCURVE",
"307 717 OFFCURVE",
"296 717 CURVE SMOOTH",
"278 717 OFFCURVE",
"255 717 OFFCURVE",
"239 670 CURVE SMOOTH",
"215 601 OFFCURVE",
"164 430 OFFCURVE",
"143 352 CURVE SMOOTH",
"139 337 OFFCURVE",
"33 41 OFFCURVE",
"33 40 CURVE SMOOTH",
"31 35 OFFCURVE",
"30 29 OFFCURVE",
"30 22 CURVE SMOOTH",
"30 0 OFFCURVE",
"43 -9 OFFCURVE",
"58 -9 CURVE SMOOTH",
"69 -9 OFFCURVE",
"78 -1 OFFCURVE",
"85 21 CURVE SMOOTH",
"100 67 OFFCURVE",
"107 123 OFFCURVE",
"124 185 CURVE SMOOTH",
"198 455 OFFCURVE"
);
}
);
width = 358;
},
{
layerId = "537B1E8F-B3C8-45B3-90C6-0C31F5F160D0";
name = Light;
paths = (
{
closed = 1;
nodes = (
"199 462 OFFCURVE",
"294 600 OFFCURVE",
"326 664 CURVE SMOOTH",
"331 674 OFFCURVE",
"334 685 OFFCURVE",
"334 693 CURVE SMOOTH",
"334 711 OFFCURVE",
"322 726 OFFCURVE",
"309 726 CURVE SMOOTH",
"290 726 OFFCURVE",
"273 726 OFFCURVE",
"257 682 CURVE SMOOTH",
"233 611 OFFCURVE",
"180 432 OFFCURVE",
"157 350 CURVE SMOOTH",
"155 342 OFFCURVE",
"44 27 OFFCURVE",
"43 26 CURVE",
"41 21 OFFCURVE",
"40 14 OFFCURVE",
"40 8 CURVE SMOOTH",
"40 -8 OFFCURVE",
"47 -17 OFFCURVE",
"60 -17 CURVE SMOOTH",
"69 -17 OFFCURVE",
"75 -9 OFFCURVE",
"81 9 CURVE SMOOTH",
"96 56 OFFCURVE",
"103 114 OFFCURVE",
"122 180 CURVE SMOOTH"
);
}
);
width = 374;
}
);
unicode = 002F;
},
